<svg width="302" height="116" xmlns="http://www.w3.org/2000/svg" xmlns:xlink="http://www.w3.org/1999/xlink" xml:space="preserve" overflow="hidden"><defs><clipPath id="clip0"><rect x="321" y="342" width="302" height="116"/></clipPath></defs><g clip-path="url(#clip0)" transform="translate(-321 -342)"><path d="M0 0 128.801 0.000360892" stroke="#8FAADC" stroke-width="10.3125" stroke-miterlimit="8" fill="none" fill-rule="evenodd" transform="matrix(1 0 0 -1 407 392)"/><path d="M536 392C536 371.013 553.237 354 574.5 354 595.763 354 613 371.013 613 392 613 412.987 595.763 430 574.5 430 553.237 430 536 412.987 536 392Z" fill="#203864" fill-rule="evenodd"/><text fill="#FFFFFF" font-family="Segoe UI,Segoe UI_MSFontService,sans-serif" font-weight="400" font-size="55" transform="matrix(1 0 0 1 559.523 413)">2</text><path d="M331 392C331 371.013 348.013 354 369 354 389.987 354 407 371.013 407 392 407 412.987 389.987 430 369 430 348.013 430 331 412.987 331 392Z" fill="#203864" fill-rule="evenodd"/><text fill="#FFFFFF" font-family="Segoe UI,Segoe UI_MSFontService,sans-serif" font-weight="400" font-size="55" transform="matrix(1 0 0 1 354.384 413)">1</text></g></svg>