<svg width="732" height="491" xmlns="http://www.w3.org/2000/svg" xmlns:xlink="http://www.w3.org/1999/xlink" xml:space="preserve" overflow="hidden"><defs><clipPath id="clip0"><rect x="641" y="646" width="732" height="491"/></clipPath><clipPath id="clip1"><rect x="641" y="682" width="142" height="132"/></clipPath><clipPath id="clip2"><rect x="641" y="682" width="142" height="132"/></clipPath><clipPath id="clip3"><rect x="641" y="682" width="142" height="132"/></clipPath><clipPath id="clip4"><rect x="641" y="940" width="142" height="133"/></clipPath><clipPath id="clip5"><rect x="641" y="940" width="142" height="133"/></clipPath><clipPath id="clip6"><rect x="641" y="940" width="142" height="133"/></clipPath></defs><g clip-path="url(#clip0)" transform="translate(-641 -646)"><g clip-path="url(#clip1)"><g clip-path="url(#clip2)"><g clip-path="url(#clip3)"><path d="M20.988-94.248C20.988-96.624 20.988-99 18.348-99 15.708-99 15.708-96.624 15.708-94.248L15.708 28.248C15.708 30.624 15.708 33 18.348 33 20.988 33 20.988 30.624 20.988 28.248L20.988-94.248Z" transform="matrix(1.01196 0 0 1 641.681 781)"/><path d="M59.136-42.24C59.136-53.196 58.476-63.888 53.724-73.92 48.312-84.876 38.808-87.78 32.34-87.78 24.684-87.78 15.312-83.952 10.428-72.996 6.732-64.68 5.412-56.496 5.412-42.24 5.412-29.436 6.336-19.8 11.088-10.428 16.236-0.396005 25.344 2.77201 32.208 2.77201 43.692 2.77201 50.292-4.092 54.12-11.748 58.872-21.648 59.136-34.584 59.136-42.24ZM32.208 0.131998C27.984 0.131998 19.404-2.244 16.896-16.632 15.444-24.552 15.444-34.584 15.444-43.824 15.444-54.648 15.444-64.416 17.556-72.204 19.8-81.048 26.532-85.14 32.208-85.14 37.224-85.14 44.88-82.104 47.388-70.752 49.104-63.228 49.104-52.8 49.104-43.824 49.104-34.98 49.104-24.948 47.652-16.896 45.144-2.376 36.828 0.131998 32.208 0.131998Z" transform="matrix(1.01196 0 0 1 678.787 781)"/><path d="M36.036-30.756C36.696-32.34 36.696-32.604 36.696-33 36.696-33.396 36.696-33.66 36.036-35.244L12.936-95.964C12.144-98.208 11.352-99 9.9-99 8.44801-99 7.26-97.812 7.26-96.36 7.26-95.964 7.26-95.7 7.92-94.248L31.284-33 7.92 27.984C7.26 29.436 7.26 29.7 7.26 30.36 7.26 31.812 8.448 33 9.9 33 11.616 33 12.144 31.68 12.672 30.36L36.036-30.756Z" transform="matrix(1.01196 0 0 1 744.184 781)"/></g></g></g><path d="M847.5 748.5 1370 748.5" stroke="#000000" stroke-width="4.58333" stroke-miterlimit="8" fill="none" fill-rule="evenodd"/><path d="M847.5 1007.5 1370 1007.5" stroke="#000000" stroke-width="4.58333" stroke-miterlimit="8" fill="none" fill-rule="evenodd"/><g clip-path="url(#clip4)"><g clip-path="url(#clip5)"><g clip-path="url(#clip6)"><path d="M21.147-94.9618C21.147-97.3558 21.147-99.7498 18.4869-99.7498 15.827-99.7498 15.827-97.3558 15.827-94.9618L15.827 28.4619C15.827 30.8559 15.827 33.2499 18.4869 33.2499 21.1469 33.2499 21.147 30.8559 21.147 28.4619L21.147-94.9618Z" transform="matrix(1.00435 0 0 1 641.681 1039.75)"/><path d="M59.5839-42.5599C59.5839-53.5989 58.9188-64.3718 54.1309-74.4798 48.6779-85.5188 39.1019-88.4448 32.5849-88.4448 24.8709-88.4448 15.428-84.5878 10.507-73.5488 6.78299-65.1698 5.45299-56.9239 5.45299-42.5599 5.45299-29.6589 6.38398-19.9499 11.172-10.507 16.359-0.399005 25.5359 2.793 32.4519 2.793 44.0229 2.793 50.6729-4.12299 54.5299-11.837 59.3179-21.812 59.5839-34.8459 59.5839-42.5599ZM32.4519 0.132998C28.1959 0.132998 19.551-2.261 17.024-16.758 15.561-24.7379 15.561-34.8459 15.561-44.1559 15.561-55.0619 15.561-64.9038 17.689-72.7508 19.9499-81.6618 26.7329-85.7848 32.4519-85.7848 37.5059-85.7848 45.2199-82.7258 47.7469-71.2878 49.4759-63.7068 49.4759-53.1999 49.4759-44.1559 49.4759-35.2449 49.4759-25.1369 48.0129-17.024 45.4859-2.39399 37.1069 0.132998 32.4519 0.132998Z" transform="matrix(1.00435 0 0 1 678.787 1039.75)"/><path d="M36.3089-30.9889C36.9739-32.5849 36.9739-32.8509 36.9739-33.2499 36.9739-33.6489 36.9739-33.9149 36.3089-35.5109L13.034-96.6908C12.236-98.9518 11.438-99.7498 9.97498-99.7498 8.51199-99.7498 7.31498-98.5528 7.31498-97.0898 7.31498-96.6908 7.31498-96.4248 7.97998-94.9618L31.5209-33.2499 7.97998 28.1959C7.31498 29.6589 7.31498 29.9249 7.31498 30.5899 7.31498 32.0529 8.51198 33.2499 9.97498 33.2499 11.704 33.2499 12.236 31.9199 12.768 30.5899L36.3089-30.9889Z" transform="matrix(1.00435 0 0 1 744.184 1039.75)"/></g></g></g><path d="M1225 748 1225 1006.5" stroke="#000000" stroke-width="10.3125" stroke-miterlimit="8" fill="none" fill-rule="evenodd"/><path d="M1206 748C1206 737.507 1214.73 729 1225.5 729 1236.27 729 1245 737.507 1245 748 1245 758.493 1236.27 767 1225.5 767 1214.73 767 1206 758.493 1206 748Z" fill-rule="evenodd"/><path d="M1206 1006.5C1206 995.73 1214.73 987 1225.5 987 1236.27 987 1245 995.73 1245 1006.5 1245 1017.27 1236.27 1026 1225.5 1026 1214.73 1026 1206 1017.27 1206 1006.5Z" fill-rule="evenodd"/><rect x="939.5" y="677.5" width="138" height="137" stroke="#000000" stroke-width="4.58333" stroke-miterlimit="8" fill="#FFFFFF"/><text font-family="Cambria,Cambria_MSFontService,sans-serif" font-style="italic" font-weight="400" font-size="110" transform="matrix(1 0 0 1 971.476 787)">H</text><rect x="939.5" y="935.5" width="138" height="138" stroke="#000000" stroke-width="4.58333" stroke-miterlimit="8" fill="#FFFFFF"/><text font-family="Cambria,Cambria_MSFontService,sans-serif" font-style="italic" font-weight="400" font-size="110" transform="matrix(1 0 0 1 971.476 1045)">H</text></g></svg>