<svg width="746" height="491" xmlns="http://www.w3.org/2000/svg" xmlns:xlink="http://www.w3.org/1999/xlink" xml:space="preserve" overflow="hidden"><defs><clipPath id="clip0"><rect x="627" y="646" width="746" height="491"/></clipPath><clipPath id="clip1"><rect x="627" y="940" width="196" height="133"/></clipPath><clipPath id="clip2"><rect x="627" y="940" width="196" height="133"/></clipPath><clipPath id="clip3"><rect x="627" y="940" width="196" height="133"/></clipPath><clipPath id="clip4"><rect x="631" y="684" width="189" height="130"/></clipPath><clipPath id="clip5"><rect x="631" y="684" width="189" height="130"/></clipPath><clipPath id="clip6"><rect x="631" y="684" width="189" height="130"/></clipPath></defs><g clip-path="url(#clip0)" transform="translate(-627 -646)"><g clip-path="url(#clip1)"><g clip-path="url(#clip2)"><g clip-path="url(#clip3)"><path d="M20.776-93.296C20.776-95.648 20.776-98 18.1627-98 15.5493-98 15.5493-95.648 15.5493-93.296L15.5493 27.9627C15.5493 30.3147 15.5493 32.6667 18.1627 32.6667 20.776 32.6667 20.776 30.3147 20.776 27.9627L20.776-93.296Z" transform="matrix(1 0 0 1.00255 628.682 1039.25)"/><path d="M58.5386-41.8133C58.5386-52.6587 57.8853-63.2426 53.1813-73.1733 47.824-84.0186 38.416-86.8933 32.0133-86.8933 24.4347-86.8933 15.1573-83.104 10.3227-72.2586 6.664-64.0266 5.35733-55.9253 5.35733-41.8133 5.35733-29.1387 6.272-19.6 10.976-10.3227 16.072-0.392005 25.088 2.744 31.8827 2.744 43.2507 2.744 49.784-4.05066 53.5733-11.6293 58.2773-21.4293 58.5386-34.2347 58.5386-41.8133ZM31.8827 0.130665C27.7013 0.130665 19.208-2.22133 16.7253-16.464 15.288-24.304 15.288-34.2347 15.288-43.3813 15.288-54.096 15.288-63.7653 17.3787-71.4746 19.6-80.2293 26.264-84.28 31.8827-84.28 36.848-84.28 44.4267-81.2746 46.9093-70.0373 48.608-62.5893 48.608-52.2666 48.608-43.3813 48.608-34.6267 48.608-24.696 47.1707-16.7253 44.688-2.352 36.456 0.130665 31.8827 0.130665Z" transform="matrix(1 0 0 1.00255 664.979 1039.25)"/><path d="M35.672-30.4453C36.3253-32.0133 36.3253-32.2747 36.3253-32.6667 36.3253-33.0587 36.3253-33.32 35.672-34.888L12.8053-94.9946C12.0213-97.216 11.2373-98 9.8-98 8.36268-98 7.18666-96.824 7.18666-95.3866 7.18666-94.9946 7.18666-94.7333 7.84-93.296L30.968-32.6667 7.84 27.7013C7.18666 29.1387 7.18666 29.4 7.18666 30.0533 7.18666 31.4907 8.36267 32.6667 9.8 32.6667 11.4987 32.6667 12.0213 31.36 12.544 30.0533L35.672-30.4453Z" transform="matrix(1 0 0 1.00255 728.95 1039.25)"/><path d="M24.5653-17.7707C25.9591-19.0773 29.6178-21.952 31.0115-23.1716 36.4124-28.1369 41.552-32.928 41.552-40.8551 41.552-51.2213 32.8409-57.9289 21.952-57.9289 11.4987-57.9289 4.61689-50.0018 4.61689-42.2489 4.61689-37.9804 8.01422-37.3707 9.23378-37.3707 11.0631-37.3707 13.7636-38.6773 13.7636-41.9875 13.7636-46.5173 9.408-46.5173 8.36267-46.5173 10.8889-52.8764 16.7253-55.0542 20.9938-55.0542 29.0951-55.0542 33.2764-48.1724 33.2764-40.8551 33.2764-31.7955 26.9173-25.1751 16.6382-14.6347L5.66222-3.31022C4.61689-2.352 4.61689-2.17778 4.61689 0L39.0258 0 41.552-15.5929 38.8515-15.5929C38.5902-13.8507 37.8933-9.49511 36.848-7.84 36.3253-7.14311 29.7049-7.14311 28.3111-7.14311L12.8053-7.14311 24.5653-17.7707Z" transform="matrix(1 0 0 1.00255 779.765 1058.9)"/></g></g></g><g clip-path="url(#clip4)"><g clip-path="url(#clip5)"><g clip-path="url(#clip6)"><path d="M20.5307-92.1943C20.5307-94.5185 20.5307-96.8427 17.9482-96.8427 15.3657-96.8427 15.3657-94.5185 15.3657-92.1943L15.3657 27.6325C15.3657 29.9567 15.3657 32.2809 17.9482 32.2809 20.5307 32.2809 20.5307 29.9567 20.5307 27.6325L20.5307-92.1943Z" transform="matrix(1.00118 0 0 1 631 781.281)"/><path d="M57.8474-41.3196C57.8474-52.0368 57.2018-62.4958 52.5533-72.3092 47.2593-83.0265 37.9623-85.8672 31.6353-85.8672 24.1461-85.8672 14.9783-82.1226 10.2008-71.4054 6.58531-63.2706 5.29407-55.2649 5.29407-41.3196 5.29407-28.7946 6.19793-19.3685 10.8464-10.2008 15.8822-0.387376 24.7917 2.7116 31.5062 2.7116 42.7399 2.7116 49.1961-4.00283 52.9407-11.492 57.5891-21.1763 57.8474-33.8304 57.8474-41.3196ZM31.5062 0.129122C27.3742 0.129122 18.9812-2.1951 16.5278-16.2696 15.1075-24.017 15.1075-33.8304 15.1075-42.869 15.1075-53.4572 15.1075-63.0123 17.1734-70.6306 19.3685-79.2819 25.9539-83.2847 31.5062-83.2847 36.4129-83.2847 43.902-80.3149 46.3554-69.2103 48.034-61.8502 48.034-51.6495 48.034-42.869 48.034-34.2178 48.034-24.4044 46.6136-16.5278 44.1603-2.32423 36.0255 0.129122 31.5062 0.129122Z" transform="matrix(1.00118 0 0 1 666.91 781.281)"/><path d="M35.2508-30.0858C35.8964-31.6353 35.8964-31.8935 35.8964-32.2809 35.8964-32.6683 35.8964-32.9265 35.2508-34.476L12.6541-93.8729C11.8794-96.068 11.1046-96.8427 9.68428-96.8427 8.26393-96.8427 7.1018-95.6806 7.1018-94.2603 7.1018-93.8729 7.1018-93.6146 7.74742-92.1943L30.6023-32.2809 7.74742 27.3742C7.1018 28.7946 7.1018 29.0528 7.1018 29.6984 7.1018 31.1188 8.26392 32.2809 9.68428 32.2809 11.3629 32.2809 11.8794 30.9897 12.3959 29.6984L35.2508-30.0858Z" transform="matrix(1.00118 0 0 1 730.201 781.281)"/><path d="M27.0299-54.8345C27.0299-57.1587 26.8577-57.2448 24.5335-57.2448 21.0041-53.8015 16.4417-51.7355 8.26392-51.7355L8.26392-48.8948C10.5881-48.8948 15.2366-48.8948 20.2294-51.219L20.2294-7.05876C20.2294-3.87371 19.9711-2.84072 11.7933-2.84072L8.7804-2.84072 8.7804 0C12.3098-0.258244 19.7129-0.258244 23.5866-0.258244 27.4603-0.258244 34.9495-0.258244 38.4788 0L38.4788-2.84072 35.466-2.84072C27.2881-2.84072 27.0299-3.87371 27.0299-7.05876L27.0299-54.8345Z" transform="matrix(1.00118 0 0 1 780.476 800.649)"/></g></g></g><path d="M847.5 748.5 1370 748.5" stroke="#000000" stroke-width="4.58333" stroke-miterlimit="8" fill="none" fill-rule="evenodd"/><path d="M847.5 1007.5 1370 1007.5" stroke="#000000" stroke-width="4.58333" stroke-miterlimit="8" fill="none" fill-rule="evenodd"/><path d="M1225 748 1225 1006.5" stroke="#000000" stroke-width="10.3125" stroke-miterlimit="8" fill="none" fill-rule="evenodd"/><path d="M1206 748C1206 737.507 1214.73 729 1225.5 729 1236.27 729 1245 737.507 1245 748 1245 758.493 1236.27 767 1225.5 767 1214.73 767 1206 758.493 1206 748Z" fill-rule="evenodd"/><path d="M1206 1006.5C1206 995.73 1214.73 987 1225.5 987 1236.27 987 1245 995.73 1245 1006.5 1245 1017.27 1236.27 1026 1225.5 1026 1214.73 1026 1206 1017.27 1206 1006.5Z" fill-rule="evenodd"/><rect x="939.5" y="677.5" width="138" height="137" stroke="#000000" stroke-width="4.58333" stroke-miterlimit="8" fill="#FFFFFF"/><text font-family="Cambria,Cambria_MSFontService,sans-serif" font-style="italic" font-weight="400" font-size="110" transform="matrix(1 0 0 1 971.476 787)">H</text><rect x="939.5" y="935.5" width="138" height="138" stroke="#000000" stroke-width="4.58333" stroke-miterlimit="8" fill="#FFFFFF"/><text font-family="Cambria,Cambria_MSFontService,sans-serif" font-style="italic" font-weight="400" font-size="110" transform="matrix(1 0 0 1 971.476 1045)">H</text></g></svg>