<?xml version="1.0" encoding="UTF-8" standalone="no"?>
<!DOCTYPE svg PUBLIC "-//W3C//DTD SVG 1.1//EN"
 "http://www.w3.org/Graphics/SVG/1.1/DTD/svg11.dtd">
<!-- Generated by graphviz version 3.0.0 (20220226.1711)
 -->
<!-- Title: classes_flamingpy Pages: 1 -->
<svg width="1238pt" height="207pt"
 viewBox="0.00 0.00 1237.50 207.00" xmlns="http://www.w3.org/2000/svg" xmlns:xlink="http://www.w3.org/1999/xlink">
<g id="graph0" class="graph" transform="scale(1 1) rotate(0) translate(4 203)">
<title>classes_flamingpy</title>
<polygon fill="white" stroke="transparent" points="-4,4 -4,-203 1233.5,-203 1233.5,4 -4,4"/>
<!-- flamingpy.decoders.unionfind.uf_classes.Boundary -->
<g id="node1" class="node">
<title>flamingpy.decoders.unionfind.uf_classes.Boundary</title>
<polygon fill="#bde0ff" stroke="#bde0ff" points="0,-0.5 0,-36.5 70,-36.5 70,-0.5 0,-0.5"/>
<text text-anchor="middle" x="35" y="-14.8" font-family="Times,serif" font-size="14.00">Boundary</text>
</g>
<!-- flamingpy.cv.ops.CVLayer -->
<g id="node2" class="node">
<title>flamingpy.cv.ops.CVLayer</title>
<polygon fill="#bde0ff" stroke="#bde0ff" points="88.5,-0.5 88.5,-36.5 155.5,-36.5 155.5,-0.5 88.5,-0.5"/>
<text text-anchor="middle" x="122" y="-14.8" font-family="Times,serif" font-size="14.00">CVLayer</text>
</g>
<!-- flamingpy.codes.graphs.egraph.EGraph -->
<g id="node3" class="node">
<title>flamingpy.codes.graphs.egraph.EGraph</title>
<polygon fill="#bde0ff" stroke="#bde0ff" points="173.5,-0.5 173.5,-36.5 232.5,-36.5 232.5,-0.5 173.5,-0.5"/>
<text text-anchor="middle" x="203" y="-14.8" font-family="Times,serif" font-size="14.00">EGraph</text>
</g>
<!-- flamingpy.codes.surface_code.SurfaceCode -->
<g id="node17" class="node">
<title>flamingpy.codes.surface_code.SurfaceCode</title>
<polygon fill="#bde0ff" stroke="#bde0ff" points="160,-88.5 160,-124.5 246,-124.5 246,-88.5 160,-88.5"/>
<text text-anchor="middle" x="203" y="-102.8" font-family="Times,serif" font-size="14.00">SurfaceCode</text>
</g>
<!-- flamingpy.codes.graphs.egraph.EGraph&#45;&gt;flamingpy.codes.surface_code.SurfaceCode -->
<g id="edge6" class="edge">
<title>flamingpy.codes.graphs.egraph.EGraph&#45;&gt;flamingpy.codes.surface_code.SurfaceCode</title>
<path fill="none" stroke="black" d="M203,-36.9C203,-48.17 203,-63.12 203,-76.18"/>
<polygon fill="black" stroke="black" points="203,-76.42 207,-82.42 203,-88.42 199,-82.42 203,-76.42"/>
<text text-anchor="middle" x="218.5" y="-58.8" font-family="Times,serif" font-size="14.00" fill="black">graph</text>
</g>
<!-- flamingpy.noise.iid.IidNoise -->
<g id="node4" class="node">
<title>flamingpy.noise.iid.IidNoise</title>
<polygon fill="#bde0ff" stroke="#bde0ff" points="250.5,-0.5 250.5,-36.5 313.5,-36.5 313.5,-0.5 250.5,-0.5"/>
<text text-anchor="middle" x="282" y="-14.8" font-family="Times,serif" font-size="14.00">IidNoise</text>
</g>
<!-- flamingpy.decoders.mwpm.matching.LemonMatchingGraph -->
<g id="node5" class="node">
<title>flamingpy.decoders.mwpm.matching.LemonMatchingGraph</title>
<polygon fill="#bde0ff" stroke="#bde0ff" points="332,-0.5 332,-36.5 474,-36.5 474,-0.5 332,-0.5"/>
<text text-anchor="middle" x="403" y="-14.8" font-family="Times,serif" font-size="14.00">LemonMatchingGraph</text>
</g>
<!-- flamingpy.decoders.mwpm.matching.NxMatchingGraph -->
<g id="node8" class="node">
<title>flamingpy.decoders.mwpm.matching.NxMatchingGraph</title>
<polygon fill="#bde0ff" stroke="#bde0ff" points="343.5,-88.5 343.5,-124.5 462.5,-124.5 462.5,-88.5 343.5,-88.5"/>
<text text-anchor="middle" x="403" y="-102.8" font-family="Times,serif" font-size="14.00">NxMatchingGraph</text>
</g>
<!-- flamingpy.decoders.mwpm.matching.LemonMatchingGraph&#45;&gt;flamingpy.decoders.mwpm.matching.NxMatchingGraph -->
<g id="edge3" class="edge">
<title>flamingpy.decoders.mwpm.matching.LemonMatchingGraph&#45;&gt;flamingpy.decoders.mwpm.matching.NxMatchingGraph</title>
<path fill="none" stroke="black" d="M403,-36.9C403,-48.75 403,-64.68 403,-78.21"/>
<polygon fill="none" stroke="black" points="399.5,-78.42 403,-88.42 406.5,-78.42 399.5,-78.42"/>
</g>
<!-- flamingpy.decoders.mwpm.matching.MatchingGraph -->
<g id="node6" class="node">
<title>flamingpy.decoders.mwpm.matching.MatchingGraph</title>
<polygon fill="#bde0ff" stroke="#bde0ff" points="419.5,-162.5 419.5,-198.5 522.5,-198.5 522.5,-162.5 419.5,-162.5"/>
<text text-anchor="middle" x="471" y="-176.8" font-family="Times,serif" font-size="14.00">MatchingGraph</text>
</g>
<!-- flamingpy.decoders.unionfind.uf_classes.Node -->
<g id="node7" class="node">
<title>flamingpy.decoders.unionfind.uf_classes.Node</title>
<polygon fill="#bde0ff" stroke="#bde0ff" points="492,-0.5 492,-36.5 546,-36.5 546,-0.5 492,-0.5"/>
<text text-anchor="middle" x="519" y="-14.8" font-family="Times,serif" font-size="14.00">Node</text>
</g>
<!-- flamingpy.decoders.unionfind.uf_classes.Node&#45;&gt;flamingpy.decoders.unionfind.uf_classes.Node -->
<g id="edge7" class="edge">
<title>flamingpy.decoders.unionfind.uf_classes.Node&#45;&gt;flamingpy.decoders.unionfind.uf_classes.Node</title>
<path fill="none" stroke="black" d="M546.24,-10.26C556.02,-10.08 564,-12.83 564,-18.5 564,-21.51 561.75,-23.7 558.17,-25.06"/>
<polygon fill="black" stroke="black" points="558.12,-25.07 552.74,-29.87 546.24,-26.74 551.62,-21.95 558.12,-25.07"/>
<text text-anchor="middle" x="581" y="-14.8" font-family="Times,serif" font-size="14.00" fill="black">parent</text>
</g>
<!-- flamingpy.decoders.mwpm.matching.NxMatchingGraph&#45;&gt;flamingpy.decoders.mwpm.matching.MatchingGraph -->
<g id="edge4" class="edge">
<title>flamingpy.decoders.mwpm.matching.NxMatchingGraph&#45;&gt;flamingpy.decoders.mwpm.matching.MatchingGraph</title>
<path fill="none" stroke="black" d="M419.12,-124.56C427.63,-133.58 438.23,-144.8 447.63,-154.76"/>
<polygon fill="none" stroke="black" points="445.12,-157.19 454.53,-162.06 450.21,-152.39 445.12,-157.19"/>
</g>
<!-- flamingpy.codes.graphs.stabilizer_graph.NxStabilizerGraph -->
<g id="node9" class="node">
<title>flamingpy.codes.graphs.stabilizer_graph.NxStabilizerGraph</title>
<polygon fill="#bde0ff" stroke="#bde0ff" points="616.5,-0.5 616.5,-36.5 735.5,-36.5 735.5,-0.5 616.5,-0.5"/>
<text text-anchor="middle" x="676" y="-14.8" font-family="Times,serif" font-size="14.00">NxStabilizerGraph</text>
</g>
<!-- flamingpy.codes.graphs.stabilizer_graph.StabilizerGraph -->
<g id="node15" class="node">
<title>flamingpy.codes.graphs.stabilizer_graph.StabilizerGraph</title>
<polygon fill="#bde0ff" stroke="#bde0ff" points="694,-88.5 694,-124.5 796,-124.5 796,-88.5 694,-88.5"/>
<text text-anchor="middle" x="745" y="-102.8" font-family="Times,serif" font-size="14.00">StabilizerGraph</text>
</g>
<!-- flamingpy.codes.graphs.stabilizer_graph.NxStabilizerGraph&#45;&gt;flamingpy.codes.graphs.stabilizer_graph.StabilizerGraph -->
<g id="edge1" class="edge">
<title>flamingpy.codes.graphs.stabilizer_graph.NxStabilizerGraph&#45;&gt;flamingpy.codes.graphs.stabilizer_graph.StabilizerGraph</title>
<path fill="none" stroke="black" d="M689.96,-36.9C700.04,-49.46 713.78,-66.59 725.02,-80.59"/>
<polygon fill="none" stroke="black" points="722.31,-82.81 731.29,-88.42 727.76,-78.43 722.31,-82.81"/>
</g>
<!-- flamingpy.decoders.unionfind.uf_classes.Root -->
<g id="node10" class="node">
<title>flamingpy.decoders.unionfind.uf_classes.Root</title>
<polygon fill="#bde0ff" stroke="#bde0ff" points="890,-0.5 890,-36.5 944,-36.5 944,-0.5 890,-0.5"/>
<text text-anchor="middle" x="917" y="-14.8" font-family="Times,serif" font-size="14.00">Root</text>
</g>
<!-- flamingpy.decoders.mwpm.matching.RxEdgePayload -->
<g id="node11" class="node">
<title>flamingpy.decoders.mwpm.matching.RxEdgePayload</title>
<polygon fill="#bde0ff" stroke="#bde0ff" points="962,-0.5 962,-36.5 1066,-36.5 1066,-0.5 962,-0.5"/>
<text text-anchor="middle" x="1014" y="-14.8" font-family="Times,serif" font-size="14.00">RxEdgePayload</text>
</g>
<!-- flamingpy.decoders.mwpm.matching.RxMatchingGraph -->
<g id="node12" class="node">
<title>flamingpy.decoders.mwpm.matching.RxMatchingGraph</title>
<polygon fill="#bde0ff" stroke="#bde0ff" points="480.5,-88.5 480.5,-124.5 599.5,-124.5 599.5,-88.5 480.5,-88.5"/>
<text text-anchor="middle" x="540" y="-102.8" font-family="Times,serif" font-size="14.00">RxMatchingGraph</text>
</g>
<!-- flamingpy.decoders.mwpm.matching.RxMatchingGraph&#45;&gt;flamingpy.decoders.mwpm.matching.MatchingGraph -->
<g id="edge5" class="edge">
<title>flamingpy.decoders.mwpm.matching.RxMatchingGraph&#45;&gt;flamingpy.decoders.mwpm.matching.MatchingGraph</title>
<path fill="none" stroke="black" d="M523.65,-124.56C515.01,-133.58 504.25,-144.8 494.71,-154.76"/>
<polygon fill="none" stroke="black" points="492.11,-152.42 487.71,-162.06 497.16,-157.26 492.11,-152.42"/>
</g>
<!-- flamingpy.codes.graphs.stabilizer_graph.RxStabilizerGraph -->
<g id="node13" class="node">
<title>flamingpy.codes.graphs.stabilizer_graph.RxStabilizerGraph</title>
<polygon fill="#bde0ff" stroke="#bde0ff" points="754,-0.5 754,-36.5 872,-36.5 872,-0.5 754,-0.5"/>
<text text-anchor="middle" x="813" y="-14.8" font-family="Times,serif" font-size="14.00">RxStabilizerGraph</text>
</g>
<!-- flamingpy.codes.graphs.stabilizer_graph.RxStabilizerGraph&#45;&gt;flamingpy.codes.graphs.stabilizer_graph.StabilizerGraph -->
<g id="edge2" class="edge">
<title>flamingpy.codes.graphs.stabilizer_graph.RxStabilizerGraph&#45;&gt;flamingpy.codes.graphs.stabilizer_graph.StabilizerGraph</title>
<path fill="none" stroke="black" d="M799.24,-36.9C789.4,-49.34 776.02,-66.27 765.01,-80.2"/>
<polygon fill="none" stroke="black" points="761.97,-78.4 758.51,-88.42 767.46,-82.74 761.97,-78.4"/>
</g>
<!-- flamingpy.codes.stabilizer.Stabilizer -->
<g id="node14" class="node">
<title>flamingpy.codes.stabilizer.Stabilizer</title>
<polygon fill="#bde0ff" stroke="#bde0ff" points="1084,-0.5 1084,-36.5 1152,-36.5 1152,-0.5 1084,-0.5"/>
<text text-anchor="middle" x="1118" y="-14.8" font-family="Times,serif" font-size="14.00">Stabilizer</text>
</g>
<!-- flamingpy.decoders.unionfind.uf_classes.Support -->
<g id="node16" class="node">
<title>flamingpy.decoders.unionfind.uf_classes.Support</title>
<polygon fill="#bde0ff" stroke="#bde0ff" points="1170.5,-0.5 1170.5,-36.5 1229.5,-36.5 1229.5,-0.5 1170.5,-0.5"/>
<text text-anchor="middle" x="1200" y="-14.8" font-family="Times,serif" font-size="14.00">Support</text>
</g>
</g>
</svg>
