<?xml version="1.0" encoding="UTF-8" standalone="no"?>
<!DOCTYPE svg PUBLIC "-//W3C//DTD SVG 1.1//EN"
 "http://www.w3.org/Graphics/SVG/1.1/DTD/svg11.dtd">
<!-- Generated by graphviz version 3.0.0 (20220226.1711)
 -->
<!-- Title: classes_flamingpy Pages: 1 -->
<svg width="2482pt" height="981pt"
 viewBox="0.00 0.00 2482.00 981.00" xmlns="http://www.w3.org/2000/svg" xmlns:xlink="http://www.w3.org/1999/xlink">
<g id="graph0" class="graph" transform="scale(1 1) rotate(0) translate(4 977)">
<title>classes_flamingpy</title>
<polygon fill="white" stroke="transparent" points="-4,4 -4,-977 2478,-977 2478,4 -4,4"/>
<!-- flamingpy.decoders.unionfind.uf_classes.Boundary -->
<g id="node1" class="node">
<title>flamingpy.decoders.unionfind.uf_classes.Boundary</title>
<polygon fill="none" stroke="black" points="0,-83 0,-152 191,-152 191,-83 0,-83"/>
<text text-anchor="middle" x="95.5" y="-136.8" font-family="Times,serif" font-size="14.00">Boundary</text>
<polyline fill="none" stroke="black" points="0,-129 191,-129 "/>
<text text-anchor="start" x="8" y="-113.8" font-family="Times,serif" font-size="14.00">nodes : set</text>
<polyline fill="none" stroke="black" points="0,-106 191,-106 "/>
<text text-anchor="start" x="8" y="-90.8" font-family="Times,serif" font-size="14.00">prune(support, stabilizer_graph)</text>
</g>
<!-- flamingpy.cv.ops.CVLayer -->
<g id="node2" class="node">
<title>flamingpy.cv.ops.CVLayer</title>
<polygon fill="none" stroke="black" points="209.5,-8 209.5,-227 531.5,-227 531.5,-8 209.5,-8"/>
<text text-anchor="middle" x="370.5" y="-211.8" font-family="Times,serif" font-size="14.00">CVLayer</text>
<polyline fill="none" stroke="black" points="209.5,-204 531.5,-204 "/>
<text text-anchor="start" x="217.5" y="-188.8" font-family="Times,serif" font-size="14.00">GKP_inds</text>
<text text-anchor="start" x="217.5" y="-173.8" font-family="Times,serif" font-size="14.00">egraph</text>
<text text-anchor="start" x="217.5" y="-158.8" font-family="Times,serif" font-size="14.00">p_inds</text>
<text text-anchor="start" x="217.5" y="-143.8" font-family="Times,serif" font-size="14.00">to_points : NoneType</text>
<polyline fill="none" stroke="black" points="209.5,-136 531.5,-136 "/>
<text text-anchor="start" x="217.5" y="-120.8" font-family="Times,serif" font-size="14.00">SCZ(sparse)</text>
<text text-anchor="start" x="217.5" y="-105.8" font-family="Times,serif" font-size="14.00">apply_noise(model, rng)</text>
<text text-anchor="start" x="217.5" y="-90.8" font-family="Times,serif" font-size="14.00">bit_values(inds)</text>
<text text-anchor="start" x="217.5" y="-75.8" font-family="Times,serif" font-size="14.00">draw()</text>
<text text-anchor="start" x="217.5" y="-60.8" font-family="Times,serif" font-size="14.00">draw_SCZ()</text>
<text text-anchor="start" x="217.5" y="-45.8" font-family="Times,serif" font-size="14.00">grn_model(rng)</text>
<text text-anchor="start" x="217.5" y="-30.8" font-family="Times,serif" font-size="14.00">hom_outcomes(inds, quad)</text>
<text text-anchor="start" x="217.5" y="-15.8" font-family="Times,serif" font-size="14.00">measure_hom(quad, inds, method, updated_quads, rng)</text>
</g>
<!-- flamingpy.codes.graphs.egraph.EGraph -->
<g id="node3" class="node">
<title>flamingpy.codes.graphs.egraph.EGraph</title>
<polygon fill="none" stroke="black" points="549.5,-23 549.5,-212 739.5,-212 739.5,-23 549.5,-23"/>
<text text-anchor="middle" x="644.5" y="-196.8" font-family="Times,serif" font-size="14.00">EGraph</text>
<polyline fill="none" stroke="black" points="549.5,-189 739.5,-189 "/>
<text text-anchor="start" x="557.5" y="-173.8" font-family="Times,serif" font-size="14.00">adj_mat : NoneType, coo_array</text>
<text text-anchor="start" x="557.5" y="-158.8" font-family="Times,serif" font-size="14.00">macro_to_micro</text>
<text text-anchor="start" x="557.5" y="-143.8" font-family="Times,serif" font-size="14.00">to_indices : dict, NoneType</text>
<text text-anchor="start" x="557.5" y="-128.8" font-family="Times,serif" font-size="14.00">to_points : NoneType</text>
<polyline fill="none" stroke="black" points="549.5,-121 739.5,-121 "/>
<text text-anchor="start" x="557.5" y="-105.8" font-family="Times,serif" font-size="14.00">adj_generator(sparse)</text>
<text text-anchor="start" x="557.5" y="-90.8" font-family="Times,serif" font-size="14.00">draw()</text>
<text text-anchor="start" x="557.5" y="-75.8" font-family="Times,serif" font-size="14.00">draw_adj()</text>
<text text-anchor="start" x="557.5" y="-60.8" font-family="Times,serif" font-size="14.00">index_generator()</text>
<text text-anchor="start" x="557.5" y="-45.8" font-family="Times,serif" font-size="14.00">macronize(pad_boundary, disp)</text>
<text text-anchor="start" x="557.5" y="-30.8" font-family="Times,serif" font-size="14.00">slice_coords(plane, number)</text>
</g>
<!-- flamingpy.codes.surface_code.SurfaceCode -->
<g id="node17" class="node">
<title>flamingpy.codes.surface_code.SurfaceCode</title>
<polygon fill="none" stroke="black" points="489,-384 489,-648 800,-648 800,-384 489,-384"/>
<text text-anchor="middle" x="644.5" y="-632.8" font-family="Times,serif" font-size="14.00">SurfaceCode</text>
<polyline fill="none" stroke="black" points="489,-625 800,-625 "/>
<text text-anchor="start" x="497" y="-609.8" font-family="Times,serif" font-size="14.00">bound_str : str</text>
<text text-anchor="start" x="497" y="-594.8" font-family="Times,serif" font-size="14.00">boundaries : ndarray</text>
<text text-anchor="start" x="497" y="-579.8" font-family="Times,serif" font-size="14.00">dims : tuple</text>
<text text-anchor="start" x="497" y="-564.8" font-family="Times,serif" font-size="14.00">distance</text>
<text text-anchor="start" x="497" y="-549.8" font-family="Times,serif" font-size="14.00">ec : list</text>
<text text-anchor="start" x="497" y="-534.8" font-family="Times,serif" font-size="14.00">graph</text>
<text text-anchor="start" x="497" y="-519.8" font-family="Times,serif" font-size="14.00">polarity : NoneType</text>
<polyline fill="none" stroke="black" points="489,-512 800,-512 "/>
<text text-anchor="start" x="497" y="-496.8" font-family="Times,serif" font-size="14.00">draw()</text>
<text text-anchor="start" x="497" y="-481.8" font-family="Times,serif" font-size="14.00">draw_stabilizer_graph(ec)</text>
<text text-anchor="start" x="497" y="-466.8" font-family="Times,serif" font-size="14.00">generate_stabilizer_coords()</text>
<text text-anchor="start" x="497" y="-451.8" font-family="Times,serif" font-size="14.00">identify_boundary()</text>
<text text-anchor="start" x="497" y="-436.8" font-family="Times,serif" font-size="14.00">identify_stabilizers()</text>
<text text-anchor="start" x="497" y="-421.8" font-family="Times,serif" font-size="14.00">periodic_boundary_stabilizers(ec, stabe, actual_stabe)</text>
<text text-anchor="start" x="497" y="-406.8" font-family="Times,serif" font-size="14.00">set_ec_stabilizers_and_syndrome(all_six_bodies)</text>
<text text-anchor="start" x="497" y="-391.8" font-family="Times,serif" font-size="14.00">six_body_dual_stabilizers()</text>
</g>
<!-- flamingpy.codes.graphs.egraph.EGraph&#45;&gt;flamingpy.codes.surface_code.SurfaceCode -->
<g id="edge6" class="edge">
<title>flamingpy.codes.graphs.egraph.EGraph&#45;&gt;flamingpy.codes.surface_code.SurfaceCode</title>
<path fill="none" stroke="black" d="M644.5,-212.21C644.5,-259.69 644.5,-318.37 644.5,-371.4"/>
<polygon fill="black" stroke="black" points="644.5,-371.68 648.5,-377.68 644.5,-383.68 640.5,-377.68 644.5,-371.68"/>
<text text-anchor="middle" x="660" y="-256.8" font-family="Times,serif" font-size="14.00" fill="green">graph</text>
</g>
<!-- flamingpy.noise.iid.IidNoise -->
<g id="node4" class="node">
<title>flamingpy.noise.iid.IidNoise</title>
<polygon fill="none" stroke="black" points="758,-75.5 758,-159.5 867,-159.5 867,-75.5 758,-75.5"/>
<text text-anchor="middle" x="812.5" y="-144.3" font-family="Times,serif" font-size="14.00">IidNoise</text>
<polyline fill="none" stroke="black" points="758,-136.5 867,-136.5 "/>
<text text-anchor="start" x="766" y="-121.3" font-family="Times,serif" font-size="14.00">error_probability</text>
<text text-anchor="start" x="766" y="-106.3" font-family="Times,serif" font-size="14.00">graph</text>
<polyline fill="none" stroke="black" points="758,-98.5 867,-98.5 "/>
<text text-anchor="start" x="766" y="-83.3" font-family="Times,serif" font-size="14.00">apply_noise(rng)</text>
</g>
<!-- flamingpy.decoders.mwpm.matching.LemonMatchingGraph -->
<g id="node5" class="node">
<title>flamingpy.decoders.mwpm.matching.LemonMatchingGraph</title>
<polygon fill="none" stroke="black" points="885.5,-75 885.5,-160 1143.5,-160 1143.5,-75 885.5,-75"/>
<text text-anchor="middle" x="1014.5" y="-144.8" font-family="Times,serif" font-size="14.00">LemonMatchingGraph</text>
<polyline fill="none" stroke="black" points="885.5,-137 1143.5,-137 "/>
<polyline fill="none" stroke="black" points="885.5,-113 1143.5,-113 "/>
<text text-anchor="start" x="893.5" y="-97.8" font-family="Times,serif" font-size="14.00">min_weight_perfect_matching(): List[Edge]</text>
<text text-anchor="start" x="893.5" y="-82.8" font-family="Times,serif" font-size="14.00">to_nx()</text>
</g>
<!-- flamingpy.decoders.mwpm.matching.NxMatchingGraph -->
<g id="node8" class="node">
<title>flamingpy.decoders.mwpm.matching.NxMatchingGraph</title>
<polygon fill="none" stroke="black" points="851.5,-451.5 851.5,-580.5 1177.5,-580.5 1177.5,-451.5 851.5,-451.5"/>
<text text-anchor="middle" x="1014.5" y="-565.3" font-family="Times,serif" font-size="14.00">NxMatchingGraph</text>
<polyline fill="none" stroke="black" points="851.5,-557.5 1177.5,-557.5 "/>
<text text-anchor="start" x="859.5" y="-542.3" font-family="Times,serif" font-size="14.00">Weight : _SpecialForm</text>
<text text-anchor="start" x="859.5" y="-527.3" font-family="Times,serif" font-size="14.00">graph : Graph</text>
<polyline fill="none" stroke="black" points="851.5,-519.5 1177.5,-519.5 "/>
<text text-anchor="start" x="859.5" y="-504.3" font-family="Times,serif" font-size="14.00">add_edge(edge: Edge, weight: Weight, path: List[Node])</text>
<text text-anchor="start" x="859.5" y="-489.3" font-family="Times,serif" font-size="14.00">edge_path(edge: Edge)</text>
<text text-anchor="start" x="859.5" y="-474.3" font-family="Times,serif" font-size="14.00">edge_weight(edge: Edge)</text>
<text text-anchor="start" x="859.5" y="-459.3" font-family="Times,serif" font-size="14.00">min_weight_perfect_matching(): List[Edge]</text>
</g>
<!-- flamingpy.decoders.mwpm.matching.LemonMatchingGraph&#45;&gt;flamingpy.decoders.mwpm.matching.NxMatchingGraph -->
<g id="edge3" class="edge">
<title>flamingpy.decoders.mwpm.matching.LemonMatchingGraph&#45;&gt;flamingpy.decoders.mwpm.matching.NxMatchingGraph</title>
<path fill="none" stroke="black" d="M1014.5,-160.18C1014.5,-226.89 1014.5,-358.53 1014.5,-441.36"/>
<polygon fill="none" stroke="black" points="1011,-441.46 1014.5,-451.46 1018,-441.46 1011,-441.46"/>
</g>
<!-- flamingpy.decoders.mwpm.matching.MatchingGraph -->
<g id="node6" class="node">
<title>flamingpy.decoders.mwpm.matching.MatchingGraph</title>
<polygon fill="none" stroke="black" points="1023.5,-783.5 1023.5,-972.5 1349.5,-972.5 1349.5,-783.5 1023.5,-783.5"/>
<text text-anchor="middle" x="1186.5" y="-957.3" font-family="Times,serif" font-size="14.00">MatchingGraph</text>
<polyline fill="none" stroke="black" points="1023.5,-949.5 1349.5,-949.5 "/>
<text text-anchor="start" x="1031.5" y="-934.3" font-family="Times,serif" font-size="14.00">Weight : Weight</text>
<text text-anchor="start" x="1031.5" y="-919.3" font-family="Times,serif" font-size="14.00">ec</text>
<text text-anchor="start" x="1031.5" y="-904.3" font-family="Times,serif" font-size="14.00">virtual_points : list</text>
<polyline fill="none" stroke="black" points="1023.5,-896.5 1349.5,-896.5 "/>
<text text-anchor="start" x="1031.5" y="-881.3" font-family="Times,serif" font-size="14.00">add_edge(edge: Edge, weight: Weight, path: List[Node])</text>
<text text-anchor="start" x="1031.5" y="-866.3" font-family="Times,serif" font-size="14.00">draw()</text>
<text text-anchor="start" x="1031.5" y="-851.3" font-family="Times,serif" font-size="14.00">edge_path(edge: Edge): List[Node]</text>
<text text-anchor="start" x="1031.5" y="-836.3" font-family="Times,serif" font-size="14.00">edge_weight(edge: Edge): Weight</text>
<text text-anchor="start" x="1031.5" y="-821.3" font-family="Times,serif" font-size="14.00">min_weight_perfect_matching(): List[Edge]</text>
<text text-anchor="start" x="1031.5" y="-806.3" font-family="Times,serif" font-size="14.00">total_weight_of(matching: Iterable[Edge]): Weight</text>
<text text-anchor="start" x="1031.5" y="-791.3" font-family="Times,serif" font-size="14.00">with_edges_from(code, ec)</text>
</g>
<!-- flamingpy.decoders.unionfind.uf_classes.Node -->
<g id="node7" class="node">
<title>flamingpy.decoders.unionfind.uf_classes.Node</title>
<polygon fill="none" stroke="black" points="1162,-45.5 1162,-189.5 1267,-189.5 1267,-45.5 1162,-45.5"/>
<text text-anchor="middle" x="1214.5" y="-174.3" font-family="Times,serif" font-size="14.00">Node</text>
<polyline fill="none" stroke="black" points="1162,-166.5 1267,-166.5 "/>
<text text-anchor="start" x="1170" y="-151.3" font-family="Times,serif" font-size="14.00">children : set</text>
<text text-anchor="start" x="1170" y="-136.3" font-family="Times,serif" font-size="14.00">id : NoneType</text>
<text text-anchor="start" x="1170" y="-121.3" font-family="Times,serif" font-size="14.00">parent</text>
<text text-anchor="start" x="1170" y="-106.3" font-family="Times,serif" font-size="14.00">size</text>
<polyline fill="none" stroke="black" points="1162,-98.5 1267,-98.5 "/>
<text text-anchor="start" x="1170" y="-83.3" font-family="Times,serif" font-size="14.00">add_child(node)</text>
<text text-anchor="start" x="1170" y="-68.3" font-family="Times,serif" font-size="14.00">find_root()</text>
<text text-anchor="start" x="1170" y="-53.3" font-family="Times,serif" font-size="14.00">parity()</text>
</g>
<!-- flamingpy.decoders.unionfind.uf_classes.Node&#45;&gt;flamingpy.decoders.unionfind.uf_classes.Node -->
<g id="edge7" class="edge">
<title>flamingpy.decoders.unionfind.uf_classes.Node&#45;&gt;flamingpy.decoders.unionfind.uf_classes.Node</title>
<path fill="none" stroke="black" d="M1267.08,-91.97C1277.54,-94.85 1285,-103.36 1285,-117.5 1285,-126.12 1282.23,-132.65 1277.7,-137.08"/>
<polygon fill="black" stroke="black" points="1277.55,-137.16 1274.26,-143.59 1267.08,-143.03 1270.36,-136.61 1277.55,-137.16"/>
<text text-anchor="middle" x="1302" y="-113.8" font-family="Times,serif" font-size="14.00" fill="green">parent</text>
</g>
<!-- flamingpy.decoders.mwpm.matching.NxMatchingGraph&#45;&gt;flamingpy.decoders.mwpm.matching.MatchingGraph -->
<g id="edge4" class="edge">
<title>flamingpy.decoders.mwpm.matching.NxMatchingGraph&#45;&gt;flamingpy.decoders.mwpm.matching.MatchingGraph</title>
<path fill="none" stroke="black" d="M1044.85,-580.53C1070.45,-634.11 1107.58,-711.82 1137.4,-774.24"/>
<polygon fill="none" stroke="black" points="1134.28,-775.82 1141.75,-783.33 1140.6,-772.8 1134.28,-775.82"/>
</g>
<!-- flamingpy.codes.graphs.stabilizer_graph.NxStabilizerGraph -->
<g id="node9" class="node">
<title>flamingpy.codes.graphs.stabilizer_graph.NxStabilizerGraph</title>
<polygon fill="none" stroke="black" points="1337.5,-15.5 1337.5,-219.5 1585.5,-219.5 1585.5,-15.5 1337.5,-15.5"/>
<text text-anchor="middle" x="1461.5" y="-204.3" font-family="Times,serif" font-size="14.00">NxStabilizerGraph</text>
<polyline fill="none" stroke="black" points="1337.5,-196.5 1585.5,-196.5 "/>
<text text-anchor="start" x="1345.5" y="-181.3" font-family="Times,serif" font-size="14.00">graph : Graph</text>
<polyline fill="none" stroke="black" points="1337.5,-173.5 1585.5,-173.5 "/>
<text text-anchor="start" x="1345.5" y="-158.3" font-family="Times,serif" font-size="14.00">add_edge(node1, node2, common_vertex)</text>
<text text-anchor="start" x="1345.5" y="-143.3" font-family="Times,serif" font-size="14.00">add_node(node)</text>
<text text-anchor="start" x="1345.5" y="-128.3" font-family="Times,serif" font-size="14.00">edge_data(node1, node2)</text>
<text text-anchor="start" x="1345.5" y="-113.3" font-family="Times,serif" font-size="14.00">edges()</text>
<text text-anchor="start" x="1345.5" y="-98.3" font-family="Times,serif" font-size="14.00">neighbors(node)</text>
<text text-anchor="start" x="1345.5" y="-83.3" font-family="Times,serif" font-size="14.00">nodes()</text>
<text text-anchor="start" x="1345.5" y="-68.3" font-family="Times,serif" font-size="14.00">out_edges(node)</text>
<text text-anchor="start" x="1345.5" y="-53.3" font-family="Times,serif" font-size="14.00">shortest_paths_from_high()</text>
<text text-anchor="start" x="1345.5" y="-38.3" font-family="Times,serif" font-size="14.00">shortest_paths_from_low()</text>
<text text-anchor="start" x="1345.5" y="-23.3" font-family="Times,serif" font-size="14.00">shortest_paths_without_high_low(source)</text>
</g>
<!-- flamingpy.codes.graphs.stabilizer_graph.StabilizerGraph -->
<g id="node15" class="node">
<title>flamingpy.codes.graphs.stabilizer_graph.StabilizerGraph</title>
<polygon fill="none" stroke="black" points="1571.5,-286.5 1571.5,-745.5 1819.5,-745.5 1819.5,-286.5 1571.5,-286.5"/>
<text text-anchor="middle" x="1695.5" y="-730.3" font-family="Times,serif" font-size="14.00">StabilizerGraph</text>
<polyline fill="none" stroke="black" points="1571.5,-722.5 1819.5,-722.5 "/>
<text text-anchor="start" x="1579.5" y="-707.3" font-family="Times,serif" font-size="14.00">high_bound_points : list</text>
<text text-anchor="start" x="1579.5" y="-692.3" font-family="Times,serif" font-size="14.00">low_bound_points : list</text>
<text text-anchor="start" x="1579.5" y="-677.3" font-family="Times,serif" font-size="14.00">stabilizers : list</text>
<polyline fill="none" stroke="black" points="1571.5,-669.5 1819.5,-669.5 "/>
<text text-anchor="start" x="1579.5" y="-654.3" font-family="Times,serif" font-size="14.00">add_edge(node1, node2, common_vertex)</text>
<text text-anchor="start" x="1579.5" y="-639.3" font-family="Times,serif" font-size="14.00">add_high_bound_point(point)</text>
<text text-anchor="start" x="1579.5" y="-624.3" font-family="Times,serif" font-size="14.00">add_high_bound_points(points)</text>
<text text-anchor="start" x="1579.5" y="-609.3" font-family="Times,serif" font-size="14.00">add_low_bound_point(point)</text>
<text text-anchor="start" x="1579.5" y="-594.3" font-family="Times,serif" font-size="14.00">add_low_bound_points(points)</text>
<text text-anchor="start" x="1579.5" y="-579.3" font-family="Times,serif" font-size="14.00">add_node(node)</text>
<text text-anchor="start" x="1579.5" y="-564.3" font-family="Times,serif" font-size="14.00">add_stabilizer(stabilizer)</text>
<text text-anchor="start" x="1579.5" y="-549.3" font-family="Times,serif" font-size="14.00">add_stabilizers(stabilizers)</text>
<text text-anchor="start" x="1579.5" y="-534.3" font-family="Times,serif" font-size="14.00">assign_weights(code)</text>
<text text-anchor="start" x="1579.5" y="-519.3" font-family="Times,serif" font-size="14.00">bound_points()</text>
<text text-anchor="start" x="1579.5" y="-504.3" font-family="Times,serif" font-size="14.00">connect_nodes()</text>
<text text-anchor="start" x="1579.5" y="-489.3" font-family="Times,serif" font-size="14.00">draw()</text>
<text text-anchor="start" x="1579.5" y="-474.3" font-family="Times,serif" font-size="14.00">edge_data(node1, node2)</text>
<text text-anchor="start" x="1579.5" y="-459.3" font-family="Times,serif" font-size="14.00">edges()</text>
<text text-anchor="start" x="1579.5" y="-444.3" font-family="Times,serif" font-size="14.00">has_bound_points()</text>
<text text-anchor="start" x="1579.5" y="-429.3" font-family="Times,serif" font-size="14.00">neighbors(node)</text>
<text text-anchor="start" x="1579.5" y="-414.3" font-family="Times,serif" font-size="14.00">nodes()</text>
<text text-anchor="start" x="1579.5" y="-399.3" font-family="Times,serif" font-size="14.00">odd_parity_stabilizers()</text>
<text text-anchor="start" x="1579.5" y="-384.3" font-family="Times,serif" font-size="14.00">out_edges(node)</text>
<text text-anchor="start" x="1579.5" y="-369.3" font-family="Times,serif" font-size="14.00">real_edges()</text>
<text text-anchor="start" x="1579.5" y="-354.3" font-family="Times,serif" font-size="14.00">real_nodes()</text>
<text text-anchor="start" x="1579.5" y="-339.3" font-family="Times,serif" font-size="14.00">shortest_paths_from_high()</text>
<text text-anchor="start" x="1579.5" y="-324.3" font-family="Times,serif" font-size="14.00">shortest_paths_from_low()</text>
<text text-anchor="start" x="1579.5" y="-309.3" font-family="Times,serif" font-size="14.00">shortest_paths_without_high_low(source)</text>
<text text-anchor="start" x="1579.5" y="-294.3" font-family="Times,serif" font-size="14.00">to_nx()</text>
</g>
<!-- flamingpy.codes.graphs.stabilizer_graph.NxStabilizerGraph&#45;&gt;flamingpy.codes.graphs.stabilizer_graph.StabilizerGraph -->
<g id="edge1" class="edge">
<title>flamingpy.codes.graphs.stabilizer_graph.NxStabilizerGraph&#45;&gt;flamingpy.codes.graphs.stabilizer_graph.StabilizerGraph</title>
<path fill="none" stroke="black" d="M1521.15,-219.58C1535.14,-243.28 1550.59,-269.45 1566.33,-296.12"/>
<polygon fill="none" stroke="black" points="1563.35,-297.97 1571.45,-304.8 1569.38,-294.41 1563.35,-297.97"/>
</g>
<!-- flamingpy.decoders.unionfind.uf_classes.Root -->
<g id="node10" class="node">
<title>flamingpy.decoders.unionfind.uf_classes.Root</title>
<polygon fill="none" stroke="black" points="1870,-53 1870,-182 2005,-182 2005,-53 1870,-53"/>
<text text-anchor="middle" x="1937.5" y="-166.8" font-family="Times,serif" font-size="14.00">Root</text>
<polyline fill="none" stroke="black" points="1870,-159 2005,-159 "/>
<text text-anchor="start" x="1878" y="-143.8" font-family="Times,serif" font-size="14.00">boundary : NoneType</text>
<text text-anchor="start" x="1878" y="-128.8" font-family="Times,serif" font-size="14.00">children</text>
<text text-anchor="start" x="1878" y="-113.8" font-family="Times,serif" font-size="14.00">node</text>
<text text-anchor="start" x="1878" y="-98.8" font-family="Times,serif" font-size="14.00">parity : int</text>
<text text-anchor="start" x="1878" y="-83.8" font-family="Times,serif" font-size="14.00">size : int</text>
<polyline fill="none" stroke="black" points="1870,-76 2005,-76 "/>
<text text-anchor="start" x="1878" y="-60.8" font-family="Times,serif" font-size="14.00">add_child(node)</text>
</g>
<!-- flamingpy.decoders.mwpm.matching.RxEdgePayload -->
<g id="node11" class="node">
<title>flamingpy.decoders.mwpm.matching.RxEdgePayload</title>
<polygon fill="none" stroke="black" points="2023.5,-75.5 2023.5,-159.5 2133.5,-159.5 2133.5,-75.5 2023.5,-75.5"/>
<text text-anchor="middle" x="2078.5" y="-144.3" font-family="Times,serif" font-size="14.00">RxEdgePayload</text>
<polyline fill="none" stroke="black" points="2023.5,-136.5 2133.5,-136.5 "/>
<text text-anchor="start" x="2031.5" y="-121.3" font-family="Times,serif" font-size="14.00">path : List[Node]</text>
<text text-anchor="start" x="2031.5" y="-106.3" font-family="Times,serif" font-size="14.00">weight : int</text>
<polyline fill="none" stroke="black" points="2023.5,-98.5 2133.5,-98.5 "/>
<text text-anchor="middle" x="2078.5" y="-83.3" font-family="Times,serif" font-size="14.00"> </text>
</g>
<!-- flamingpy.decoders.mwpm.matching.RxMatchingGraph -->
<g id="node12" class="node">
<title>flamingpy.decoders.mwpm.matching.RxMatchingGraph</title>
<polygon fill="none" stroke="black" points="1195.5,-421.5 1195.5,-610.5 1521.5,-610.5 1521.5,-421.5 1195.5,-421.5"/>
<text text-anchor="middle" x="1358.5" y="-595.3" font-family="Times,serif" font-size="14.00">RxMatchingGraph</text>
<polyline fill="none" stroke="black" points="1195.5,-587.5 1521.5,-587.5 "/>
<text text-anchor="start" x="1203.5" y="-572.3" font-family="Times,serif" font-size="14.00">Weight : int</text>
<text text-anchor="start" x="1203.5" y="-557.3" font-family="Times,serif" font-size="14.00">graph</text>
<text text-anchor="start" x="1203.5" y="-542.3" font-family="Times,serif" font-size="14.00">index_to_node : dict</text>
<text text-anchor="start" x="1203.5" y="-527.3" font-family="Times,serif" font-size="14.00">node_to_index : dict</text>
<polyline fill="none" stroke="black" points="1195.5,-519.5 1521.5,-519.5 "/>
<text text-anchor="start" x="1203.5" y="-504.3" font-family="Times,serif" font-size="14.00">add_edge(edge: Edge, weight: Weight, path: List[Node])</text>
<text text-anchor="start" x="1203.5" y="-489.3" font-family="Times,serif" font-size="14.00">edge_path(edge: Edge)</text>
<text text-anchor="start" x="1203.5" y="-474.3" font-family="Times,serif" font-size="14.00">edge_weight(edge: Edge)</text>
<text text-anchor="start" x="1203.5" y="-459.3" font-family="Times,serif" font-size="14.00">min_weight_perfect_matching(): List[Edge]</text>
<text text-anchor="start" x="1203.5" y="-444.3" font-family="Times,serif" font-size="14.00">node_index(node)</text>
<text text-anchor="start" x="1203.5" y="-429.3" font-family="Times,serif" font-size="14.00">to_nx()</text>
</g>
<!-- flamingpy.decoders.mwpm.matching.RxMatchingGraph&#45;&gt;flamingpy.decoders.mwpm.matching.MatchingGraph -->
<g id="edge5" class="edge">
<title>flamingpy.decoders.mwpm.matching.RxMatchingGraph&#45;&gt;flamingpy.decoders.mwpm.matching.MatchingGraph</title>
<path fill="none" stroke="black" d="M1313.76,-610.65C1289.81,-660.76 1260.28,-722.58 1235.69,-774.05"/>
<polygon fill="none" stroke="black" points="1232.47,-772.67 1231.32,-783.2 1238.79,-775.68 1232.47,-772.67"/>
</g>
<!-- flamingpy.codes.graphs.stabilizer_graph.RxStabilizerGraph -->
<g id="node13" class="node">
<title>flamingpy.codes.graphs.stabilizer_graph.RxStabilizerGraph</title>
<polygon fill="none" stroke="black" points="1603.5,-0.5 1603.5,-234.5 1851.5,-234.5 1851.5,-0.5 1603.5,-0.5"/>
<text text-anchor="middle" x="1727.5" y="-219.3" font-family="Times,serif" font-size="14.00">RxStabilizerGraph</text>
<polyline fill="none" stroke="black" points="1603.5,-211.5 1851.5,-211.5 "/>
<text text-anchor="start" x="1611.5" y="-196.3" font-family="Times,serif" font-size="14.00">graph</text>
<text text-anchor="start" x="1611.5" y="-181.3" font-family="Times,serif" font-size="14.00">index_to_node : dict</text>
<text text-anchor="start" x="1611.5" y="-166.3" font-family="Times,serif" font-size="14.00">node_to_index : dict</text>
<polyline fill="none" stroke="black" points="1603.5,-158.5 1851.5,-158.5 "/>
<text text-anchor="start" x="1611.5" y="-143.3" font-family="Times,serif" font-size="14.00">add_edge(node1, node2, common_vertex)</text>
<text text-anchor="start" x="1611.5" y="-128.3" font-family="Times,serif" font-size="14.00">add_node(node)</text>
<text text-anchor="start" x="1611.5" y="-113.3" font-family="Times,serif" font-size="14.00">edge_data(node1, node2)</text>
<text text-anchor="start" x="1611.5" y="-98.3" font-family="Times,serif" font-size="14.00">edges()</text>
<text text-anchor="start" x="1611.5" y="-83.3" font-family="Times,serif" font-size="14.00">neighbors(node)</text>
<text text-anchor="start" x="1611.5" y="-68.3" font-family="Times,serif" font-size="14.00">nodes()</text>
<text text-anchor="start" x="1611.5" y="-53.3" font-family="Times,serif" font-size="14.00">out_edges(node)</text>
<text text-anchor="start" x="1611.5" y="-38.3" font-family="Times,serif" font-size="14.00">shortest_paths_from_high()</text>
<text text-anchor="start" x="1611.5" y="-23.3" font-family="Times,serif" font-size="14.00">shortest_paths_from_low()</text>
<text text-anchor="start" x="1611.5" y="-8.3" font-family="Times,serif" font-size="14.00">shortest_paths_without_high_low(source)</text>
</g>
<!-- flamingpy.codes.graphs.stabilizer_graph.RxStabilizerGraph&#45;&gt;flamingpy.codes.graphs.stabilizer_graph.StabilizerGraph -->
<g id="edge2" class="edge">
<title>flamingpy.codes.graphs.stabilizer_graph.RxStabilizerGraph&#45;&gt;flamingpy.codes.graphs.stabilizer_graph.StabilizerGraph</title>
<path fill="none" stroke="black" d="M1718.14,-234.52C1717.05,-247.98 1715.91,-262.06 1714.75,-276.43"/>
<polygon fill="none" stroke="black" points="1711.26,-276.17 1713.95,-286.42 1718.24,-276.74 1711.26,-276.17"/>
</g>
<!-- flamingpy.codes.stabilizer.Stabilizer -->
<g id="node14" class="node">
<title>flamingpy.codes.stabilizer.Stabilizer</title>
<polygon fill="none" stroke="black" points="2152,-38 2152,-197 2281,-197 2281,-38 2152,-38"/>
<text text-anchor="middle" x="2216.5" y="-181.8" font-family="Times,serif" font-size="14.00">Stabilizer</text>
<polyline fill="none" stroke="black" points="2152,-174 2281,-174 "/>
<text text-anchor="start" x="2160" y="-158.8" font-family="Times,serif" font-size="14.00">egraph</text>
<text text-anchor="start" x="2160" y="-143.8" font-family="Times,serif" font-size="14.00">parity</text>
<text text-anchor="start" x="2160" y="-128.8" font-family="Times,serif" font-size="14.00">physical : NoneType</text>
<polyline fill="none" stroke="black" points="2152,-121 2281,-121 "/>
<text text-anchor="start" x="2160" y="-105.8" font-family="Times,serif" font-size="14.00">coords()</text>
<text text-anchor="start" x="2160" y="-90.8" font-family="Times,serif" font-size="14.00">midpoint()</text>
<text text-anchor="start" x="2160" y="-75.8" font-family="Times,serif" font-size="14.00">xlims()</text>
<text text-anchor="start" x="2160" y="-60.8" font-family="Times,serif" font-size="14.00">ylims()</text>
<text text-anchor="start" x="2160" y="-45.8" font-family="Times,serif" font-size="14.00">zlims()</text>
</g>
<!-- flamingpy.decoders.unionfind.uf_classes.Support -->
<g id="node16" class="node">
<title>flamingpy.decoders.unionfind.uf_classes.Support</title>
<polygon fill="none" stroke="black" points="2299,-75.5 2299,-159.5 2474,-159.5 2474,-75.5 2299,-75.5"/>
<text text-anchor="middle" x="2386.5" y="-144.3" font-family="Times,serif" font-size="14.00">Support</text>
<polyline fill="none" stroke="black" points="2299,-136.5 2474,-136.5 "/>
<text text-anchor="start" x="2307" y="-121.3" font-family="Times,serif" font-size="14.00">status : dict</text>
<polyline fill="none" stroke="black" points="2299,-113.5 2474,-113.5 "/>
<text text-anchor="start" x="2307" y="-98.3" font-family="Times,serif" font-size="14.00">grow(edge)</text>
<text text-anchor="start" x="2307" y="-83.3" font-family="Times,serif" font-size="14.00">span_forest(stabilizer_graph)</text>
</g>
</g>
</svg>
