<svg width="869" height="737" xmlns="http://www.w3.org/2000/svg" xmlns:xlink="http://www.w3.org/1999/xlink" xml:space="preserve" overflow="hidden"><defs><clipPath id="clip0"><rect x="1611" y="646" width="869" height="737"/></clipPath><clipPath id="clip1"><rect x="1611" y="679" width="197" height="138"/></clipPath><clipPath id="clip2"><rect x="1611" y="679" width="197" height="138"/></clipPath><clipPath id="clip3"><rect x="1611" y="679" width="197" height="138"/></clipPath><clipPath id="clip4"><rect x="1612" y="1199" width="198" height="131"/></clipPath><clipPath id="clip5"><rect x="1612" y="1199" width="198" height="131"/></clipPath><clipPath id="clip6"><rect x="1612" y="1199" width="198" height="131"/></clipPath><clipPath id="clip7"><rect x="1612" y="940" width="198" height="132"/></clipPath><clipPath id="clip8"><rect x="1612" y="940" width="198" height="132"/></clipPath><clipPath id="clip9"><rect x="1612" y="940" width="198" height="132"/></clipPath></defs><g clip-path="url(#clip0)" transform="translate(-1611 -646)"><g clip-path="url(#clip1)"><g clip-path="url(#clip2)"><g clip-path="url(#clip3)"><path d="M21.4296-96.2312C21.4296-98.6572 21.4296-101.083 18.7341-101.083 16.0385-101.083 16.0385-98.6572 16.0385-96.2312L16.0385 28.8424C16.0385 31.2684 16.0385 33.6944 18.7341 33.6944 21.4296 33.6944 21.4296 31.2684 21.4296 28.8424L21.4296-96.2312Z" transform="matrix(1 0 0 1.00227 1611 781.771)"/><path d="M60.3804-43.1288C60.3804-54.3154 59.7065-65.2324 54.8545-75.4754 49.3286-86.662 39.6246-89.6271 33.0205-89.6271 25.2034-89.6271 15.6342-85.7186 10.6474-74.532 6.87366-66.041 5.52588-57.6848 5.52588-43.1288 5.52588-30.0554 6.46932-20.2166 11.3213-10.6474 16.5776-0.404338 25.8773 2.83033 32.8857 2.83033 44.6114 2.83033 51.3503-4.1781 55.2588-11.9952 60.1108-22.1035 60.3804-35.3117 60.3804-43.1288ZM32.8857 0.134776C28.5729 0.134776 19.8123-2.29122 17.2515-16.982 15.769-25.0686 15.769-35.3117 15.769-44.7462 15.769-55.7979 15.769-65.7715 17.9254-73.7233 20.2166-82.7534 27.0903-86.9315 32.8857-86.9315 38.0073-86.9315 45.8244-83.8317 48.3852-72.2408 50.1373-64.5585 50.1373-53.911 50.1373-44.7462 50.1373-35.7161 50.1373-25.473 48.6547-17.2515 46.0939-2.426 37.603 0.134776 32.8857 0.134776Z" transform="matrix(1 0 0 1.00227 1648.44 781.771)"/><path d="M36.7943-31.4032C37.4682-33.0205 37.4682-33.2901 37.4682-33.6944 37.4682-34.0987 37.4682-34.3683 36.7943-35.9856L13.2082-97.9833C12.3995-100.275 11.5909-101.083 10.1083-101.083 8.62578-101.083 7.41277-99.8702 7.41277-98.3876 7.41277-97.9833 7.41277-97.7138 8.08665-96.2312L31.9423-33.6944 8.08665 28.5729C7.41277 30.0554 7.41277 30.325 7.41277 30.9989 7.41277 32.4814 8.62577 33.6944 10.1083 33.6944 11.8604 33.6944 12.3995 32.3466 12.9386 30.9989L36.7943-31.4032Z" transform="matrix(1 0 0 1.00227 1714.42 781.771)"/><path d="M28.2134-57.2355C28.2134-59.6615 28.0337-59.7514 25.6077-59.7514 21.9238-56.1573 17.1617-54.0009 8.62577-54.0009L8.62577-51.0358C11.0518-51.0358 15.9038-51.0358 21.1152-53.4618L21.1152-7.36784C21.1152-4.04333 20.8456-2.96511 12.3097-2.96511L9.16487-2.96511 9.16487 0C12.8488-0.269551 20.576-0.269551 24.6194-0.269551 28.6627-0.269551 36.4798-0.269551 40.1637 0L40.1637-2.96511 37.0189-2.96511C28.483-2.96511 28.2134-4.04333 28.2134-7.36784L28.2134-57.2355Z" transform="matrix(1 0 0 1.00227 1766.84 802.033)"/></g></g></g><g clip-path="url(#clip4)"><g clip-path="url(#clip5)"><g clip-path="url(#clip6)"><path d="M20.776-93.2961C20.776-95.6481 20.776-98.0002 18.1627-98.0002 15.5493-98.0002 15.5494-95.6481 15.5494-93.2961L15.5494 27.9627C15.5494 30.3147 15.5494 32.6667 18.1627 32.6667 20.776 32.6667 20.776 30.3147 20.776 27.9627L20.776-93.2961Z" transform="matrix(1 0 0 1.00255 1614.29 1297.25)"/><path d="M58.5388-41.8134C58.5388-52.6588 57.8854-63.2428 53.1814-73.1734 47.8241-84.0188 38.4161-86.8935 32.0134-86.8935 24.4347-86.8935 15.1574-83.1041 10.3227-72.2588 6.66401-64.0268 5.35734-55.9254 5.35734-41.8134 5.35734-29.1387 6.27201-19.6 10.976-10.3227 16.072-0.392006 25.088 2.74401 31.8827 2.74401 43.2507 2.74401 49.7841-4.05067 53.5734-11.6294 58.2774-21.4294 58.5388-34.2347 58.5388-41.8134ZM31.8827 0.130665C27.7014 0.130665 19.208-2.22134 16.7254-16.464 15.288-24.304 15.288-34.2347 15.288-43.3814 15.288-54.0961 15.288-63.7654 17.3787-71.4748 19.6-80.2295 26.264-84.2801 31.8827-84.2801 36.8481-84.2801 44.4267-81.2748 46.9094-70.0374 48.6081-62.5894 48.6081-52.2667 48.6081-43.3814 48.6081-34.6267 48.6081-24.696 47.1707-16.7254 44.6881-2.352 36.4561 0.130665 31.8827 0.130665Z" transform="matrix(1 0 0 1.00255 1650.59 1297.25)"/><path d="M35.6721-30.4454C36.3254-32.0134 36.3254-32.2747 36.3254-32.6667 36.3254-33.0587 36.3254-33.3201 35.6721-34.8881L12.8053-94.9948C12.0213-97.2161 11.2373-98.0002 9.80002-98.0002 8.36269-98.0002 7.18668-96.8242 7.18668-95.3868 7.18668-94.9948 7.18668-94.7335 7.84001-93.2961L30.968-32.6667 7.84001 27.7014C7.18668 29.1387 7.18668 29.4 7.18668 30.0534 7.18668 31.4907 8.36268 32.6667 9.80002 32.6667 11.4987 32.6667 12.0213 31.36 12.544 30.0534L35.6721-30.4454Z" transform="matrix(1 0 0 1.00255 1714.56 1297.25)"/><path d="M22.0391-29.0952C28.9209-29.0952 33.2765-24.0427 33.2765-14.896 33.2765-4.00712 27.0916-0.784001 22.4747-0.784001 17.6836-0.784001 11.1502-2.52622 8.10134-7.14312 11.2373-7.14312 13.4151-9.14668 13.4151-12.0213 13.4151-14.8089 11.4116-16.8125 8.62401-16.8125 6.27201-16.8125 3.8329-15.3316 3.8329-11.8471 3.8329-3.57157 12.7182 1.82933 22.6489 1.82933 34.2347 1.82933 42.3361-6.1849 42.3361-14.896 42.3361-22.1263 36.5867-28.7467 27.7014-30.6632 34.5832-33.1023 39.7227-39.0258 39.7227-45.9947 39.7227-52.9636 31.8827-57.929 22.8231-57.929 13.5022-57.929 6.44623-52.8765 6.44623-46.2561 6.44623-43.033 8.62401-41.6392 10.8889-41.6392 13.5893-41.6392 15.3316-43.5556 15.3316-46.0818 15.3316-49.305 12.544-50.5245 10.6276-50.6116 14.2862-55.4028 20.9938-55.6641 22.5618-55.6641 24.8267-55.6641 31.4472-54.9672 31.4472-45.9947 31.4472-39.8969 28.9209-36.2383 27.7014-34.8445 25.088-32.144 23.0845-31.9698 17.7707-31.6214 16.1156-31.5343 15.4187-31.4472 15.4187-30.3147 15.4187-29.0952 16.2027-29.0952 17.6836-29.0952L22.0391-29.0952Z" transform="matrix(1 0 0 1.00255 1765.37 1316.9)"/></g></g></g><g clip-path="url(#clip7)"><g clip-path="url(#clip8)"><g clip-path="url(#clip9)"><path d="M20.776-93.2961C20.776-95.6481 20.776-98.0002 18.1627-98.0002 15.5493-98.0002 15.5494-95.6481 15.5494-93.2961L15.5494 27.9627C15.5494 30.3147 15.5494 32.6667 18.1627 32.6667 20.776 32.6667 20.776 30.3147 20.776 27.9627L20.776-93.2961Z" transform="matrix(1 0 0 1.00255 1614.68 1038.25)"/><path d="M58.5388-41.8134C58.5388-52.6588 57.8854-63.2428 53.1814-73.1734 47.8241-84.0188 38.4161-86.8935 32.0134-86.8935 24.4347-86.8935 15.1574-83.1041 10.3227-72.2588 6.66401-64.0268 5.35734-55.9254 5.35734-41.8134 5.35734-29.1387 6.27201-19.6 10.976-10.3227 16.072-0.392006 25.088 2.74401 31.8827 2.74401 43.2507 2.74401 49.7841-4.05067 53.5734-11.6294 58.2774-21.4294 58.5388-34.2347 58.5388-41.8134ZM31.8827 0.130665C27.7014 0.130665 19.208-2.22134 16.7254-16.464 15.288-24.304 15.288-34.2347 15.288-43.3814 15.288-54.0961 15.288-63.7654 17.3787-71.4748 19.6-80.2295 26.264-84.2801 31.8827-84.2801 36.8481-84.2801 44.4267-81.2748 46.9094-70.0374 48.6081-62.5894 48.6081-52.2667 48.6081-43.3814 48.6081-34.6267 48.6081-24.696 47.1707-16.7254 44.6881-2.352 36.4561 0.130665 31.8827 0.130665Z" transform="matrix(1 0 0 1.00255 1650.98 1038.25)"/><path d="M35.6721-30.4454C36.3254-32.0134 36.3254-32.2747 36.3254-32.6667 36.3254-33.0587 36.3254-33.3201 35.6721-34.8881L12.8053-94.9948C12.0213-97.2161 11.2373-98.0002 9.80002-98.0002 8.36269-98.0002 7.18668-96.8242 7.18668-95.3868 7.18668-94.9948 7.18668-94.7335 7.84001-93.2961L30.968-32.6667 7.84001 27.7014C7.18668 29.1387 7.18668 29.4 7.18668 30.0534 7.18668 31.4907 8.36268 32.6667 9.80002 32.6667 11.4987 32.6667 12.0213 31.36 12.544 30.0534L35.6721-30.4454Z" transform="matrix(1 0 0 1.00255 1714.95 1038.25)"/><path d="M24.5654-17.7707C25.9591-19.0774 29.6178-21.952 31.0116-23.1716 36.4125-28.1369 41.5521-32.928 41.5521-40.8552 41.5521-51.2214 32.8409-57.929 21.952-57.929 11.4987-57.929 4.6169-50.0019 4.6169-42.249 4.6169-37.9805 8.01423-37.3707 9.23379-37.3707 11.0631-37.3707 13.7636-38.6774 13.7636-41.9876 13.7636-46.5174 9.40801-46.5174 8.36268-46.5174 10.8889-52.8765 16.7254-55.0543 20.9938-55.0543 29.0952-55.0543 33.2765-48.1725 33.2765-40.8552 33.2765-31.7956 26.9174-25.1751 16.6382-14.6347L5.66223-3.31022C4.6169-2.352 4.6169-2.17778 4.6169 0L39.0258 0 41.5521-15.5929 38.8516-15.5929C38.5903-13.8507 37.8934-9.49512 36.8481-7.84001 36.3254-7.14312 29.7049-7.14312 28.3111-7.14312L12.8053-7.14312 24.5654-17.7707Z" transform="matrix(1 0 0 1.00255 1765.77 1057.9)"/></g></g></g><path d="M1832.5 748.5 2451.59 748.5" stroke="#000000" stroke-width="4.58333" stroke-miterlimit="8" fill="none" fill-rule="evenodd"/><path d="M1832.5 1007.5 2463.63 1007.5" stroke="#000000" stroke-width="4.58333" stroke-miterlimit="8" fill="none" fill-rule="evenodd"/><path d="M2210 748 2210 1006.5" stroke="#000000" stroke-width="10.3125" stroke-miterlimit="8" fill="none" fill-rule="evenodd"/><path d="M2191 748C2191 737.507 2199.51 729 2210 729 2220.49 729 2229 737.507 2229 748 2229 758.493 2220.49 767 2210 767 2199.51 767 2191 758.493 2191 748Z" fill-rule="evenodd"/><path d="M2191 1006.5C2191 995.73 2199.51 987 2210 987 2220.49 987 2229 995.73 2229 1006.5 2229 1017.27 2220.49 1026 2210 1026 2199.51 1026 2191 1017.27 2191 1006.5Z" fill-rule="evenodd"/><rect x="1924.5" y="677.5" width="138" height="137" stroke="#000000" stroke-width="4.58333" stroke-miterlimit="8" fill="#FFFFFF"/><text font-family="Cambria,Cambria_MSFontService,sans-serif" font-style="italic" font-weight="400" font-size="110" transform="matrix(1 0 0 1 1956.32 787)">H</text><rect x="1924.5" y="935.5" width="138" height="138" stroke="#000000" stroke-width="4.58333" stroke-miterlimit="8" fill="#FFFFFF"/><text font-family="Cambria,Cambria_MSFontService,sans-serif" font-style="italic" font-weight="400" font-size="110" transform="matrix(1 0 0 1 1956.32 1045)">H</text><path d="M1850.5 1266.5 2476.81 1266.5" stroke="#000000" stroke-width="4.58333" stroke-miterlimit="8" fill="none" fill-rule="evenodd"/><rect x="1924.5" y="1182.5" width="138" height="137" stroke="#000000" stroke-width="4.58333" stroke-miterlimit="8" fill="#FFFFFF"/><text font-family="Cambria,Cambria_MSFontService,sans-serif" font-style="italic" font-weight="400" font-size="110" transform="matrix(1 0 0 1 1956.32 1292)">H</text><path d="M2404 1009 2404 1267.5" stroke="#000000" stroke-width="10.3125" stroke-miterlimit="8" fill="none" fill-rule="evenodd"/><path d="M2384 1009.5C2384 998.73 2392.73 990 2403.5 990 2414.27 990 2423 998.73 2423 1009.5 2423 1020.27 2414.27 1029 2403.5 1029 2392.73 1029 2384 1020.27 2384 1009.5Z" fill-rule="evenodd"/><path d="M2384 1268C2384 1257.51 2392.73 1249 2403.5 1249 2414.27 1249 2423 1257.51 2423 1268 2423 1278.49 2414.27 1287 2403.5 1287 2392.73 1287 2384 1278.49 2384 1268Z" fill-rule="evenodd"/></g></svg>