<svg width="854" height="737" xmlns="http://www.w3.org/2000/svg" xmlns:xlink="http://www.w3.org/1999/xlink" xml:space="preserve" overflow="hidden"><defs><clipPath id="clip0"><rect x="1626" y="646" width="854" height="737"/></clipPath><clipPath id="clip1"><rect x="1625" y="682" width="141" height="132"/></clipPath><clipPath id="clip2"><rect x="1625" y="682" width="141" height="132"/></clipPath><clipPath id="clip3"><rect x="1625" y="682" width="141" height="132"/></clipPath><clipPath id="clip4"><rect x="1625" y="940" width="141" height="133"/></clipPath><clipPath id="clip5"><rect x="1625" y="940" width="141" height="133"/></clipPath><clipPath id="clip6"><rect x="1625" y="940" width="141" height="133"/></clipPath><clipPath id="clip7"><rect x="1625" y="1199" width="141" height="134"/></clipPath><clipPath id="clip8"><rect x="1625" y="1199" width="141" height="134"/></clipPath><clipPath id="clip9"><rect x="1625" y="1199" width="141" height="134"/></clipPath></defs><g clip-path="url(#clip0)" transform="translate(-1626 -646)"><g clip-path="url(#clip1)"><g clip-path="url(#clip2)"><g clip-path="url(#clip3)"><path d="M20.988-94.248C20.988-96.624 20.988-99 18.348-99 15.708-99 15.708-96.624 15.708-94.248L15.708 28.248C15.708 30.624 15.708 33 18.348 33 20.988 33 20.988 30.624 20.988 28.248L20.988-94.248Z" transform="matrix(1.00478 0 0 1 1626.68 781)"/><path d="M59.136-42.24C59.136-53.196 58.476-63.888 53.724-73.92 48.312-84.876 38.808-87.78 32.34-87.78 24.684-87.78 15.312-83.952 10.428-72.996 6.732-64.68 5.412-56.496 5.412-42.24 5.412-29.436 6.336-19.8 11.088-10.428 16.236-0.396005 25.344 2.77201 32.208 2.77201 43.692 2.77201 50.292-4.092 54.12-11.748 58.872-21.648 59.136-34.584 59.136-42.24ZM32.208 0.131998C27.984 0.131998 19.404-2.244 16.896-16.632 15.444-24.552 15.444-34.584 15.444-43.824 15.444-54.648 15.444-64.416 17.556-72.204 19.8-81.048 26.532-85.14 32.208-85.14 37.224-85.14 44.88-82.104 47.388-70.752 49.104-63.228 49.104-52.8 49.104-43.824 49.104-34.98 49.104-24.948 47.652-16.896 45.144-2.376 36.828 0.131998 32.208 0.131998Z" transform="matrix(1.00478 0 0 1 1663.52 781)"/><path d="M36.036-30.756C36.696-32.34 36.696-32.604 36.696-33 36.696-33.396 36.696-33.66 36.036-35.244L12.936-95.964C12.144-98.208 11.352-99 9.9-99 8.44801-99 7.26-97.812 7.26-96.36 7.26-95.964 7.26-95.7 7.92-94.248L31.284-33 7.92 27.984C7.26 29.436 7.26 29.7 7.26 30.36 7.26 31.812 8.448 33 9.9 33 11.616 33 12.144 31.68 12.672 30.36L36.036-30.756Z" transform="matrix(1.00478 0 0 1 1728.45 781)"/></g></g></g><path d="M1832.5 748.5 2451.59 748.5" stroke="#000000" stroke-width="4.58333" stroke-miterlimit="8" fill="none" fill-rule="evenodd"/><path d="M1832.5 1007.5 2463.63 1007.5" stroke="#000000" stroke-width="4.58333" stroke-miterlimit="8" fill="none" fill-rule="evenodd"/><g clip-path="url(#clip4)"><g clip-path="url(#clip5)"><g clip-path="url(#clip6)"><path d="M21.0884-94.6989C21.0884-97.0862 21.0884-99.4736 18.4358-99.4736 15.7831-99.4736 15.7831-97.0862 15.7831-94.6989L15.7831 28.3831C15.7831 30.7705 15.7831 33.1579 18.4358 33.1579 21.0884 33.1579 21.0884 30.7705 21.0884 28.3831L21.0884-94.6989Z" transform="matrix(1 0 0 1.00278 1626.68 1039.75)"/><path d="M59.4189-42.4421C59.4189-53.4505 58.7557-64.1936 53.981-74.2736 48.5431-85.282 38.9937-88.1999 32.4947-88.1999 24.8021-88.1999 15.3853-84.3536 10.4779-73.3452 6.76421-64.9894 5.43789-56.7663 5.43789-42.4421 5.43789-29.5768 6.36631-19.8947 11.141-10.4779 16.3137-0.3979 25.4652 2.78527 32.3621 2.78527 43.901 2.78527 50.5326-4.11157 54.3789-11.8042 59.1536-21.7516 59.4189-34.7494 59.4189-42.4421ZM32.3621 0.13263C28.1179 0.13263 19.4968-2.25474 16.9768-16.7116 15.5179-24.6695 15.5179-34.7494 15.5179-44.0337 15.5179-54.9094 15.5179-64.7242 17.64-72.5494 19.8947-81.4357 26.6589-85.5473 32.3621-85.5473 37.4021-85.5473 45.0947-82.4968 47.6147-71.0905 49.3389-63.5305 49.3389-53.0526 49.3389-44.0337 49.3389-35.1474 49.3389-25.0674 47.88-16.9768 45.36-2.38737 37.0042 0.13263 32.3621 0.13263Z" transform="matrix(1 0 0 1.00278 1663.52 1039.75)"/><path d="M36.2084-30.9031C36.8716-32.4947 36.8716-32.76 36.8716-33.1579 36.8716-33.5558 36.8716-33.821 36.2084-35.4126L12.9979-96.4231C12.2021-98.6778 11.4063-99.4736 9.94737-99.4736 8.48843-99.4736 7.29473-98.2799 7.29473-96.821 7.29473-96.4231 7.29473-96.1578 7.95789-94.6989L31.4337-33.1579 7.95789 28.1179C7.29473 29.5768 7.29473 29.8421 7.29473 30.5052 7.29473 31.9642 8.48842 33.1579 9.94737 33.1579 11.6716 33.1579 12.2021 31.8316 12.7326 30.5052L36.2084-30.9031Z" transform="matrix(1 0 0 1.00278 1728.45 1039.75)"/></g></g></g><path d="M2210 748 2210 1006.5" stroke="#000000" stroke-width="10.3125" stroke-miterlimit="8" fill="none" fill-rule="evenodd"/><path d="M2191 748C2191 737.507 2199.51 729 2210 729 2220.49 729 2229 737.507 2229 748 2229 758.493 2220.49 767 2210 767 2199.51 767 2191 758.493 2191 748Z" fill-rule="evenodd"/><path d="M2191 1006.5C2191 995.73 2199.51 987 2210 987 2220.49 987 2229 995.73 2229 1006.5 2229 1017.27 2220.49 1026 2210 1026 2199.51 1026 2191 1017.27 2191 1006.5Z" fill-rule="evenodd"/><rect x="1924.5" y="677.5" width="138" height="137" stroke="#000000" stroke-width="4.58333" stroke-miterlimit="8" fill="#FFFFFF"/><text font-family="Cambria,Cambria_MSFontService,sans-serif" font-style="italic" font-weight="400" font-size="110" transform="matrix(1 0 0 1 1956.32 787)">H</text><rect x="1924.5" y="935.5" width="138" height="138" stroke="#000000" stroke-width="4.58333" stroke-miterlimit="8" fill="#FFFFFF"/><text font-family="Cambria,Cambria_MSFontService,sans-serif" font-style="italic" font-weight="400" font-size="110" transform="matrix(1 0 0 1 1956.32 1045)">H</text><g clip-path="url(#clip7)"><g clip-path="url(#clip8)"><g clip-path="url(#clip9)"><path d="M21.0884-94.6989C21.0884-97.0862 21.0884-99.4736 18.4358-99.4736 15.7831-99.4736 15.7831-97.0862 15.7831-94.6989L15.7831 28.3831C15.7831 30.7705 15.7831 33.1579 18.4358 33.1579 21.0884 33.1579 21.0884 30.7705 21.0884 28.3831L21.0884-94.6989Z" transform="matrix(1 0 0 1.00278 1626.68 1298.75)"/><path d="M59.4189-42.4421C59.4189-53.4505 58.7557-64.1936 53.981-74.2736 48.5431-85.282 38.9937-88.1999 32.4947-88.1999 24.8021-88.1999 15.3853-84.3536 10.4779-73.3452 6.76421-64.9894 5.43789-56.7663 5.43789-42.4421 5.43789-29.5768 6.36631-19.8947 11.141-10.4779 16.3137-0.3979 25.4652 2.78527 32.3621 2.78527 43.901 2.78527 50.5326-4.11157 54.3789-11.8042 59.1536-21.7516 59.4189-34.7494 59.4189-42.4421ZM32.3621 0.13263C28.1179 0.13263 19.4968-2.25474 16.9768-16.7116 15.5179-24.6695 15.5179-34.7494 15.5179-44.0337 15.5179-54.9094 15.5179-64.7242 17.64-72.5494 19.8947-81.4357 26.6589-85.5473 32.3621-85.5473 37.4021-85.5473 45.0947-82.4968 47.6147-71.0905 49.3389-63.5305 49.3389-53.0526 49.3389-44.0337 49.3389-35.1474 49.3389-25.0674 47.88-16.9768 45.36-2.38737 37.0042 0.13263 32.3621 0.13263Z" transform="matrix(1 0 0 1.00278 1663.52 1298.75)"/><path d="M36.2084-30.9031C36.8716-32.4947 36.8716-32.76 36.8716-33.1579 36.8716-33.5558 36.8716-33.821 36.2084-35.4126L12.9979-96.4231C12.2021-98.6778 11.4063-99.4736 9.94737-99.4736 8.48843-99.4736 7.29473-98.2799 7.29473-96.821 7.29473-96.4231 7.29473-96.1578 7.95789-94.6989L31.4337-33.1579 7.95789 28.1179C7.29473 29.5768 7.29473 29.8421 7.29473 30.5052 7.29473 31.9642 8.48842 33.1579 9.94737 33.1579 11.6716 33.1579 12.2021 31.8316 12.7326 30.5052L36.2084-30.9031Z" transform="matrix(1 0 0 1.00278 1728.45 1298.75)"/></g></g></g><path d="M1850.5 1266.5 2476.81 1266.5" stroke="#000000" stroke-width="4.58333" stroke-miterlimit="8" fill="none" fill-rule="evenodd"/><rect x="1924.5" y="1182.5" width="138" height="137" stroke="#000000" stroke-width="4.58333" stroke-miterlimit="8" fill="#FFFFFF"/><text font-family="Cambria,Cambria_MSFontService,sans-serif" font-style="italic" font-weight="400" font-size="110" transform="matrix(1 0 0 1 1956.32 1292)">H</text><path d="M2404 1009 2404 1267.5" stroke="#000000" stroke-width="10.3125" stroke-miterlimit="8" fill="none" fill-rule="evenodd"/><path d="M2384 1009.5C2384 998.73 2392.73 990 2403.5 990 2414.27 990 2423 998.73 2423 1009.5 2423 1020.27 2414.27 1029 2403.5 1029 2392.73 1029 2384 1020.27 2384 1009.5Z" fill-rule="evenodd"/><path d="M2384 1268C2384 1257.51 2392.73 1249 2403.5 1249 2414.27 1249 2423 1257.51 2423 1268 2423 1278.49 2414.27 1287 2403.5 1287 2392.73 1287 2384 1278.49 2384 1268Z" fill-rule="evenodd"/></g></svg>