<svg width="507" height="116" xmlns="http://www.w3.org/2000/svg" xmlns:xlink="http://www.w3.org/1999/xlink" xml:space="preserve" overflow="hidden"><defs><clipPath id="clip0"><rect x="962" y="335" width="507" height="116"/></clipPath></defs><g clip-path="url(#clip0)" transform="translate(-962 -335)"><path d="M0 0 128.801 0.000360892" stroke="#8FAADC" stroke-width="10.3125" stroke-miterlimit="8" fill="none" fill-rule="evenodd" transform="matrix(1 0 0 -1 1049 385)"/><path d="M1254 385 1382.8 385" stroke="#8FAADC" stroke-width="10.3125" stroke-miterlimit="8" fill="none" fill-rule="evenodd"/><path d="M972 385C972 364.013 989.237 347 1010.5 347 1031.76 347 1049 364.013 1049 385 1049 405.987 1031.76 423 1010.5 423 989.237 423 972 405.987 972 385Z" fill="#203864" fill-rule="evenodd"/><text fill="#FFFFFF" font-family="Segoe UI,Segoe UI_MSFontService,sans-serif" font-weight="400" font-size="55" transform="matrix(1 0 0 1 995.478 406)">1</text><path d="M1177 385C1177 364.013 1194.24 347 1215.5 347 1236.76 347 1254 364.013 1254 385 1254 405.987 1236.76 423 1215.5 423 1194.24 423 1177 405.987 1177 385Z" fill="#203864" fill-rule="evenodd"/><text fill="#FFFFFF" font-family="Segoe UI,Segoe UI_MSFontService,sans-serif" font-weight="400" font-size="55" transform="matrix(1 0 0 1 1200.62 406)">2</text><path d="M1382 385C1382 364.013 1399.24 347 1420.5 347 1441.76 347 1459 364.013 1459 385 1459 405.987 1441.76 423 1420.5 423 1399.24 423 1382 405.987 1382 385Z" fill="#203864" fill-rule="evenodd"/><text fill="#FFFFFF" font-family="Segoe UI,Segoe UI_MSFontService,sans-serif" font-weight="400" font-size="55" transform="matrix(1 0 0 1 1405.75 406)">3</text></g></svg>