<?xml version="1.0" encoding="UTF-8" standalone="no"?>
<!DOCTYPE svg PUBLIC "-//W3C//DTD SVG 1.1//EN"
 "http://www.w3.org/Graphics/SVG/1.1/DTD/svg11.dtd">
<!-- Generated by graphviz version 3.0.0 (20220226.1711)
 -->
<!-- Title: packages_flamingpy Pages: 1 -->
<svg width="1594pt" height="548pt"
 viewBox="0.00 0.00 1593.91 548.00" xmlns="http://www.w3.org/2000/svg" xmlns:xlink="http://www.w3.org/1999/xlink">
<g id="graph0" class="graph" transform="scale(1 1) rotate(0) translate(4 544)">
<title>packages_flamingpy</title>
<polygon fill="white" stroke="transparent" points="-4,4 -4,-544 1589.91,-544 1589.91,4 -4,4"/>
<!-- flamingpy -->
<g id="node1" class="node">
<title>flamingpy</title>
<polygon fill="#bde0ff" stroke="#bde0ff" points="223.91,-36 150.91,-36 150.91,0 223.91,0 223.91,-36"/>
<text text-anchor="middle" x="187.41" y="-14.3" font-family="Helvetica,sans-serif" font-size="12.00">flamingpy</text>
</g>
<!-- flamingpy._version -->
<g id="node2" class="node">
<title>flamingpy._version</title>
<polygon fill="#bde0ff" stroke="#bde0ff" points="248.41,-108 126.41,-108 126.41,-72 248.41,-72 248.41,-108"/>
<text text-anchor="middle" x="187.41" y="-86.3" font-family="Helvetica,sans-serif" font-size="12.00">flamingpy._version</text>
</g>
<!-- flamingpy&#45;&gt;flamingpy._version -->
<g id="edge1" class="edge">
<title>flamingpy&#45;&gt;flamingpy._version</title>
<path fill="none" stroke="black" d="M187.41,-36.3C187.41,-44.02 187.41,-53.29 187.41,-61.89"/>
<polygon fill="black" stroke="black" points="187.41,-71.9 182.91,-61.9 187.41,-66.9 187.41,-61.9 187.41,-61.9 187.41,-61.9 187.41,-66.9 191.91,-61.9 187.41,-71.9 187.41,-71.9"/>
</g>
<!-- flamingpy.codes -->
<g id="node3" class="node">
<title>flamingpy.codes</title>
<polygon fill="#bde0ff" stroke="#bde0ff" points="1185.91,-108 1078.91,-108 1078.91,-72 1185.91,-72 1185.91,-108"/>
<text text-anchor="middle" x="1132.41" y="-86.3" font-family="Helvetica,sans-serif" font-size="12.00">flamingpy.codes</text>
</g>
<!-- flamingpy.codes.graphs -->
<g id="node4" class="node">
<title>flamingpy.codes.graphs</title>
<polygon fill="#bde0ff" stroke="#bde0ff" points="1117.41,-252 971.41,-252 971.41,-216 1117.41,-216 1117.41,-252"/>
<text text-anchor="middle" x="1044.41" y="-230.3" font-family="Helvetica,sans-serif" font-size="12.00">flamingpy.codes.graphs</text>
</g>
<!-- flamingpy.codes&#45;&gt;flamingpy.codes.graphs -->
<g id="edge2" class="edge">
<title>flamingpy.codes&#45;&gt;flamingpy.codes.graphs</title>
<path fill="none" stroke="black" d="M1078.87,-106.7C1060.9,-114.81 1042.8,-126.74 1032.41,-144 1021.1,-162.8 1025.85,-187.82 1032.42,-206.54"/>
<polygon fill="black" stroke="black" points="1036.06,-215.96 1028.25,-208.25 1034.25,-211.29 1032.45,-206.63 1032.45,-206.63 1032.45,-206.63 1034.25,-211.29 1036.65,-205.01 1036.06,-215.96 1036.06,-215.96"/>
</g>
<!-- flamingpy.codes.stabilizer -->
<g id="node7" class="node">
<title>flamingpy.codes.stabilizer</title>
<polygon fill="#bde0ff" stroke="#bde0ff" points="762.41,-324 602.41,-324 602.41,-288 762.41,-288 762.41,-324"/>
<text text-anchor="middle" x="682.41" y="-302.3" font-family="Helvetica,sans-serif" font-size="12.00">flamingpy.codes.stabilizer</text>
</g>
<!-- flamingpy.codes&#45;&gt;flamingpy.codes.stabilizer -->
<g id="edge3" class="edge">
<title>flamingpy.codes&#45;&gt;flamingpy.codes.stabilizer</title>
<path fill="none" stroke="black" d="M1096.35,-108.15C1014.87,-146.9 816.73,-241.12 727.4,-283.61"/>
<polygon fill="black" stroke="black" points="718.33,-287.92 725.43,-279.56 722.85,-285.77 727.37,-283.62 727.37,-283.62 727.37,-283.62 722.85,-285.77 729.3,-287.69 718.33,-287.92 718.33,-287.92"/>
</g>
<!-- flamingpy.codes.surface_code -->
<g id="node8" class="node">
<title>flamingpy.codes.surface_code</title>
<polygon fill="#bde0ff" stroke="#bde0ff" points="1223.41,-180 1041.41,-180 1041.41,-144 1223.41,-144 1223.41,-180"/>
<text text-anchor="middle" x="1132.41" y="-158.3" font-family="Helvetica,sans-serif" font-size="12.00">flamingpy.codes.surface_code</text>
</g>
<!-- flamingpy.codes&#45;&gt;flamingpy.codes.surface_code -->
<g id="edge4" class="edge">
<title>flamingpy.codes&#45;&gt;flamingpy.codes.surface_code</title>
<path fill="none" stroke="black" d="M1126.49,-108.3C1125.7,-116.02 1125.47,-125.29 1125.82,-133.89"/>
<polygon fill="black" stroke="black" points="1126.52,-143.9 1121.33,-134.23 1126.17,-138.91 1125.82,-133.92 1125.82,-133.92 1125.82,-133.92 1126.17,-138.91 1130.31,-133.61 1126.52,-143.9 1126.52,-143.9"/>
</g>
<!-- flamingpy.codes.graphs.egraph -->
<g id="node5" class="node">
<title>flamingpy.codes.graphs.egraph</title>
<polygon fill="#bde0ff" stroke="#bde0ff" points="1222.91,-324 1035.91,-324 1035.91,-288 1222.91,-288 1222.91,-324"/>
<text text-anchor="middle" x="1129.41" y="-302.3" font-family="Helvetica,sans-serif" font-size="12.00">flamingpy.codes.graphs.egraph</text>
</g>
<!-- flamingpy.codes.graphs&#45;&gt;flamingpy.codes.graphs.egraph -->
<g id="edge5" class="edge">
<title>flamingpy.codes.graphs&#45;&gt;flamingpy.codes.graphs.egraph</title>
<path fill="none" stroke="black" d="M1065.42,-252.3C1076.13,-261.12 1089.3,-271.97 1100.91,-281.53"/>
<polygon fill="black" stroke="black" points="1108.64,-287.9 1098.06,-285.01 1104.78,-284.72 1100.92,-281.54 1100.92,-281.54 1100.92,-281.54 1104.78,-284.72 1103.78,-278.06 1108.64,-287.9 1108.64,-287.9"/>
</g>
<!-- flamingpy.codes.graphs.stabilizer_graph -->
<g id="node6" class="node">
<title>flamingpy.codes.graphs.stabilizer_graph</title>
<polygon fill="#bde0ff" stroke="#bde0ff" points="1017.91,-324 780.91,-324 780.91,-288 1017.91,-288 1017.91,-324"/>
<text text-anchor="middle" x="899.41" y="-302.3" font-family="Helvetica,sans-serif" font-size="12.00">flamingpy.codes.graphs.stabilizer_graph</text>
</g>
<!-- flamingpy.codes.graphs&#45;&gt;flamingpy.codes.graphs.stabilizer_graph -->
<g id="edge6" class="edge">
<title>flamingpy.codes.graphs&#45;&gt;flamingpy.codes.graphs.stabilizer_graph</title>
<path fill="none" stroke="black" d="M1008.94,-252.12C989.29,-261.61 964.69,-273.49 943.78,-283.58"/>
<polygon fill="black" stroke="black" points="934.77,-287.93 941.82,-279.53 939.27,-285.76 943.77,-283.58 943.77,-283.58 943.77,-283.58 939.27,-285.76 945.73,-287.64 934.77,-287.93 934.77,-287.93"/>
</g>
<!-- flamingpy.utils.viz -->
<g id="node26" class="node">
<title>flamingpy.utils.viz</title>
<polygon fill="#bde0ff" stroke="#bde0ff" points="958.91,-396 839.91,-396 839.91,-360 958.91,-360 958.91,-396"/>
<text text-anchor="middle" x="899.41" y="-374.3" font-family="Helvetica,sans-serif" font-size="12.00">flamingpy.utils.viz</text>
</g>
<!-- flamingpy.codes.graphs.egraph&#45;&gt;flamingpy.utils.viz -->
<g id="edge7" class="edge">
<title>flamingpy.codes.graphs.egraph&#45;&gt;flamingpy.utils.viz</title>
<path fill="none" stroke="black" d="M1073.44,-324.03C1040.89,-333.94 999.67,-346.49 965.52,-356.88"/>
<polygon fill="black" stroke="black" points="955.63,-359.89 963.89,-352.67 960.42,-358.43 965.2,-356.98 965.2,-356.98 965.2,-356.98 960.42,-358.43 966.51,-361.28 955.63,-359.89 955.63,-359.89"/>
</g>
<!-- flamingpy.codes.graphs.stabilizer_graph&#45;&gt;flamingpy.utils.viz -->
<g id="edge8" class="edge">
<title>flamingpy.codes.graphs.stabilizer_graph&#45;&gt;flamingpy.utils.viz</title>
<path fill="none" stroke="black" d="M899.41,-324.3C899.41,-332.02 899.41,-341.29 899.41,-349.89"/>
<polygon fill="black" stroke="black" points="899.41,-359.9 894.91,-349.9 899.41,-354.9 899.41,-349.9 899.41,-349.9 899.41,-349.9 899.41,-354.9 903.91,-349.9 899.41,-359.9 899.41,-359.9"/>
</g>
<!-- flamingpy.codes.surface_code&#45;&gt;flamingpy.codes -->
<g id="edge9" class="edge">
<title>flamingpy.codes.surface_code&#45;&gt;flamingpy.codes</title>
<path fill="none" stroke="black" d="M1138.31,-143.9C1139.11,-136.21 1139.35,-126.95 1139.01,-118.33"/>
<polygon fill="black" stroke="black" points="1138.33,-108.3 1143.5,-117.97 1138.67,-113.29 1139.01,-118.28 1139.01,-118.28 1139.01,-118.28 1138.67,-113.29 1134.52,-118.59 1138.33,-108.3 1138.33,-108.3"/>
</g>
<!-- flamingpy.codes.surface_code&#45;&gt;flamingpy.codes.graphs -->
<g id="edge10" class="edge">
<title>flamingpy.codes.surface_code&#45;&gt;flamingpy.codes.graphs</title>
<path fill="none" stroke="black" d="M1110.66,-180.3C1099.58,-189.12 1085.94,-199.97 1073.92,-209.53"/>
<polygon fill="black" stroke="black" points="1065.91,-215.9 1070.94,-206.15 1069.83,-212.78 1073.74,-209.67 1073.74,-209.67 1073.74,-209.67 1069.83,-212.78 1076.54,-213.19 1065.91,-215.9 1065.91,-215.9"/>
</g>
<!-- flamingpy.cv -->
<g id="node9" class="node">
<title>flamingpy.cv</title>
<polygon fill="#bde0ff" stroke="#bde0ff" points="979.91,-468 890.91,-468 890.91,-432 979.91,-432 979.91,-468"/>
<text text-anchor="middle" x="935.41" y="-446.3" font-family="Helvetica,sans-serif" font-size="12.00">flamingpy.cv</text>
</g>
<!-- flamingpy.cv.ops -->
<g id="node12" class="node">
<title>flamingpy.cv.ops</title>
<polygon fill="#bde0ff" stroke="#bde0ff" points="1091.41,-540 981.41,-540 981.41,-504 1091.41,-504 1091.41,-540"/>
<text text-anchor="middle" x="1036.41" y="-518.3" font-family="Helvetica,sans-serif" font-size="12.00">flamingpy.cv.ops</text>
</g>
<!-- flamingpy.cv&#45;&gt;flamingpy.cv.ops -->
<g id="edge11" class="edge">
<title>flamingpy.cv&#45;&gt;flamingpy.cv.ops</title>
<path fill="none" stroke="black" d="M960.12,-468.12C973.08,-477.11 989.14,-488.24 1003.18,-497.97"/>
<polygon fill="black" stroke="black" points="1011.61,-503.81 1000.83,-501.81 1007.5,-500.96 1003.39,-498.11 1003.39,-498.11 1003.39,-498.11 1007.5,-500.96 1005.95,-494.42 1011.61,-503.81 1011.61,-503.81"/>
</g>
<!-- flamingpy.cv.gkp -->
<g id="node10" class="node">
<title>flamingpy.cv.gkp</title>
<polygon fill="#bde0ff" stroke="#bde0ff" points="1110.41,-468 998.41,-468 998.41,-432 1110.41,-432 1110.41,-468"/>
<text text-anchor="middle" x="1054.41" y="-446.3" font-family="Helvetica,sans-serif" font-size="12.00">flamingpy.cv.gkp</text>
</g>
<!-- flamingpy.cv.macro_reduce -->
<g id="node11" class="node">
<title>flamingpy.cv.macro_reduce</title>
<polygon fill="#bde0ff" stroke="#bde0ff" points="1222.91,-396 1053.91,-396 1053.91,-360 1222.91,-360 1222.91,-396"/>
<text text-anchor="middle" x="1138.41" y="-374.3" font-family="Helvetica,sans-serif" font-size="12.00">flamingpy.cv.macro_reduce</text>
</g>
<!-- flamingpy.cv.macro_reduce&#45;&gt;flamingpy.cv.gkp -->
<g id="edge12" class="edge">
<title>flamingpy.cv.macro_reduce&#45;&gt;flamingpy.cv.gkp</title>
<path fill="none" stroke="black" d="M1117.65,-396.3C1107.17,-405.03 1094.3,-415.76 1082.91,-425.25"/>
<polygon fill="black" stroke="black" points="1074.94,-431.9 1079.74,-422.04 1078.78,-428.69 1082.62,-425.49 1082.62,-425.49 1082.62,-425.49 1078.78,-428.69 1085.5,-428.95 1074.94,-431.9 1074.94,-431.9"/>
</g>
<!-- flamingpy.cv.macro_reduce&#45;&gt;flamingpy.cv.ops -->
<g id="edge13" class="edge">
<title>flamingpy.cv.macro_reduce&#45;&gt;flamingpy.cv.ops</title>
<path fill="none" stroke="black" d="M1138.56,-396.27C1137.91,-415.43 1134.36,-446.45 1119.41,-468 1110.78,-480.44 1098.19,-490.62 1085.41,-498.61"/>
<polygon fill="black" stroke="black" points="1076.58,-503.79 1082.92,-494.85 1080.89,-501.26 1085.2,-498.73 1085.2,-498.73 1085.2,-498.73 1080.89,-501.26 1087.48,-502.61 1076.58,-503.79 1076.58,-503.79"/>
</g>
<!-- flamingpy.cv.ops&#45;&gt;flamingpy.utils.viz -->
<g id="edge14" class="edge">
<title>flamingpy.cv.ops&#45;&gt;flamingpy.utils.viz</title>
<path fill="none" stroke="black" d="M981.38,-517.78C946.56,-512.55 903.99,-499.58 881.41,-468 868.31,-449.68 875.44,-424.09 884.3,-405.05"/>
<polygon fill="black" stroke="black" points="888.85,-396.03 888.36,-406.98 886.59,-400.49 884.34,-404.96 884.34,-404.96 884.34,-404.96 886.59,-400.49 880.33,-402.93 888.85,-396.03 888.85,-396.03"/>
</g>
<!-- flamingpy.decoders -->
<g id="node13" class="node">
<title>flamingpy.decoders</title>
<polygon fill="#bde0ff" stroke="#bde0ff" points="454.41,-36 330.41,-36 330.41,0 454.41,0 454.41,-36"/>
<text text-anchor="middle" x="392.41" y="-14.3" font-family="Helvetica,sans-serif" font-size="12.00">flamingpy.decoders</text>
</g>
<!-- flamingpy.decoders.decoder -->
<g id="node14" class="node">
<title>flamingpy.decoders.decoder</title>
<polygon fill="#bde0ff" stroke="#bde0ff" points="477.41,-108 307.41,-108 307.41,-72 477.41,-72 477.41,-108"/>
<text text-anchor="middle" x="392.41" y="-86.3" font-family="Helvetica,sans-serif" font-size="12.00">flamingpy.decoders.decoder</text>
</g>
<!-- flamingpy.decoders&#45;&gt;flamingpy.decoders.decoder -->
<g id="edge15" class="edge">
<title>flamingpy.decoders&#45;&gt;flamingpy.decoders.decoder</title>
<path fill="none" stroke="black" d="M392.41,-36.3C392.41,-44.02 392.41,-53.29 392.41,-61.89"/>
<polygon fill="black" stroke="black" points="392.41,-71.9 387.91,-61.9 392.41,-66.9 392.41,-61.9 392.41,-61.9 392.41,-61.9 392.41,-66.9 396.91,-61.9 392.41,-71.9 392.41,-71.9"/>
</g>
<!-- flamingpy.decoders.mwpm.algos -->
<g id="node16" class="node">
<title>flamingpy.decoders.mwpm.algos</title>
<polygon fill="#bde0ff" stroke="#bde0ff" points="375.91,-252 176.91,-252 176.91,-216 375.91,-216 375.91,-252"/>
<text text-anchor="middle" x="276.41" y="-230.3" font-family="Helvetica,sans-serif" font-size="12.00">flamingpy.decoders.mwpm.algos</text>
</g>
<!-- flamingpy.decoders&#45;&gt;flamingpy.decoders.mwpm.algos -->
<g id="edge16" class="edge">
<title>flamingpy.decoders&#45;&gt;flamingpy.decoders.mwpm.algos</title>
<path fill="none" stroke="black" d="M343.43,-36.06C326.59,-44.34 309.25,-56.04 298.41,-72 271.09,-112.22 270.59,-171.26 273.17,-205.55"/>
<polygon fill="black" stroke="black" points="274.09,-215.75 268.71,-206.2 273.64,-210.77 273.19,-205.79 273.19,-205.79 273.19,-205.79 273.64,-210.77 277.68,-205.39 274.09,-215.75 274.09,-215.75"/>
</g>
<!-- flamingpy.decoders.unionfind.algos -->
<g id="node20" class="node">
<title>flamingpy.decoders.unionfind.algos</title>
<polygon fill="#bde0ff" stroke="#bde0ff" points="618.41,-252 406.41,-252 406.41,-216 618.41,-216 618.41,-252"/>
<text text-anchor="middle" x="512.41" y="-230.3" font-family="Helvetica,sans-serif" font-size="12.00">flamingpy.decoders.unionfind.algos</text>
</g>
<!-- flamingpy.decoders&#45;&gt;flamingpy.decoders.unionfind.algos -->
<g id="edge17" class="edge">
<title>flamingpy.decoders&#45;&gt;flamingpy.decoders.unionfind.algos</title>
<path fill="none" stroke="black" d="M441.18,-36.2C458,-44.5 475.38,-56.17 486.41,-72 514.32,-112.03 516.43,-171.13 514.84,-205.49"/>
<polygon fill="black" stroke="black" points="514.21,-215.71 510.33,-205.46 514.52,-210.72 514.82,-205.73 514.82,-205.73 514.82,-205.73 514.52,-210.72 519.31,-206 514.21,-215.71 514.21,-215.71"/>
</g>
<!-- flamingpy.decoders.decoder&#45;&gt;flamingpy.cv.gkp -->
<g id="edge18" class="edge">
<title>flamingpy.decoders.decoder&#45;&gt;flamingpy.cv.gkp</title>
<path fill="none" stroke="black" d="M307.2,-102.83C212.02,-116.29 69.83,-137.3 59.41,-144 19.5,-169.67 0.41,-185.54 0.41,-233 0.41,-233 0.41,-233 0.41,-307 0.41,-348.34 -5.32,-370.76 27.41,-396 69.72,-428.62 935.54,-424.29 988.41,-432 988.51,-432.01 988.62,-432.03 988.72,-432.05"/>
<polygon fill="black" stroke="black" points="998.41,-433.7 987.79,-436.45 993.48,-432.86 988.55,-432.02 988.55,-432.02 988.55,-432.02 993.48,-432.86 989.31,-427.58 998.41,-433.7 998.41,-433.7"/>
</g>
<!-- flamingpy.decoders.mwpm -->
<g id="node15" class="node">
<title>flamingpy.decoders.mwpm</title>
<polygon fill="#bde0ff" stroke="#bde0ff" points="235.91,-180 68.91,-180 68.91,-144 235.91,-144 235.91,-180"/>
<text text-anchor="middle" x="152.41" y="-158.3" font-family="Helvetica,sans-serif" font-size="12.00">flamingpy.decoders.mwpm</text>
</g>
<!-- flamingpy.decoders.decoder&#45;&gt;flamingpy.decoders.mwpm -->
<g id="edge19" class="edge">
<title>flamingpy.decoders.decoder&#45;&gt;flamingpy.decoders.mwpm</title>
<path fill="none" stroke="black" d="M334.01,-108.03C299.89,-117.99 256.66,-130.59 220.94,-141.01"/>
<polygon fill="black" stroke="black" points="211.08,-143.89 219.42,-136.77 215.88,-142.49 220.68,-141.09 220.68,-141.09 220.68,-141.09 215.88,-142.49 221.94,-145.41 211.08,-143.89 211.08,-143.89"/>
</g>
<!-- flamingpy.decoders.unionfind -->
<g id="node19" class="node">
<title>flamingpy.decoders.unionfind</title>
<polygon fill="#bde0ff" stroke="#bde0ff" points="484.41,-180 304.41,-180 304.41,-144 484.41,-144 484.41,-180"/>
<text text-anchor="middle" x="394.41" y="-158.3" font-family="Helvetica,sans-serif" font-size="12.00">flamingpy.decoders.unionfind</text>
</g>
<!-- flamingpy.decoders.decoder&#45;&gt;flamingpy.decoders.unionfind -->
<g id="edge20" class="edge">
<title>flamingpy.decoders.decoder&#45;&gt;flamingpy.decoders.unionfind</title>
<path fill="none" stroke="black" d="M392.91,-108.3C393.13,-116.02 393.39,-125.29 393.64,-133.89"/>
<polygon fill="black" stroke="black" points="393.92,-143.9 389.14,-134.03 393.78,-138.9 393.64,-133.9 393.64,-133.9 393.64,-133.9 393.78,-138.9 398.13,-133.77 393.92,-143.9 393.92,-143.9"/>
</g>
<!-- flamingpy.decoders.mwpm&#45;&gt;flamingpy.decoders.mwpm.algos -->
<g id="edge21" class="edge">
<title>flamingpy.decoders.mwpm&#45;&gt;flamingpy.decoders.mwpm.algos</title>
<path fill="none" stroke="black" d="M182.74,-180.12C199.11,-189.36 219.49,-200.87 237.06,-210.79"/>
<polygon fill="black" stroke="black" points="245.96,-215.81 235.04,-214.81 241.61,-213.35 237.25,-210.89 237.25,-210.89 237.25,-210.89 241.61,-213.35 239.46,-206.98 245.96,-215.81 245.96,-215.81"/>
</g>
<!-- flamingpy.decoders.mwpm.matching -->
<g id="node18" class="node">
<title>flamingpy.decoders.mwpm.matching</title>
<polygon fill="#bde0ff" stroke="#bde0ff" points="249.91,-324 28.91,-324 28.91,-288 249.91,-288 249.91,-324"/>
<text text-anchor="middle" x="139.41" y="-302.3" font-family="Helvetica,sans-serif" font-size="12.00">flamingpy.decoders.mwpm.matching</text>
</g>
<!-- flamingpy.decoders.mwpm&#45;&gt;flamingpy.decoders.mwpm.matching -->
<g id="edge22" class="edge">
<title>flamingpy.decoders.mwpm&#45;&gt;flamingpy.decoders.mwpm.matching</title>
<path fill="none" stroke="black" d="M146.26,-180.13C141.48,-204.33 137.12,-248.79 136.46,-277.61"/>
<polygon fill="black" stroke="black" points="136.39,-287.81 131.96,-277.78 136.43,-282.81 136.46,-277.81 136.46,-277.81 136.46,-277.81 136.43,-282.81 140.96,-277.84 136.39,-287.81 136.39,-287.81"/>
</g>
<!-- flamingpy.decoders.mwpm.algos&#45;&gt;flamingpy.decoders.mwpm.matching -->
<g id="edge23" class="edge">
<title>flamingpy.decoders.mwpm.algos&#45;&gt;flamingpy.decoders.mwpm.matching</title>
<path fill="none" stroke="black" d="M242.9,-252.12C224.57,-261.49 201.67,-273.19 182.08,-283.2"/>
<polygon fill="black" stroke="black" points="173.05,-287.81 179.91,-279.25 177.51,-285.54 181.96,-283.26 181.96,-283.26 181.96,-283.26 177.51,-285.54 184.01,-287.27 173.05,-287.81 173.05,-287.81"/>
</g>
<!-- flamingpy.decoders.mwpm.algos&#45;&gt;flamingpy.utils.viz -->
<g id="edge24" class="edge">
<title>flamingpy.decoders.mwpm.algos&#45;&gt;flamingpy.utils.viz</title>
<path fill="none" stroke="black" d="M275.03,-252.04C274.41,-272.49 276.88,-306.23 297.41,-324 336.94,-358.21 679.77,-371.28 829.71,-375.39"/>
<polygon fill="black" stroke="black" points="839.73,-375.66 829.61,-379.89 834.73,-375.52 829.73,-375.39 829.73,-375.39 829.73,-375.39 834.73,-375.52 829.85,-370.89 839.73,-375.66 839.73,-375.66"/>
</g>
<!-- flamingpy.decoders.mwpm.lemon -->
<g id="node17" class="node">
<title>flamingpy.decoders.mwpm.lemon</title>
<polygon fill="#bde0ff" stroke="#bde0ff" points="241.91,-396 36.91,-396 36.91,-360 241.91,-360 241.91,-396"/>
<text text-anchor="middle" x="139.41" y="-374.3" font-family="Helvetica,sans-serif" font-size="12.00">flamingpy.decoders.mwpm.lemon</text>
</g>
<!-- flamingpy.decoders.mwpm.matching&#45;&gt;flamingpy.decoders.mwpm -->
<g id="edge25" class="edge">
<title>flamingpy.decoders.mwpm.matching&#45;&gt;flamingpy.decoders.mwpm</title>
<path fill="none" stroke="black" d="M145.58,-287.81C150.35,-263.58 154.71,-219.11 155.36,-190.32"/>
<polygon fill="black" stroke="black" points="155.43,-180.13 159.86,-190.16 155.4,-185.13 155.36,-190.13 155.36,-190.13 155.36,-190.13 155.4,-185.13 150.86,-190.1 155.43,-180.13 155.43,-180.13"/>
</g>
<!-- flamingpy.decoders.mwpm.matching&#45;&gt;flamingpy.decoders.mwpm.lemon -->
<g id="edge26" class="edge">
<title>flamingpy.decoders.mwpm.matching&#45;&gt;flamingpy.decoders.mwpm.lemon</title>
<path fill="none" stroke="black" d="M139.41,-324.3C139.41,-332.02 139.41,-341.29 139.41,-349.89"/>
<polygon fill="black" stroke="black" points="139.41,-359.9 134.91,-349.9 139.41,-354.9 139.41,-349.9 139.41,-349.9 139.41,-349.9 139.41,-354.9 143.91,-349.9 139.41,-359.9 139.41,-359.9"/>
</g>
<!-- flamingpy.decoders.mwpm.matching&#45;&gt;flamingpy.utils.viz -->
<g id="edge27" class="edge">
<title>flamingpy.decoders.mwpm.matching&#45;&gt;flamingpy.utils.viz</title>
<path fill="none" stroke="black" d="M250.13,-322.37C254.95,-322.94 259.73,-323.49 264.41,-324 469.36,-346.47 712.46,-364.32 829.53,-372.36"/>
<polygon fill="black" stroke="black" points="839.78,-373.06 829.5,-376.87 834.79,-372.72 829.8,-372.38 829.8,-372.38 829.8,-372.38 834.79,-372.72 830.11,-367.89 839.78,-373.06 839.78,-373.06"/>
</g>
<!-- flamingpy.decoders.unionfind&#45;&gt;flamingpy.decoders.unionfind.algos -->
<g id="edge28" class="edge">
<title>flamingpy.decoders.unionfind&#45;&gt;flamingpy.decoders.unionfind.algos</title>
<path fill="none" stroke="black" d="M423.28,-180.12C438.71,-189.28 457.89,-200.66 474.51,-210.52"/>
<polygon fill="black" stroke="black" points="483.43,-215.81 472.54,-214.58 479.13,-213.26 474.83,-210.71 474.83,-210.71 474.83,-210.71 479.13,-213.26 477.13,-206.84 483.43,-215.81 483.43,-215.81"/>
</g>
<!-- flamingpy.decoders.unionfind.algos&#45;&gt;flamingpy.codes.stabilizer -->
<g id="edge29" class="edge">
<title>flamingpy.decoders.unionfind.algos&#45;&gt;flamingpy.codes.stabilizer</title>
<path fill="none" stroke="black" d="M554,-252.12C577.44,-261.78 606.91,-273.91 631.71,-284.12"/>
<polygon fill="black" stroke="black" points="640.96,-287.93 630,-288.29 636.34,-286.03 631.71,-284.12 631.71,-284.12 631.71,-284.12 636.34,-286.03 633.43,-279.96 640.96,-287.93 640.96,-287.93"/>
</g>
<!-- flamingpy.decoders.unionfind.uf_classes -->
<g id="node21" class="node">
<title>flamingpy.decoders.unionfind.uf_classes</title>
<polygon fill="#bde0ff" stroke="#bde0ff" points="545.91,-324 306.91,-324 306.91,-288 545.91,-288 545.91,-324"/>
<text text-anchor="middle" x="426.41" y="-302.3" font-family="Helvetica,sans-serif" font-size="12.00">flamingpy.decoders.unionfind.uf_classes</text>
</g>
<!-- flamingpy.decoders.unionfind.algos&#45;&gt;flamingpy.decoders.unionfind.uf_classes -->
<g id="edge30" class="edge">
<title>flamingpy.decoders.unionfind.algos&#45;&gt;flamingpy.decoders.unionfind.uf_classes</title>
<path fill="none" stroke="black" d="M491.15,-252.3C480.32,-261.12 466.99,-271.97 455.25,-281.53"/>
<polygon fill="black" stroke="black" points="447.42,-287.9 452.34,-278.09 451.3,-284.74 455.18,-281.58 455.18,-281.58 455.18,-281.58 451.3,-284.74 458.02,-285.07 447.42,-287.9 447.42,-287.9"/>
</g>
<!-- flamingpy.decoders.unionfind.algos&#45;&gt;flamingpy.utils.viz -->
<g id="edge31" class="edge">
<title>flamingpy.decoders.unionfind.algos&#45;&gt;flamingpy.utils.viz</title>
<path fill="none" stroke="black" d="M525.85,-252.26C544.32,-275.52 577.11,-315.05 593.41,-324 633.05,-345.75 752.09,-361.75 829.48,-370.2"/>
<polygon fill="black" stroke="black" points="839.64,-371.29 829.22,-374.7 834.67,-370.76 829.7,-370.22 829.7,-370.22 829.7,-370.22 834.67,-370.76 830.18,-365.75 839.64,-371.29 839.64,-371.29"/>
</g>
<!-- flamingpy.noise -->
<g id="node22" class="node">
<title>flamingpy.noise</title>
<polygon fill="#bde0ff" stroke="#bde0ff" points="1468.41,-36 1364.41,-36 1364.41,0 1468.41,0 1468.41,-36"/>
<text text-anchor="middle" x="1416.41" y="-14.3" font-family="Helvetica,sans-serif" font-size="12.00">flamingpy.noise</text>
</g>
<!-- flamingpy.noise.iid -->
<g id="node23" class="node">
<title>flamingpy.noise.iid</title>
<polygon fill="#bde0ff" stroke="#bde0ff" points="1477.41,-108 1355.41,-108 1355.41,-72 1477.41,-72 1477.41,-108"/>
<text text-anchor="middle" x="1416.41" y="-86.3" font-family="Helvetica,sans-serif" font-size="12.00">flamingpy.noise.iid</text>
</g>
<!-- flamingpy.noise&#45;&gt;flamingpy.noise.iid -->
<g id="edge32" class="edge">
<title>flamingpy.noise&#45;&gt;flamingpy.noise.iid</title>
<path fill="none" stroke="black" d="M1416.41,-36.3C1416.41,-44.02 1416.41,-53.29 1416.41,-61.89"/>
<polygon fill="black" stroke="black" points="1416.41,-71.9 1411.91,-61.9 1416.41,-66.9 1416.41,-61.9 1416.41,-61.9 1416.41,-61.9 1416.41,-66.9 1420.91,-61.9 1416.41,-71.9 1416.41,-71.9"/>
</g>
<!-- flamingpy.simulations -->
<g id="node24" class="node">
<title>flamingpy.simulations</title>
<polygon fill="#bde0ff" stroke="#bde0ff" points="1273.91,-36 1134.91,-36 1134.91,0 1273.91,0 1273.91,-36"/>
<text text-anchor="middle" x="1204.41" y="-14.3" font-family="Helvetica,sans-serif" font-size="12.00">flamingpy.simulations</text>
</g>
<!-- flamingpy.simulations&#45;&gt;flamingpy.codes -->
<g id="edge33" class="edge">
<title>flamingpy.simulations&#45;&gt;flamingpy.codes</title>
<path fill="none" stroke="black" d="M1186.61,-36.3C1177.81,-44.86 1167.03,-55.34 1157.41,-64.7"/>
<polygon fill="black" stroke="black" points="1150,-71.9 1154.04,-61.7 1153.59,-68.41 1157.17,-64.92 1157.17,-64.92 1157.17,-64.92 1153.59,-68.41 1160.31,-68.15 1150,-71.9 1150,-71.9"/>
</g>
<!-- flamingpy.simulations&#45;&gt;flamingpy.cv.macro_reduce -->
<g id="edge34" class="edge">
<title>flamingpy.simulations&#45;&gt;flamingpy.cv.macro_reduce</title>
<path fill="none" stroke="black" d="M1223.27,-36.27C1248.32,-61.18 1289.41,-109.86 1289.41,-161 1289.41,-161 1289.41,-161 1289.41,-235 1289.41,-276.89 1286.81,-293.21 1258.41,-324 1245.71,-337.77 1228.78,-348.17 1211.65,-355.93"/>
<polygon fill="black" stroke="black" points="1202.14,-359.98 1209.58,-351.92 1206.74,-358.02 1211.34,-356.06 1211.34,-356.06 1211.34,-356.06 1206.74,-358.02 1213.1,-360.2 1202.14,-359.98 1202.14,-359.98"/>
</g>
<!-- flamingpy.simulations&#45;&gt;flamingpy.cv.ops -->
<g id="edge35" class="edge">
<title>flamingpy.simulations&#45;&gt;flamingpy.cv.ops</title>
<path fill="none" stroke="black" d="M1234.5,-36.11C1270.91,-59.3 1327.41,-104.41 1327.41,-161 1327.41,-161 1327.41,-161 1327.41,-379 1327.41,-478.8 1187.46,-508.47 1101.67,-517.28"/>
<polygon fill="black" stroke="black" points="1091.49,-518.26 1101.01,-512.83 1096.46,-517.78 1101.44,-517.31 1101.44,-517.31 1101.44,-517.31 1096.46,-517.78 1101.87,-521.79 1091.49,-518.26 1091.49,-518.26"/>
</g>
<!-- flamingpy.simulations&#45;&gt;flamingpy.decoders.decoder -->
<g id="edge36" class="edge">
<title>flamingpy.simulations&#45;&gt;flamingpy.decoders.decoder</title>
<path fill="none" stroke="black" d="M1134.83,-25C989.42,-37.53 653.15,-66.52 487.76,-80.78"/>
<polygon fill="black" stroke="black" points="477.6,-81.66 487.18,-76.31 482.58,-81.23 487.57,-80.8 487.57,-80.8 487.57,-80.8 482.58,-81.23 487.95,-85.28 477.6,-81.66 477.6,-81.66"/>
</g>
<!-- flamingpy.utils -->
<g id="node25" class="node">
<title>flamingpy.utils</title>
<polygon fill="#bde0ff" stroke="#bde0ff" points="1585.91,-36 1486.91,-36 1486.91,0 1585.91,0 1585.91,-36"/>
<text text-anchor="middle" x="1536.41" y="-14.3" font-family="Helvetica,sans-serif" font-size="12.00">flamingpy.utils</text>
</g>
<!-- flamingpy.utils.viz&#45;&gt;flamingpy.codes -->
<g id="edge37" class="edge">
<title>flamingpy.utils.viz&#45;&gt;flamingpy.codes</title>
<path fill="none" stroke="black" d="M959.07,-369.49C1052.23,-357.48 1222.59,-334.27 1231.41,-324 1315.5,-226.12 1253.79,-179.53 1232.41,-144 1223.81,-129.71 1209.92,-119.07 1195.19,-111.23"/>
<polygon fill="black" stroke="black" points="1185.95,-106.7 1196.91,-107.06 1190.44,-108.9 1194.93,-111.1 1194.93,-111.1 1194.93,-111.1 1190.44,-108.9 1192.95,-115.14 1185.95,-106.7 1185.95,-106.7"/>
</g>
<!-- flamingpy.utils.viz&#45;&gt;flamingpy.cv -->
<g id="edge38" class="edge">
<title>flamingpy.utils.viz&#45;&gt;flamingpy.cv</title>
<path fill="none" stroke="black" d="M908.31,-396.3C912.41,-404.27 917.36,-413.9 921.9,-422.74"/>
<polygon fill="black" stroke="black" points="926.61,-431.9 918.04,-425.06 924.33,-427.45 922.04,-423 922.04,-423 922.04,-423 924.33,-427.45 926.04,-420.94 926.61,-431.9 926.61,-431.9"/>
</g>
<!-- flamingpy.utils.viz&#45;&gt;flamingpy.cv.gkp -->
<g id="edge39" class="edge">
<title>flamingpy.utils.viz&#45;&gt;flamingpy.cv.gkp</title>
<path fill="none" stroke="black" d="M937.33,-396.12C958.42,-405.65 984.87,-417.59 1007.28,-427.72"/>
<polygon fill="black" stroke="black" points="1016.62,-431.93 1005.65,-431.92 1012.06,-429.87 1007.5,-427.82 1007.5,-427.82 1007.5,-427.82 1012.06,-429.87 1009.36,-423.71 1016.62,-431.93 1016.62,-431.93"/>
</g>
</g>
</svg>
