<?xml version="1.0" encoding="UTF-8" standalone="no"?>
<!DOCTYPE svg PUBLIC "-//W3C//DTD SVG 1.1//EN"
 "http://www.w3.org/Graphics/SVG/1.1/DTD/svg11.dtd">
<!-- Generated by graphviz version 3.0.0 (20220226.1711)
 -->
<!-- Title: packages_flamingpy Pages: 1 -->
<svg width="1594pt" height="548pt"
 viewBox="0.00 0.00 1593.84 548.00" xmlns="http://www.w3.org/2000/svg" xmlns:xlink="http://www.w3.org/1999/xlink">
<g id="graph0" class="graph" transform="scale(1 1) rotate(0) translate(4 544)">
<title>packages_flamingpy</title>
<polygon fill="white" stroke="transparent" points="-4,4 -4,-544 1589.84,-544 1589.84,4 -4,4"/>
<!-- flamingpy -->
<g id="node1" class="node">
<title>flamingpy</title>
<polygon fill="#bde0ff" stroke="#bde0ff" points="208.84,-36 135.84,-36 135.84,0 208.84,0 208.84,-36"/>
<text text-anchor="middle" x="172.34" y="-14.3" font-family="Helvetica,sans-serif" font-size="12.00">flamingpy</text>
</g>
<!-- flamingpy._version -->
<g id="node2" class="node">
<title>flamingpy._version</title>
<polygon fill="#bde0ff" stroke="#bde0ff" points="233.34,-108 111.34,-108 111.34,-72 233.34,-72 233.34,-108"/>
<text text-anchor="middle" x="172.34" y="-86.3" font-family="Helvetica,sans-serif" font-size="12.00">flamingpy._version</text>
</g>
<!-- flamingpy&#45;&gt;flamingpy._version -->
<g id="edge1" class="edge">
<title>flamingpy&#45;&gt;flamingpy._version</title>
<path fill="none" stroke="black" d="M172.34,-36.3C172.34,-44.02 172.34,-53.29 172.34,-61.89"/>
<polygon fill="black" stroke="black" points="172.34,-71.9 167.84,-61.9 172.34,-66.9 172.34,-61.9 172.34,-61.9 172.34,-61.9 172.34,-66.9 176.84,-61.9 172.34,-71.9 172.34,-71.9"/>
</g>
<!-- flamingpy.codes -->
<g id="node3" class="node">
<title>flamingpy.codes</title>
<polygon fill="#bde0ff" stroke="#bde0ff" points="997.84,-108 890.84,-108 890.84,-72 997.84,-72 997.84,-108"/>
<text text-anchor="middle" x="944.34" y="-86.3" font-family="Helvetica,sans-serif" font-size="12.00">flamingpy.codes</text>
</g>
<!-- flamingpy.codes.graphs -->
<g id="node4" class="node">
<title>flamingpy.codes.graphs</title>
<polygon fill="#bde0ff" stroke="#bde0ff" points="1017.34,-252 871.34,-252 871.34,-216 1017.34,-216 1017.34,-252"/>
<text text-anchor="middle" x="944.34" y="-230.3" font-family="Helvetica,sans-serif" font-size="12.00">flamingpy.codes.graphs</text>
</g>
<!-- flamingpy.codes&#45;&gt;flamingpy.codes.graphs -->
<g id="edge2" class="edge">
<title>flamingpy.codes&#45;&gt;flamingpy.codes.graphs</title>
<path fill="none" stroke="black" d="M890.79,-106.7C872.82,-114.81 854.72,-126.74 844.34,-144 836.09,-157.71 836.09,-166.29 844.34,-180 852.4,-193.4 865.11,-203.58 878.8,-211.27"/>
<polygon fill="black" stroke="black" points="887.9,-215.96 876.95,-215.37 883.46,-213.67 879.01,-211.38 879.01,-211.38 879.01,-211.38 883.46,-213.67 881.08,-207.38 887.9,-215.96 887.9,-215.96"/>
</g>
<!-- flamingpy.codes.stabilizer -->
<g id="node7" class="node">
<title>flamingpy.codes.stabilizer</title>
<polygon fill="#bde0ff" stroke="#bde0ff" points="762.34,-324 602.34,-324 602.34,-288 762.34,-288 762.34,-324"/>
<text text-anchor="middle" x="682.34" y="-302.3" font-family="Helvetica,sans-serif" font-size="12.00">flamingpy.codes.stabilizer</text>
</g>
<!-- flamingpy.codes&#45;&gt;flamingpy.codes.stabilizer -->
<g id="edge3" class="edge">
<title>flamingpy.codes&#45;&gt;flamingpy.codes.stabilizer</title>
<path fill="none" stroke="black" d="M899.7,-108.07C878.84,-117.13 854.27,-129.42 834.34,-144 779.56,-184.07 728.05,-245.44 701.35,-279.68"/>
<polygon fill="black" stroke="black" points="695.11,-287.77 697.65,-277.1 698.16,-283.81 701.21,-279.85 701.21,-279.85 701.21,-279.85 698.16,-283.81 704.78,-282.6 695.11,-287.77 695.11,-287.77"/>
</g>
<!-- flamingpy.codes.surface_code -->
<g id="node8" class="node">
<title>flamingpy.codes.surface_code</title>
<polygon fill="#bde0ff" stroke="#bde0ff" points="1035.34,-180 853.34,-180 853.34,-144 1035.34,-144 1035.34,-180"/>
<text text-anchor="middle" x="944.34" y="-158.3" font-family="Helvetica,sans-serif" font-size="12.00">flamingpy.codes.surface_code</text>
</g>
<!-- flamingpy.codes&#45;&gt;flamingpy.codes.surface_code -->
<g id="edge4" class="edge">
<title>flamingpy.codes&#45;&gt;flamingpy.codes.surface_code</title>
<path fill="none" stroke="black" d="M938.42,-108.3C937.62,-116.02 937.4,-125.29 937.74,-133.89"/>
<polygon fill="black" stroke="black" points="938.44,-143.9 933.25,-134.23 938.09,-138.91 937.74,-133.92 937.74,-133.92 937.74,-133.92 938.09,-138.91 942.23,-133.61 938.44,-143.9 938.44,-143.9"/>
</g>
<!-- flamingpy.codes.graphs.egraph -->
<g id="node5" class="node">
<title>flamingpy.codes.graphs.egraph</title>
<polygon fill="#bde0ff" stroke="#bde0ff" points="967.84,-324 780.84,-324 780.84,-288 967.84,-288 967.84,-324"/>
<text text-anchor="middle" x="874.34" y="-302.3" font-family="Helvetica,sans-serif" font-size="12.00">flamingpy.codes.graphs.egraph</text>
</g>
<!-- flamingpy.codes.graphs&#45;&gt;flamingpy.codes.graphs.egraph -->
<g id="edge5" class="edge">
<title>flamingpy.codes.graphs&#45;&gt;flamingpy.codes.graphs.egraph</title>
<path fill="none" stroke="black" d="M927.03,-252.3C918.47,-260.86 907.99,-271.34 898.64,-280.7"/>
<polygon fill="black" stroke="black" points="891.44,-287.9 895.33,-277.64 894.98,-284.36 898.51,-280.82 898.51,-280.82 898.51,-280.82 894.98,-284.36 901.69,-284.01 891.44,-287.9 891.44,-287.9"/>
</g>
<!-- flamingpy.codes.graphs.stabilizer_graph -->
<g id="node6" class="node">
<title>flamingpy.codes.graphs.stabilizer_graph</title>
<polygon fill="#bde0ff" stroke="#bde0ff" points="1222.84,-324 985.84,-324 985.84,-288 1222.84,-288 1222.84,-324"/>
<text text-anchor="middle" x="1104.34" y="-302.3" font-family="Helvetica,sans-serif" font-size="12.00">flamingpy.codes.graphs.stabilizer_graph</text>
</g>
<!-- flamingpy.codes.graphs&#45;&gt;flamingpy.codes.graphs.stabilizer_graph -->
<g id="edge6" class="edge">
<title>flamingpy.codes.graphs&#45;&gt;flamingpy.codes.graphs.stabilizer_graph</title>
<path fill="none" stroke="black" d="M983.48,-252.12C1005.35,-261.69 1032.79,-273.7 1056,-283.85"/>
<polygon fill="black" stroke="black" points="1065.32,-287.93 1054.36,-288.05 1060.74,-285.93 1056.16,-283.92 1056.16,-283.92 1056.16,-283.92 1060.74,-285.93 1057.97,-279.8 1065.32,-287.93 1065.32,-287.93"/>
</g>
<!-- flamingpy.utils.viz -->
<g id="node27" class="node">
<title>flamingpy.utils.viz</title>
<polygon fill="#bde0ff" stroke="#bde0ff" points="933.84,-396 814.84,-396 814.84,-360 933.84,-360 933.84,-396"/>
<text text-anchor="middle" x="874.34" y="-374.3" font-family="Helvetica,sans-serif" font-size="12.00">flamingpy.utils.viz</text>
</g>
<!-- flamingpy.codes.graphs.egraph&#45;&gt;flamingpy.utils.viz -->
<g id="edge7" class="edge">
<title>flamingpy.codes.graphs.egraph&#45;&gt;flamingpy.utils.viz</title>
<path fill="none" stroke="black" d="M874.34,-324.3C874.34,-332.02 874.34,-341.29 874.34,-349.89"/>
<polygon fill="black" stroke="black" points="874.34,-359.9 869.84,-349.9 874.34,-354.9 874.34,-349.9 874.34,-349.9 874.34,-349.9 874.34,-354.9 878.84,-349.9 874.34,-359.9 874.34,-359.9"/>
</g>
<!-- flamingpy.codes.graphs.stabilizer_graph&#45;&gt;flamingpy.utils.viz -->
<g id="edge8" class="edge">
<title>flamingpy.codes.graphs.stabilizer_graph&#45;&gt;flamingpy.utils.viz</title>
<path fill="none" stroke="black" d="M1048.37,-324.03C1015.81,-333.94 974.6,-346.49 940.45,-356.88"/>
<polygon fill="black" stroke="black" points="930.56,-359.89 938.81,-352.67 935.34,-358.43 940.12,-356.98 940.12,-356.98 940.12,-356.98 935.34,-358.43 941.43,-361.28 930.56,-359.89 930.56,-359.89"/>
</g>
<!-- flamingpy.codes.surface_code&#45;&gt;flamingpy.codes -->
<g id="edge9" class="edge">
<title>flamingpy.codes.surface_code&#45;&gt;flamingpy.codes</title>
<path fill="none" stroke="black" d="M950.23,-143.9C951.04,-136.21 951.27,-126.95 950.94,-118.33"/>
<polygon fill="black" stroke="black" points="950.25,-108.3 955.43,-117.97 950.59,-113.29 950.94,-118.28 950.94,-118.28 950.94,-118.28 950.59,-113.29 946.45,-118.59 950.25,-108.3 950.25,-108.3"/>
</g>
<!-- flamingpy.codes.surface_code&#45;&gt;flamingpy.codes.graphs -->
<g id="edge10" class="edge">
<title>flamingpy.codes.surface_code&#45;&gt;flamingpy.codes.graphs</title>
<path fill="none" stroke="black" d="M944.34,-180.3C944.34,-188.02 944.34,-197.29 944.34,-205.89"/>
<polygon fill="black" stroke="black" points="944.34,-215.9 939.84,-205.9 944.34,-210.9 944.34,-205.9 944.34,-205.9 944.34,-205.9 944.34,-210.9 948.84,-205.9 944.34,-215.9 944.34,-215.9"/>
</g>
<!-- flamingpy.cv -->
<g id="node9" class="node">
<title>flamingpy.cv</title>
<polygon fill="#bde0ff" stroke="#bde0ff" points="1041.84,-468 952.84,-468 952.84,-432 1041.84,-432 1041.84,-468"/>
<text text-anchor="middle" x="997.34" y="-446.3" font-family="Helvetica,sans-serif" font-size="12.00">flamingpy.cv</text>
</g>
<!-- flamingpy.cv.ops -->
<g id="node12" class="node">
<title>flamingpy.cv.ops</title>
<polygon fill="#bde0ff" stroke="#bde0ff" points="1088.34,-540 978.34,-540 978.34,-504 1088.34,-504 1088.34,-540"/>
<text text-anchor="middle" x="1033.34" y="-518.3" font-family="Helvetica,sans-serif" font-size="12.00">flamingpy.cv.ops</text>
</g>
<!-- flamingpy.cv&#45;&gt;flamingpy.cv.ops -->
<g id="edge11" class="edge">
<title>flamingpy.cv&#45;&gt;flamingpy.cv.ops</title>
<path fill="none" stroke="black" d="M1006.24,-468.3C1010.33,-476.27 1015.29,-485.9 1019.83,-494.74"/>
<polygon fill="black" stroke="black" points="1024.54,-503.9 1015.96,-497.06 1022.25,-499.45 1019.97,-495 1019.97,-495 1019.97,-495 1022.25,-499.45 1023.97,-492.94 1024.54,-503.9 1024.54,-503.9"/>
</g>
<!-- flamingpy.cv.gkp -->
<g id="node10" class="node">
<title>flamingpy.cv.gkp</title>
<polygon fill="#bde0ff" stroke="#bde0ff" points="896.34,-468 784.34,-468 784.34,-432 896.34,-432 896.34,-468"/>
<text text-anchor="middle" x="840.34" y="-446.3" font-family="Helvetica,sans-serif" font-size="12.00">flamingpy.cv.gkp</text>
</g>
<!-- flamingpy.cv.macro_reduce -->
<g id="node11" class="node">
<title>flamingpy.cv.macro_reduce</title>
<polygon fill="#bde0ff" stroke="#bde0ff" points="1154.84,-396 985.84,-396 985.84,-360 1154.84,-360 1154.84,-396"/>
<text text-anchor="middle" x="1070.34" y="-374.3" font-family="Helvetica,sans-serif" font-size="12.00">flamingpy.cv.macro_reduce</text>
</g>
<!-- flamingpy.cv.macro_reduce&#45;&gt;flamingpy.cv.gkp -->
<g id="edge12" class="edge">
<title>flamingpy.cv.macro_reduce&#45;&gt;flamingpy.cv.gkp</title>
<path fill="none" stroke="black" d="M1014.37,-396.03C981.81,-405.94 940.6,-418.49 906.45,-428.88"/>
<polygon fill="black" stroke="black" points="896.56,-431.89 904.81,-424.67 901.34,-430.43 906.12,-428.98 906.12,-428.98 906.12,-428.98 901.34,-430.43 907.43,-433.28 896.56,-431.89 896.56,-431.89"/>
</g>
<!-- flamingpy.cv.macro_reduce&#45;&gt;flamingpy.cv.ops -->
<g id="edge13" class="edge">
<title>flamingpy.cv.macro_reduce&#45;&gt;flamingpy.cv.ops</title>
<path fill="none" stroke="black" d="M1066.95,-396.17C1063.29,-414.18 1057.07,-443.24 1050.34,-468 1047.99,-476.62 1045.12,-485.92 1042.42,-494.29"/>
<polygon fill="black" stroke="black" points="1039.24,-503.93 1038.1,-493.02 1040.8,-499.18 1042.37,-494.43 1042.37,-494.43 1042.37,-494.43 1040.8,-499.18 1046.64,-495.84 1039.24,-503.93 1039.24,-503.93"/>
</g>
<!-- flamingpy.cv.ops&#45;&gt;flamingpy.utils.viz -->
<g id="edge14" class="edge">
<title>flamingpy.cv.ops&#45;&gt;flamingpy.utils.viz</title>
<path fill="none" stroke="black" d="M997.51,-503.96C980.12,-494.71 959.53,-482.26 943.34,-468 922.31,-449.49 903.2,-423.81 890.45,-404.79"/>
<polygon fill="black" stroke="black" points="884.89,-396.31 894.14,-402.21 887.63,-400.5 890.37,-404.68 890.37,-404.68 890.37,-404.68 887.63,-400.5 886.61,-407.15 884.89,-396.31 884.89,-396.31"/>
</g>
<!-- flamingpy.decoders -->
<g id="node13" class="node">
<title>flamingpy.decoders</title>
<polygon fill="#bde0ff" stroke="#bde0ff" points="516.34,-36 392.34,-36 392.34,0 516.34,0 516.34,-36"/>
<text text-anchor="middle" x="454.34" y="-14.3" font-family="Helvetica,sans-serif" font-size="12.00">flamingpy.decoders</text>
</g>
<!-- flamingpy.decoders.decoder -->
<g id="node14" class="node">
<title>flamingpy.decoders.decoder</title>
<polygon fill="#bde0ff" stroke="#bde0ff" points="421.34,-108 251.34,-108 251.34,-72 421.34,-72 421.34,-108"/>
<text text-anchor="middle" x="336.34" y="-86.3" font-family="Helvetica,sans-serif" font-size="12.00">flamingpy.decoders.decoder</text>
</g>
<!-- flamingpy.decoders&#45;&gt;flamingpy.decoders.decoder -->
<g id="edge15" class="edge">
<title>flamingpy.decoders&#45;&gt;flamingpy.decoders.decoder</title>
<path fill="none" stroke="black" d="M425.47,-36.12C410.04,-45.28 390.86,-56.66 374.24,-66.52"/>
<polygon fill="black" stroke="black" points="365.31,-71.81 371.62,-62.84 369.61,-69.26 373.91,-66.71 373.91,-66.71 373.91,-66.71 369.61,-69.26 376.21,-70.58 365.31,-71.81 365.31,-71.81"/>
</g>
<!-- flamingpy.decoders.mwpm.algos -->
<g id="node16" class="node">
<title>flamingpy.decoders.mwpm.algos</title>
<polygon fill="#bde0ff" stroke="#bde0ff" points="375.84,-252 176.84,-252 176.84,-216 375.84,-216 375.84,-252"/>
<text text-anchor="middle" x="276.34" y="-230.3" font-family="Helvetica,sans-serif" font-size="12.00">flamingpy.decoders.mwpm.algos</text>
</g>
<!-- flamingpy.decoders&#45;&gt;flamingpy.decoders.mwpm.algos -->
<g id="edge16" class="edge">
<title>flamingpy.decoders&#45;&gt;flamingpy.decoders.mwpm.algos</title>
<path fill="none" stroke="black" d="M457.76,-36.3C463.08,-68.48 469.45,-138.09 435.34,-180 422.39,-195.9 404.53,-207.06 385.43,-214.89"/>
<polygon fill="black" stroke="black" points="375.97,-218.47 383.73,-210.72 380.65,-216.7 385.32,-214.93 385.32,-214.93 385.32,-214.93 380.65,-216.7 386.92,-219.14 375.97,-218.47 375.97,-218.47"/>
</g>
<!-- flamingpy.decoders.unionfind.algos -->
<g id="node20" class="node">
<title>flamingpy.decoders.unionfind.algos</title>
<polygon fill="#bde0ff" stroke="#bde0ff" points="606.34,-252 394.34,-252 394.34,-216 606.34,-216 606.34,-252"/>
<text text-anchor="middle" x="500.34" y="-230.3" font-family="Helvetica,sans-serif" font-size="12.00">flamingpy.decoders.unionfind.algos</text>
</g>
<!-- flamingpy.decoders&#45;&gt;flamingpy.decoders.unionfind.algos -->
<g id="edge17" class="edge">
<title>flamingpy.decoders&#45;&gt;flamingpy.decoders.unionfind.algos</title>
<path fill="none" stroke="black" d="M459.15,-36.12C461.98,-46.47 465.55,-59.95 468.34,-72 479.12,-118.65 489.53,-173.41 495.42,-205.55"/>
<polygon fill="black" stroke="black" points="497.23,-215.53 491.02,-206.5 496.34,-210.61 495.44,-205.69 495.44,-205.69 495.44,-205.69 496.34,-210.61 499.87,-204.89 497.23,-215.53 497.23,-215.53"/>
</g>
<!-- flamingpy.decoders.decoder&#45;&gt;flamingpy.cv.gkp -->
<g id="edge18" class="edge">
<title>flamingpy.decoders.decoder&#45;&gt;flamingpy.cv.gkp</title>
<path fill="none" stroke="black" d="M251.12,-106.46C166.57,-121.83 49.39,-143.24 48.34,-144 12,-170.44 0.34,-188.06 0.34,-233 0.34,-233 0.34,-233 0.34,-307 0.34,-348.34 -5.05,-370.31 27.34,-396 85.25,-441.94 590.71,-448.19 774.17,-448.94"/>
<polygon fill="black" stroke="black" points="784.22,-448.98 774.21,-453.44 779.22,-448.96 774.22,-448.94 774.22,-448.94 774.22,-448.94 779.22,-448.96 774.24,-444.44 784.22,-448.98 784.22,-448.98"/>
</g>
<!-- flamingpy.decoders.mwpm -->
<g id="node15" class="node">
<title>flamingpy.decoders.mwpm</title>
<polygon fill="#bde0ff" stroke="#bde0ff" points="224.84,-180 57.84,-180 57.84,-144 224.84,-144 224.84,-180"/>
<text text-anchor="middle" x="141.34" y="-158.3" font-family="Helvetica,sans-serif" font-size="12.00">flamingpy.decoders.mwpm</text>
</g>
<!-- flamingpy.decoders.decoder&#45;&gt;flamingpy.decoders.mwpm -->
<g id="edge19" class="edge">
<title>flamingpy.decoders.decoder&#45;&gt;flamingpy.decoders.mwpm</title>
<path fill="none" stroke="black" d="M288.63,-108.12C261.38,-117.91 227.04,-130.23 198.37,-140.53"/>
<polygon fill="black" stroke="black" points="188.88,-143.93 196.78,-136.32 193.59,-142.24 198.3,-140.55 198.3,-140.55 198.3,-140.55 193.59,-142.24 199.82,-144.79 188.88,-143.93 188.88,-143.93"/>
</g>
<!-- flamingpy.decoders.unionfind -->
<g id="node19" class="node">
<title>flamingpy.decoders.unionfind</title>
<polygon fill="#bde0ff" stroke="#bde0ff" points="426.34,-180 246.34,-180 246.34,-144 426.34,-144 426.34,-180"/>
<text text-anchor="middle" x="336.34" y="-158.3" font-family="Helvetica,sans-serif" font-size="12.00">flamingpy.decoders.unionfind</text>
</g>
<!-- flamingpy.decoders.decoder&#45;&gt;flamingpy.decoders.unionfind -->
<g id="edge20" class="edge">
<title>flamingpy.decoders.decoder&#45;&gt;flamingpy.decoders.unionfind</title>
<path fill="none" stroke="black" d="M336.34,-108.3C336.34,-116.02 336.34,-125.29 336.34,-133.89"/>
<polygon fill="black" stroke="black" points="336.34,-143.9 331.84,-133.9 336.34,-138.9 336.34,-133.9 336.34,-133.9 336.34,-133.9 336.34,-138.9 340.84,-133.9 336.34,-143.9 336.34,-143.9"/>
</g>
<!-- flamingpy.decoders.mwpm&#45;&gt;flamingpy.decoders.mwpm.algos -->
<g id="edge21" class="edge">
<title>flamingpy.decoders.mwpm&#45;&gt;flamingpy.decoders.mwpm.algos</title>
<path fill="none" stroke="black" d="M174.36,-180.12C192.42,-189.49 214.98,-201.19 234.29,-211.2"/>
<polygon fill="black" stroke="black" points="243.18,-215.81 232.24,-215.2 238.75,-213.51 234.31,-211.21 234.31,-211.21 234.31,-211.21 238.75,-213.51 236.38,-207.21 243.18,-215.81 243.18,-215.81"/>
</g>
<!-- flamingpy.decoders.mwpm.matching -->
<g id="node18" class="node">
<title>flamingpy.decoders.mwpm.matching</title>
<polygon fill="#bde0ff" stroke="#bde0ff" points="249.84,-324 28.84,-324 28.84,-288 249.84,-288 249.84,-324"/>
<text text-anchor="middle" x="139.34" y="-302.3" font-family="Helvetica,sans-serif" font-size="12.00">flamingpy.decoders.mwpm.matching</text>
</g>
<!-- flamingpy.decoders.mwpm&#45;&gt;flamingpy.decoders.mwpm.matching -->
<g id="edge22" class="edge">
<title>flamingpy.decoders.mwpm&#45;&gt;flamingpy.decoders.mwpm.matching</title>
<path fill="none" stroke="black" d="M136.51,-180.13C133.61,-204.33 132.69,-248.79 134.26,-277.61"/>
<polygon fill="black" stroke="black" points="134.99,-287.81 129.79,-278.15 134.63,-282.82 134.28,-277.84 134.28,-277.84 134.28,-277.84 134.63,-282.82 138.77,-277.52 134.99,-287.81 134.99,-287.81"/>
</g>
<!-- flamingpy.decoders.mwpm.algos&#45;&gt;flamingpy.decoders.mwpm.matching -->
<g id="edge23" class="edge">
<title>flamingpy.decoders.mwpm.algos&#45;&gt;flamingpy.decoders.mwpm.matching</title>
<path fill="none" stroke="black" d="M242.82,-252.12C224.5,-261.49 201.6,-273.19 182.01,-283.2"/>
<polygon fill="black" stroke="black" points="172.98,-287.81 179.84,-279.25 177.43,-285.54 181.88,-283.26 181.88,-283.26 181.88,-283.26 177.43,-285.54 183.93,-287.27 172.98,-287.81 172.98,-287.81"/>
</g>
<!-- flamingpy.decoders.mwpm.algos&#45;&gt;flamingpy.utils.viz -->
<g id="edge24" class="edge">
<title>flamingpy.decoders.mwpm.algos&#45;&gt;flamingpy.utils.viz</title>
<path fill="none" stroke="black" d="M274.97,-252.03C274.36,-272.47 276.84,-306.19 297.34,-324 334.92,-356.66 659.53,-370.5 804.69,-375.1"/>
<polygon fill="black" stroke="black" points="814.82,-375.42 804.69,-379.6 809.83,-375.26 804.83,-375.1 804.83,-375.1 804.83,-375.1 809.83,-375.26 804.97,-370.61 814.82,-375.42 814.82,-375.42"/>
</g>
<!-- flamingpy.decoders.mwpm.lemon -->
<g id="node17" class="node">
<title>flamingpy.decoders.mwpm.lemon</title>
<polygon fill="#bde0ff" stroke="#bde0ff" points="241.84,-396 36.84,-396 36.84,-360 241.84,-360 241.84,-396"/>
<text text-anchor="middle" x="139.34" y="-374.3" font-family="Helvetica,sans-serif" font-size="12.00">flamingpy.decoders.mwpm.lemon</text>
</g>
<!-- flamingpy.decoders.mwpm.matching&#45;&gt;flamingpy.decoders.mwpm -->
<g id="edge25" class="edge">
<title>flamingpy.decoders.mwpm.matching&#45;&gt;flamingpy.decoders.mwpm</title>
<path fill="none" stroke="black" d="M144.17,-287.81C147.07,-263.58 147.98,-219.11 146.41,-190.32"/>
<polygon fill="black" stroke="black" points="145.68,-180.13 150.88,-189.78 146.03,-185.12 146.39,-190.1 146.39,-190.1 146.39,-190.1 146.03,-185.12 141.9,-190.42 145.68,-180.13 145.68,-180.13"/>
</g>
<!-- flamingpy.decoders.mwpm.matching&#45;&gt;flamingpy.decoders.mwpm.lemon -->
<g id="edge26" class="edge">
<title>flamingpy.decoders.mwpm.matching&#45;&gt;flamingpy.decoders.mwpm.lemon</title>
<path fill="none" stroke="black" d="M139.34,-324.3C139.34,-332.02 139.34,-341.29 139.34,-349.89"/>
<polygon fill="black" stroke="black" points="139.34,-359.9 134.84,-349.9 139.34,-354.9 139.34,-349.9 139.34,-349.9 139.34,-349.9 139.34,-354.9 143.84,-349.9 139.34,-359.9 139.34,-359.9"/>
</g>
<!-- flamingpy.decoders.mwpm.matching&#45;&gt;flamingpy.utils.viz -->
<g id="edge27" class="edge">
<title>flamingpy.decoders.mwpm.matching&#45;&gt;flamingpy.utils.viz</title>
<path fill="none" stroke="black" d="M250.06,-322.35C254.88,-322.93 259.66,-323.48 264.34,-324 459.5,-345.74 690.64,-363.7 804.21,-372.02"/>
<polygon fill="black" stroke="black" points="814.5,-372.77 804.2,-376.53 809.51,-372.41 804.52,-372.04 804.52,-372.04 804.52,-372.04 809.51,-372.41 804.85,-367.55 814.5,-372.77 814.5,-372.77"/>
</g>
<!-- flamingpy.decoders.unionfind&#45;&gt;flamingpy.decoders.unionfind.algos -->
<g id="edge28" class="edge">
<title>flamingpy.decoders.unionfind&#45;&gt;flamingpy.decoders.unionfind.algos</title>
<path fill="none" stroke="black" d="M376.46,-180.12C398.97,-189.74 427.25,-201.81 451.11,-211.99"/>
<polygon fill="black" stroke="black" points="460.35,-215.93 449.38,-216.14 455.75,-213.97 451.15,-212.01 451.15,-212.01 451.15,-212.01 455.75,-213.97 452.92,-207.87 460.35,-215.93 460.35,-215.93"/>
</g>
<!-- flamingpy.decoders.unionfind.algos&#45;&gt;flamingpy.codes.stabilizer -->
<g id="edge29" class="edge">
<title>flamingpy.decoders.unionfind.algos&#45;&gt;flamingpy.codes.stabilizer</title>
<path fill="none" stroke="black" d="M544.86,-252.12C570.07,-261.82 601.79,-274.02 628.41,-284.26"/>
<polygon fill="black" stroke="black" points="637.96,-287.93 627.01,-288.54 633.29,-286.14 628.63,-284.34 628.63,-284.34 628.63,-284.34 633.29,-286.14 630.24,-280.14 637.96,-287.93 637.96,-287.93"/>
</g>
<!-- flamingpy.decoders.unionfind.uf_classes -->
<g id="node21" class="node">
<title>flamingpy.decoders.unionfind.uf_classes</title>
<polygon fill="#bde0ff" stroke="#bde0ff" points="545.84,-324 306.84,-324 306.84,-288 545.84,-288 545.84,-324"/>
<text text-anchor="middle" x="426.34" y="-302.3" font-family="Helvetica,sans-serif" font-size="12.00">flamingpy.decoders.unionfind.uf_classes</text>
</g>
<!-- flamingpy.decoders.unionfind.algos&#45;&gt;flamingpy.decoders.unionfind.uf_classes -->
<g id="edge30" class="edge">
<title>flamingpy.decoders.unionfind.algos&#45;&gt;flamingpy.decoders.unionfind.uf_classes</title>
<path fill="none" stroke="black" d="M482.04,-252.3C472.9,-260.95 461.7,-271.55 451.74,-280.97"/>
<polygon fill="black" stroke="black" points="444.42,-287.9 448.59,-277.75 448.05,-284.46 451.68,-281.02 451.68,-281.02 451.68,-281.02 448.05,-284.46 454.78,-284.29 444.42,-287.9 444.42,-287.9"/>
</g>
<!-- flamingpy.decoders.unionfind.algos&#45;&gt;flamingpy.utils.viz -->
<g id="edge31" class="edge">
<title>flamingpy.decoders.unionfind.algos&#45;&gt;flamingpy.utils.viz</title>
<path fill="none" stroke="black" d="M517.6,-252.01C543.22,-277.19 588.79,-321.66 593.34,-324 659.91,-358.23 745.54,-370.52 804.68,-374.85"/>
<polygon fill="black" stroke="black" points="814.67,-375.52 804.39,-379.34 809.68,-375.18 804.7,-374.85 804.7,-374.85 804.7,-374.85 809.68,-375.18 805,-370.36 814.67,-375.52 814.67,-375.52"/>
</g>
<!-- flamingpy.noise -->
<g id="node22" class="node">
<title>flamingpy.noise</title>
<polygon fill="#bde0ff" stroke="#bde0ff" points="1468.34,-36 1364.34,-36 1364.34,0 1468.34,0 1468.34,-36"/>
<text text-anchor="middle" x="1416.34" y="-14.3" font-family="Helvetica,sans-serif" font-size="12.00">flamingpy.noise</text>
</g>
<!-- flamingpy.noise.iid -->
<g id="node23" class="node">
<title>flamingpy.noise.iid</title>
<polygon fill="#bde0ff" stroke="#bde0ff" points="1477.34,-108 1355.34,-108 1355.34,-72 1477.34,-72 1477.34,-108"/>
<text text-anchor="middle" x="1416.34" y="-86.3" font-family="Helvetica,sans-serif" font-size="12.00">flamingpy.noise.iid</text>
</g>
<!-- flamingpy.noise&#45;&gt;flamingpy.noise.iid -->
<g id="edge32" class="edge">
<title>flamingpy.noise&#45;&gt;flamingpy.noise.iid</title>
<path fill="none" stroke="black" d="M1416.34,-36.3C1416.34,-44.02 1416.34,-53.29 1416.34,-61.89"/>
<polygon fill="black" stroke="black" points="1416.34,-71.9 1411.84,-61.9 1416.34,-66.9 1416.34,-61.9 1416.34,-61.9 1416.34,-61.9 1416.34,-66.9 1420.84,-61.9 1416.34,-71.9 1416.34,-71.9"/>
</g>
<!-- flamingpy.simulations -->
<g id="node24" class="node">
<title>flamingpy.simulations</title>
<polygon fill="#bde0ff" stroke="#bde0ff" points="1179.84,-36 1040.84,-36 1040.84,0 1179.84,0 1179.84,-36"/>
<text text-anchor="middle" x="1110.34" y="-14.3" font-family="Helvetica,sans-serif" font-size="12.00">flamingpy.simulations</text>
</g>
<!-- flamingpy.simulations&#45;&gt;flamingpy.codes -->
<g id="edge33" class="edge">
<title>flamingpy.simulations&#45;&gt;flamingpy.codes</title>
<path fill="none" stroke="black" d="M1069.73,-36.12C1046.93,-45.74 1018.31,-57.81 994.17,-67.99"/>
<polygon fill="black" stroke="black" points="984.81,-71.93 992.28,-63.9 989.42,-69.99 994.03,-68.05 994.03,-68.05 994.03,-68.05 989.42,-69.99 995.78,-72.19 984.81,-71.93 984.81,-71.93"/>
</g>
<!-- flamingpy.simulations&#45;&gt;flamingpy.cv.macro_reduce -->
<g id="edge34" class="edge">
<title>flamingpy.simulations&#45;&gt;flamingpy.cv.macro_reduce</title>
<path fill="none" stroke="black" d="M1164.04,-36.01C1216.77,-56.45 1289.34,-96.34 1289.34,-161 1289.34,-161 1289.34,-161 1289.34,-235 1289.34,-277.34 1286.54,-295.37 1255.34,-324 1230.57,-346.72 1196.71,-359.77 1164.71,-367.24"/>
<polygon fill="black" stroke="black" points="1154.86,-369.38 1163.67,-362.86 1159.74,-368.32 1164.63,-367.26 1164.63,-367.26 1164.63,-367.26 1159.74,-368.32 1165.58,-371.66 1154.86,-369.38 1154.86,-369.38"/>
</g>
<!-- flamingpy.simulations&#45;&gt;flamingpy.cv.ops -->
<g id="edge35" class="edge">
<title>flamingpy.simulations&#45;&gt;flamingpy.cv.ops</title>
<path fill="none" stroke="black" d="M1179.89,-33.79C1243.36,-51.86 1327.34,-89.3 1327.34,-161 1327.34,-161 1327.34,-161 1327.34,-379 1327.34,-479.87 1185.27,-509.12 1098.65,-517.58"/>
<polygon fill="black" stroke="black" points="1088.64,-518.49 1098.19,-513.1 1093.62,-518.04 1098.59,-517.58 1098.59,-517.58 1098.59,-517.58 1093.62,-518.04 1099,-522.07 1088.64,-518.49 1088.64,-518.49"/>
</g>
<!-- flamingpy.simulations&#45;&gt;flamingpy.decoders.decoder -->
<g id="edge36" class="edge">
<title>flamingpy.simulations&#45;&gt;flamingpy.decoders.decoder</title>
<path fill="none" stroke="black" d="M1040.63,-25.3C901.55,-37.88 589.44,-66.11 431.6,-80.38"/>
<polygon fill="black" stroke="black" points="421.43,-81.3 430.99,-75.92 426.41,-80.85 431.39,-80.4 431.39,-80.4 431.39,-80.4 426.41,-80.85 431.8,-84.88 421.43,-81.3 421.43,-81.3"/>
</g>
<!-- flamingpy.utils -->
<g id="node25" class="node">
<title>flamingpy.utils</title>
<polygon fill="#bde0ff" stroke="#bde0ff" points="1585.84,-36 1486.84,-36 1486.84,0 1585.84,0 1585.84,-36"/>
<text text-anchor="middle" x="1536.34" y="-14.3" font-family="Helvetica,sans-serif" font-size="12.00">flamingpy.utils</text>
</g>
<!-- flamingpy.utils.graph_states -->
<g id="node26" class="node">
<title>flamingpy.utils.graph_states</title>
<polygon fill="#bde0ff" stroke="#bde0ff" points="1223.34,-180 1053.34,-180 1053.34,-144 1223.34,-144 1223.34,-180"/>
<text text-anchor="middle" x="1138.34" y="-158.3" font-family="Helvetica,sans-serif" font-size="12.00">flamingpy.utils.graph_states</text>
</g>
<!-- flamingpy.utils.graph_states&#45;&gt;flamingpy.codes.graphs -->
<g id="edge37" class="edge">
<title>flamingpy.utils.graph_states&#45;&gt;flamingpy.codes.graphs</title>
<path fill="none" stroke="black" d="M1090.88,-180.12C1063.77,-189.91 1029.6,-202.23 1001.08,-212.53"/>
<polygon fill="black" stroke="black" points="991.64,-215.93 999.52,-208.3 996.34,-214.23 1001.05,-212.54 1001.05,-212.54 1001.05,-212.54 996.34,-214.23 1002.57,-216.77 991.64,-215.93 991.64,-215.93"/>
</g>
<!-- flamingpy.utils.viz&#45;&gt;flamingpy.codes -->
<g id="edge38" class="edge">
<title>flamingpy.utils.viz&#45;&gt;flamingpy.codes</title>
<path fill="none" stroke="black" d="M933.9,-366.82C947.81,-364.51 962.59,-362.12 976.34,-360 1032.9,-351.3 1193.65,-367.07 1231.34,-324 1282.17,-265.9 1245.22,-159.48 1232.34,-144 1204.41,-110.47 1084.42,-98.07 1008.4,-93.55"/>
<polygon fill="black" stroke="black" points="997.98,-92.96 1008.22,-89.03 1002.98,-93.24 1007.97,-93.52 1007.97,-93.52 1007.97,-93.52 1002.98,-93.24 1007.72,-98.02 997.98,-92.96 997.98,-92.96"/>
</g>
<!-- flamingpy.utils.viz&#45;&gt;flamingpy.cv -->
<g id="edge39" class="edge">
<title>flamingpy.utils.viz&#45;&gt;flamingpy.cv</title>
<path fill="none" stroke="black" d="M904.43,-396.12C920.66,-405.36 940.88,-416.87 958.31,-426.79"/>
<polygon fill="black" stroke="black" points="967.13,-431.81 956.21,-430.78 962.79,-429.34 958.44,-426.86 958.44,-426.86 958.44,-426.86 962.79,-429.34 960.67,-422.95 967.13,-431.81 967.13,-431.81"/>
</g>
<!-- flamingpy.utils.viz&#45;&gt;flamingpy.cv.gkp -->
<g id="edge40" class="edge">
<title>flamingpy.utils.viz&#45;&gt;flamingpy.cv.gkp</title>
<path fill="none" stroke="black" d="M865.93,-396.3C862.06,-404.27 857.38,-413.9 853.09,-422.74"/>
<polygon fill="black" stroke="black" points="848.64,-431.9 848.97,-420.93 850.83,-427.4 853.01,-422.9 853.01,-422.9 853.01,-422.9 850.83,-427.4 857.06,-424.87 848.64,-431.9 848.64,-431.9"/>
</g>
</g>
</svg>
