<?xml version="1.0" encoding="UTF-8" standalone="no"?>
<!DOCTYPE svg PUBLIC "-//W3C//DTD SVG 1.1//EN"
 "http://www.w3.org/Graphics/SVG/1.1/DTD/svg11.dtd">
<!-- Generated by graphviz version 3.0.0 (20220226.1711)
 -->
<!-- Title: packages_flamingpy Pages: 1 -->
<svg width="1563pt" height="476pt"
 viewBox="0.00 0.00 1563.00 476.00" xmlns="http://www.w3.org/2000/svg" xmlns:xlink="http://www.w3.org/1999/xlink">
<g id="graph0" class="graph" transform="scale(1 1) rotate(0) translate(4 472)">
<title>packages_flamingpy</title>
<polygon fill="white" stroke="transparent" points="-4,4 -4,-472 1559,-472 1559,4 -4,4"/>
<!-- flamingpy -->
<g id="node1" class="node">
<title>flamingpy</title>
<polygon fill="none" stroke="black" points="237,-36 164,-36 164,0 237,0 237,-36"/>
<text text-anchor="middle" x="200.5" y="-14.3" font-family="Times,serif" font-size="14.00">flamingpy</text>
</g>
<!-- flamingpy._version -->
<g id="node2" class="node">
<title>flamingpy._version</title>
<polygon fill="none" stroke="black" points="261.5,-108 139.5,-108 139.5,-72 261.5,-72 261.5,-108"/>
<text text-anchor="middle" x="200.5" y="-86.3" font-family="Times,serif" font-size="14.00">flamingpy._version</text>
</g>
<!-- flamingpy&#45;&gt;flamingpy._version -->
<g id="edge1" class="edge">
<title>flamingpy&#45;&gt;flamingpy._version</title>
<path fill="none" stroke="black" d="M200.5,-36.3C200.5,-44.02 200.5,-53.29 200.5,-61.89"/>
<polygon fill="black" stroke="black" points="200.5,-71.9 196,-61.9 200.5,-66.9 200.5,-61.9 200.5,-61.9 200.5,-61.9 200.5,-66.9 205,-61.9 200.5,-71.9 200.5,-71.9"/>
</g>
<!-- flamingpy.codes -->
<g id="node3" class="node">
<title>flamingpy.codes</title>
<polygon fill="none" stroke="black" points="986,-108 879,-108 879,-72 986,-72 986,-108"/>
<text text-anchor="middle" x="932.5" y="-86.3" font-family="Times,serif" font-size="14.00">flamingpy.codes</text>
</g>
<!-- flamingpy.codes.stabilizer -->
<g id="node7" class="node">
<title>flamingpy.codes.stabilizer</title>
<polygon fill="none" stroke="black" points="771.5,-324 611.5,-324 611.5,-288 771.5,-288 771.5,-324"/>
<text text-anchor="middle" x="691.5" y="-302.3" font-family="Times,serif" font-size="14.00">flamingpy.codes.stabilizer</text>
</g>
<!-- flamingpy.codes&#45;&gt;flamingpy.codes.stabilizer -->
<g id="edge2" class="edge">
<title>flamingpy.codes&#45;&gt;flamingpy.codes.stabilizer</title>
<path fill="none" stroke="black" d="M878.66,-100.93C848.65,-108.64 812.08,-121.87 785.5,-144 741.8,-180.37 713.81,-242.63 700.55,-278.13"/>
<polygon fill="black" stroke="black" points="697.05,-287.81 696.22,-276.87 698.75,-283.11 700.45,-278.4 700.45,-278.4 700.45,-278.4 698.75,-283.11 704.68,-279.93 697.05,-287.81 697.05,-287.81"/>
</g>
<!-- flamingpy.codes.surface_code -->
<g id="node8" class="node">
<title>flamingpy.codes.surface_code</title>
<polygon fill="none" stroke="black" points="1023.5,-180 841.5,-180 841.5,-144 1023.5,-144 1023.5,-180"/>
<text text-anchor="middle" x="932.5" y="-158.3" font-family="Times,serif" font-size="14.00">flamingpy.codes.surface_code</text>
</g>
<!-- flamingpy.codes&#45;&gt;flamingpy.codes.surface_code -->
<g id="edge3" class="edge">
<title>flamingpy.codes&#45;&gt;flamingpy.codes.surface_code</title>
<path fill="none" stroke="black" d="M926.58,-108.3C925.79,-116.02 925.56,-125.29 925.9,-133.89"/>
<polygon fill="black" stroke="black" points="926.6,-143.9 921.42,-134.23 926.26,-138.91 925.91,-133.92 925.91,-133.92 925.91,-133.92 926.26,-138.91 930.4,-133.61 926.6,-143.9 926.6,-143.9"/>
</g>
<!-- flamingpy.codes.graphs -->
<g id="node4" class="node">
<title>flamingpy.codes.graphs</title>
<polygon fill="none" stroke="black" points="1019.5,-252 873.5,-252 873.5,-216 1019.5,-216 1019.5,-252"/>
<text text-anchor="middle" x="946.5" y="-230.3" font-family="Times,serif" font-size="14.00">flamingpy.codes.graphs</text>
</g>
<!-- flamingpy.codes.graphs.egraph -->
<g id="node5" class="node">
<title>flamingpy.codes.graphs.egraph</title>
<polygon fill="none" stroke="black" points="1270,-324 1083,-324 1083,-288 1270,-288 1270,-324"/>
<text text-anchor="middle" x="1176.5" y="-302.3" font-family="Times,serif" font-size="14.00">flamingpy.codes.graphs.egraph</text>
</g>
<!-- flamingpy.codes.graphs&#45;&gt;flamingpy.codes.graphs.egraph -->
<g id="edge4" class="edge">
<title>flamingpy.codes.graphs&#45;&gt;flamingpy.codes.graphs.egraph</title>
<path fill="none" stroke="black" d="M1002.47,-252.03C1035.03,-261.94 1076.24,-274.49 1110.39,-284.88"/>
<polygon fill="black" stroke="black" points="1120.28,-287.89 1109.4,-289.28 1115.5,-286.43 1110.71,-284.98 1110.71,-284.98 1110.71,-284.98 1115.5,-286.43 1112.02,-280.67 1120.28,-287.89 1120.28,-287.89"/>
</g>
<!-- flamingpy.codes.graphs.stabilizer_graph -->
<g id="node6" class="node">
<title>flamingpy.codes.graphs.stabilizer_graph</title>
<polygon fill="none" stroke="black" points="1065,-324 828,-324 828,-288 1065,-288 1065,-324"/>
<text text-anchor="middle" x="946.5" y="-302.3" font-family="Times,serif" font-size="14.00">flamingpy.codes.graphs.stabilizer_graph</text>
</g>
<!-- flamingpy.codes.graphs&#45;&gt;flamingpy.codes.graphs.stabilizer_graph -->
<g id="edge5" class="edge">
<title>flamingpy.codes.graphs&#45;&gt;flamingpy.codes.graphs.stabilizer_graph</title>
<path fill="none" stroke="black" d="M946.5,-252.3C946.5,-260.02 946.5,-269.29 946.5,-277.89"/>
<polygon fill="black" stroke="black" points="946.5,-287.9 942,-277.9 946.5,-282.9 946.5,-277.9 946.5,-277.9 946.5,-277.9 946.5,-282.9 951,-277.9 946.5,-287.9 946.5,-287.9"/>
</g>
<!-- flamingpy.utils.viz -->
<g id="node26" class="node">
<title>flamingpy.utils.viz</title>
<polygon fill="none" stroke="black" points="859,-396 740,-396 740,-360 859,-360 859,-396"/>
<text text-anchor="middle" x="799.5" y="-374.3" font-family="Times,serif" font-size="14.00">flamingpy.utils.viz</text>
</g>
<!-- flamingpy.codes.graphs.egraph&#45;&gt;flamingpy.utils.viz -->
<g id="edge6" class="edge">
<title>flamingpy.codes.graphs.egraph&#45;&gt;flamingpy.utils.viz</title>
<path fill="none" stroke="black" d="M1084.76,-324.03C1018.28,-336.38 929.77,-352.81 869.07,-364.08"/>
<polygon fill="black" stroke="black" points="859.2,-365.92 868.21,-359.67 864.12,-365 869.03,-364.09 869.03,-364.09 869.03,-364.09 864.12,-365 869.85,-368.51 859.2,-365.92 859.2,-365.92"/>
</g>
<!-- flamingpy.codes.graphs.stabilizer_graph&#45;&gt;flamingpy.utils.viz -->
<g id="edge7" class="edge">
<title>flamingpy.codes.graphs.stabilizer_graph&#45;&gt;flamingpy.utils.viz</title>
<path fill="none" stroke="black" d="M910.54,-324.12C890.62,-333.61 865.68,-345.49 844.48,-355.58"/>
<polygon fill="black" stroke="black" points="835.34,-359.93 842.44,-351.57 839.86,-357.78 844.37,-355.63 844.37,-355.63 844.37,-355.63 839.86,-357.78 846.31,-359.7 835.34,-359.93 835.34,-359.93"/>
</g>
<!-- flamingpy.codes.surface_code&#45;&gt;flamingpy.codes -->
<g id="edge8" class="edge">
<title>flamingpy.codes.surface_code&#45;&gt;flamingpy.codes</title>
<path fill="none" stroke="black" d="M938.4,-143.9C939.2,-136.21 939.44,-126.95 939.1,-118.33"/>
<polygon fill="black" stroke="black" points="938.42,-108.3 943.59,-117.97 938.76,-113.29 939.1,-118.28 939.1,-118.28 939.1,-118.28 938.76,-113.29 934.61,-118.59 938.42,-108.3 938.42,-108.3"/>
</g>
<!-- flamingpy.codes.surface_code&#45;&gt;flamingpy.codes.graphs -->
<g id="edge9" class="edge">
<title>flamingpy.codes.surface_code&#45;&gt;flamingpy.codes.graphs</title>
<path fill="none" stroke="black" d="M935.96,-180.3C937.5,-188.02 939.36,-197.29 941.08,-205.89"/>
<polygon fill="black" stroke="black" points="943.08,-215.9 936.71,-206.97 942.1,-210.99 941.12,-206.09 941.12,-206.09 941.12,-206.09 942.1,-210.99 945.53,-205.21 943.08,-215.9 943.08,-215.9"/>
</g>
<!-- flamingpy.cv -->
<g id="node9" class="node">
<title>flamingpy.cv</title>
<polygon fill="none" stroke="black" points="784,-468 695,-468 695,-432 784,-432 784,-468"/>
<text text-anchor="middle" x="739.5" y="-446.3" font-family="Times,serif" font-size="14.00">flamingpy.cv</text>
</g>
<!-- flamingpy.cv.gkp -->
<g id="node10" class="node">
<title>flamingpy.cv.gkp</title>
<polygon fill="none" stroke="black" points="914.5,-468 802.5,-468 802.5,-432 914.5,-432 914.5,-468"/>
<text text-anchor="middle" x="858.5" y="-446.3" font-family="Times,serif" font-size="14.00">flamingpy.cv.gkp</text>
</g>
<!-- flamingpy.cv.macro_reduce -->
<g id="node11" class="node">
<title>flamingpy.cv.macro_reduce</title>
<polygon fill="none" stroke="black" points="1306,-108 1137,-108 1137,-72 1306,-72 1306,-108"/>
<text text-anchor="middle" x="1221.5" y="-86.3" font-family="Times,serif" font-size="14.00">flamingpy.cv.macro_reduce</text>
</g>
<!-- flamingpy.cv.macro_reduce&#45;&gt;flamingpy.cv.gkp -->
<g id="edge10" class="edge">
<title>flamingpy.cv.macro_reduce&#45;&gt;flamingpy.cv.gkp</title>
<path fill="none" stroke="black" d="M1249.05,-108.18C1283.07,-131.77 1336.5,-177.64 1336.5,-233 1336.5,-233 1336.5,-233 1336.5,-307 1336.5,-391.81 1056.47,-429.98 925.08,-443.23"/>
<polygon fill="black" stroke="black" points="914.74,-444.25 924.25,-438.79 919.71,-443.75 924.69,-443.26 924.69,-443.26 924.69,-443.26 919.71,-443.75 925.13,-447.74 914.74,-444.25 914.74,-444.25"/>
</g>
<!-- flamingpy.cv.ops -->
<g id="node12" class="node">
<title>flamingpy.cv.ops</title>
<polygon fill="none" stroke="black" points="1276.5,-180 1166.5,-180 1166.5,-144 1276.5,-144 1276.5,-180"/>
<text text-anchor="middle" x="1221.5" y="-158.3" font-family="Times,serif" font-size="14.00">flamingpy.cv.ops</text>
</g>
<!-- flamingpy.cv.macro_reduce&#45;&gt;flamingpy.cv.ops -->
<g id="edge11" class="edge">
<title>flamingpy.cv.macro_reduce&#45;&gt;flamingpy.cv.ops</title>
<path fill="none" stroke="black" d="M1221.5,-108.3C1221.5,-116.02 1221.5,-125.29 1221.5,-133.89"/>
<polygon fill="black" stroke="black" points="1221.5,-143.9 1217,-133.9 1221.5,-138.9 1221.5,-133.9 1221.5,-133.9 1221.5,-133.9 1221.5,-138.9 1226,-133.9 1221.5,-143.9 1221.5,-143.9"/>
</g>
<!-- flamingpy.cv.ops&#45;&gt;flamingpy.utils.viz -->
<g id="edge12" class="edge">
<title>flamingpy.cv.ops&#45;&gt;flamingpy.utils.viz</title>
<path fill="none" stroke="black" d="M1237.53,-180.2C1265.43,-212.23 1316.48,-281.59 1278.5,-324 1251.73,-353.9 996.05,-368.75 869.6,-374.32"/>
<polygon fill="black" stroke="black" points="859.25,-374.76 869.05,-369.84 864.25,-374.55 869.25,-374.33 869.25,-374.33 869.25,-374.33 864.25,-374.55 869.44,-378.83 859.25,-374.76 859.25,-374.76"/>
</g>
<!-- flamingpy.decoders -->
<g id="node13" class="node">
<title>flamingpy.decoders</title>
<polygon fill="none" stroke="black" points="426.5,-36 302.5,-36 302.5,0 426.5,0 426.5,-36"/>
<text text-anchor="middle" x="364.5" y="-14.3" font-family="Times,serif" font-size="14.00">flamingpy.decoders</text>
</g>
<!-- flamingpy.decoders.decoder -->
<g id="node14" class="node">
<title>flamingpy.decoders.decoder</title>
<polygon fill="none" stroke="black" points="449.5,-108 279.5,-108 279.5,-72 449.5,-72 449.5,-108"/>
<text text-anchor="middle" x="364.5" y="-86.3" font-family="Times,serif" font-size="14.00">flamingpy.decoders.decoder</text>
</g>
<!-- flamingpy.decoders&#45;&gt;flamingpy.decoders.decoder -->
<g id="edge13" class="edge">
<title>flamingpy.decoders&#45;&gt;flamingpy.decoders.decoder</title>
<path fill="none" stroke="black" d="M364.5,-36.3C364.5,-44.02 364.5,-53.29 364.5,-61.89"/>
<polygon fill="black" stroke="black" points="364.5,-71.9 360,-61.9 364.5,-66.9 364.5,-61.9 364.5,-61.9 364.5,-61.9 364.5,-66.9 369,-61.9 364.5,-71.9 364.5,-71.9"/>
</g>
<!-- flamingpy.decoders.decoder&#45;&gt;flamingpy.cv.gkp -->
<g id="edge14" class="edge">
<title>flamingpy.decoders.decoder&#45;&gt;flamingpy.cv.gkp</title>
<path fill="none" stroke="black" d="M347.79,-108.19C325.15,-133.38 287.5,-182.8 287.5,-233 287.5,-233 287.5,-233 287.5,-307 287.5,-422.61 680.08,-405.04 792.5,-432 792.6,-432.02 792.7,-432.05 792.8,-432.07"/>
<polygon fill="black" stroke="black" points="802.36,-434.4 791.58,-436.41 797.5,-433.22 792.65,-432.03 792.65,-432.03 792.65,-432.03 797.5,-433.22 793.71,-427.66 802.36,-434.4 802.36,-434.4"/>
</g>
<!-- flamingpy.decoders.mwpm -->
<g id="node15" class="node">
<title>flamingpy.decoders.mwpm</title>
<polygon fill="none" stroke="black" points="243,-180 76,-180 76,-144 243,-144 243,-180"/>
<text text-anchor="middle" x="159.5" y="-158.3" font-family="Times,serif" font-size="14.00">flamingpy.decoders.mwpm</text>
</g>
<!-- flamingpy.decoders.decoder&#45;&gt;flamingpy.decoders.mwpm -->
<g id="edge15" class="edge">
<title>flamingpy.decoders.decoder&#45;&gt;flamingpy.decoders.mwpm</title>
<path fill="none" stroke="black" d="M314.61,-108.03C285.85,-117.86 249.49,-130.27 219.21,-140.61"/>
<polygon fill="black" stroke="black" points="209.61,-143.89 217.62,-136.4 214.34,-142.27 219.07,-140.66 219.07,-140.66 219.07,-140.66 214.34,-142.27 220.53,-144.92 209.61,-143.89 209.61,-143.89"/>
</g>
<!-- flamingpy.decoders.unionfind -->
<g id="node19" class="node">
<title>flamingpy.decoders.unionfind</title>
<polygon fill="none" stroke="black" points="558.5,-180 378.5,-180 378.5,-144 558.5,-144 558.5,-180"/>
<text text-anchor="middle" x="468.5" y="-158.3" font-family="Times,serif" font-size="14.00">flamingpy.decoders.unionfind</text>
</g>
<!-- flamingpy.decoders.decoder&#45;&gt;flamingpy.decoders.unionfind -->
<g id="edge16" class="edge">
<title>flamingpy.decoders.decoder&#45;&gt;flamingpy.decoders.unionfind</title>
<path fill="none" stroke="black" d="M389.94,-108.12C403.29,-117.11 419.82,-128.24 434.28,-137.97"/>
<polygon fill="black" stroke="black" points="442.96,-143.81 432.15,-141.96 438.81,-141.02 434.67,-138.23 434.67,-138.23 434.67,-138.23 438.81,-141.02 437.18,-134.49 442.96,-143.81 442.96,-143.81"/>
</g>
<!-- flamingpy.decoders.mwpm.algos -->
<g id="node16" class="node">
<title>flamingpy.decoders.mwpm.algos</title>
<polygon fill="none" stroke="black" points="259,-252 60,-252 60,-216 259,-216 259,-252"/>
<text text-anchor="middle" x="159.5" y="-230.3" font-family="Times,serif" font-size="14.00">flamingpy.decoders.mwpm.algos</text>
</g>
<!-- flamingpy.decoders.mwpm&#45;&gt;flamingpy.decoders.mwpm.algos -->
<g id="edge17" class="edge">
<title>flamingpy.decoders.mwpm&#45;&gt;flamingpy.decoders.mwpm.algos</title>
<path fill="none" stroke="black" d="M159.5,-180.3C159.5,-188.02 159.5,-197.29 159.5,-205.89"/>
<polygon fill="black" stroke="black" points="159.5,-215.9 155,-205.9 159.5,-210.9 159.5,-205.9 159.5,-205.9 159.5,-205.9 159.5,-210.9 164,-205.9 159.5,-215.9 159.5,-215.9"/>
</g>
<!-- flamingpy.decoders.mwpm.matching -->
<g id="node18" class="node">
<title>flamingpy.decoders.mwpm.matching</title>
<polygon fill="none" stroke="black" points="221,-324 0,-324 0,-288 221,-288 221,-324"/>
<text text-anchor="middle" x="110.5" y="-302.3" font-family="Times,serif" font-size="14.00">flamingpy.decoders.mwpm.matching</text>
</g>
<!-- flamingpy.decoders.mwpm.algos&#45;&gt;flamingpy.decoders.mwpm.matching -->
<g id="edge18" class="edge">
<title>flamingpy.decoders.mwpm.algos&#45;&gt;flamingpy.decoders.mwpm.matching</title>
<path fill="none" stroke="black" d="M147.39,-252.3C141.63,-260.53 134.64,-270.52 128.29,-279.58"/>
<polygon fill="black" stroke="black" points="122.47,-287.9 124.52,-277.12 125.34,-283.8 128.21,-279.7 128.21,-279.7 128.21,-279.7 125.34,-283.8 131.89,-282.28 122.47,-287.9 122.47,-287.9"/>
</g>
<!-- flamingpy.decoders.mwpm.algos&#45;&gt;flamingpy.utils.viz -->
<g id="edge19" class="edge">
<title>flamingpy.decoders.mwpm.algos&#45;&gt;flamingpy.utils.viz</title>
<path fill="none" stroke="black" d="M180.89,-252.15C208.24,-273.05 257.88,-307.58 306.5,-324 383.09,-349.87 612.69,-366.31 729.54,-373.23"/>
<polygon fill="black" stroke="black" points="739.8,-373.83 729.56,-377.74 734.81,-373.54 729.82,-373.25 729.82,-373.25 729.82,-373.25 734.81,-373.54 730.08,-368.75 739.8,-373.83 739.8,-373.83"/>
</g>
<!-- flamingpy.decoders.mwpm.lemon -->
<g id="node17" class="node">
<title>flamingpy.decoders.mwpm.lemon</title>
<polygon fill="none" stroke="black" points="213,-396 8,-396 8,-360 213,-360 213,-396"/>
<text text-anchor="middle" x="110.5" y="-374.3" font-family="Times,serif" font-size="14.00">flamingpy.decoders.mwpm.lemon</text>
</g>
<!-- flamingpy.decoders.mwpm.matching&#45;&gt;flamingpy.decoders.mwpm -->
<g id="edge20" class="edge">
<title>flamingpy.decoders.mwpm.matching&#45;&gt;flamingpy.decoders.mwpm</title>
<path fill="none" stroke="black" d="M82.24,-287.97C70.07,-278.96 57.13,-266.7 50.5,-252 43.92,-237.41 42.01,-229.56 50.5,-216 59.05,-202.34 72.24,-192.1 86.53,-184.47"/>
<polygon fill="black" stroke="black" points="95.54,-180.05 88.55,-188.5 91.05,-182.25 86.57,-184.46 86.57,-184.46 86.57,-184.46 91.05,-182.25 84.58,-180.42 95.54,-180.05 95.54,-180.05"/>
</g>
<!-- flamingpy.decoders.mwpm.matching&#45;&gt;flamingpy.decoders.mwpm.lemon -->
<g id="edge21" class="edge">
<title>flamingpy.decoders.mwpm.matching&#45;&gt;flamingpy.decoders.mwpm.lemon</title>
<path fill="none" stroke="black" d="M110.5,-324.3C110.5,-332.02 110.5,-341.29 110.5,-349.89"/>
<polygon fill="black" stroke="black" points="110.5,-359.9 106,-349.9 110.5,-354.9 110.5,-349.9 110.5,-349.9 110.5,-349.9 110.5,-354.9 115,-349.9 110.5,-359.9 110.5,-359.9"/>
</g>
<!-- flamingpy.decoders.mwpm.matching&#45;&gt;flamingpy.utils.viz -->
<g id="edge22" class="edge">
<title>flamingpy.decoders.mwpm.matching&#45;&gt;flamingpy.utils.viz</title>
<path fill="none" stroke="black" d="M221.23,-322.31C226.05,-322.9 230.82,-323.46 235.5,-324 413.21,-344.43 623.1,-362.58 729.74,-371.38"/>
<polygon fill="black" stroke="black" points="739.73,-372.2 729.39,-375.87 734.75,-371.79 729.76,-371.38 729.76,-371.38 729.76,-371.38 734.75,-371.79 730.13,-366.9 739.73,-372.2 739.73,-372.2"/>
</g>
<!-- flamingpy.decoders.unionfind.algos -->
<g id="node20" class="node">
<title>flamingpy.decoders.unionfind.algos</title>
<polygon fill="none" stroke="black" points="637.5,-252 425.5,-252 425.5,-216 637.5,-216 637.5,-252"/>
<text text-anchor="middle" x="531.5" y="-230.3" font-family="Times,serif" font-size="14.00">flamingpy.decoders.unionfind.algos</text>
</g>
<!-- flamingpy.decoders.unionfind&#45;&gt;flamingpy.decoders.unionfind.algos -->
<g id="edge23" class="edge">
<title>flamingpy.decoders.unionfind&#45;&gt;flamingpy.decoders.unionfind.algos</title>
<path fill="none" stroke="black" d="M484.07,-180.3C491.7,-188.78 501.02,-199.14 509.38,-208.42"/>
<polygon fill="black" stroke="black" points="516.11,-215.9 506.07,-211.47 512.76,-212.18 509.42,-208.46 509.42,-208.46 509.42,-208.46 512.76,-212.18 512.76,-205.45 516.11,-215.9 516.11,-215.9"/>
</g>
<!-- flamingpy.decoders.unionfind.algos&#45;&gt;flamingpy.codes.stabilizer -->
<g id="edge24" class="edge">
<title>flamingpy.decoders.unionfind.algos&#45;&gt;flamingpy.codes.stabilizer</title>
<path fill="none" stroke="black" d="M570.64,-252.12C592.51,-261.69 619.96,-273.7 643.16,-283.85"/>
<polygon fill="black" stroke="black" points="652.49,-287.93 641.52,-288.05 647.91,-285.93 643.33,-283.92 643.33,-283.92 643.33,-283.92 647.91,-285.93 645.13,-279.8 652.49,-287.93 652.49,-287.93"/>
</g>
<!-- flamingpy.decoders.unionfind.uf_classes -->
<g id="node21" class="node">
<title>flamingpy.decoders.unionfind.uf_classes</title>
<polygon fill="none" stroke="black" points="555,-324 316,-324 316,-288 555,-288 555,-324"/>
<text text-anchor="middle" x="435.5" y="-302.3" font-family="Times,serif" font-size="14.00">flamingpy.decoders.unionfind.uf_classes</text>
</g>
<!-- flamingpy.decoders.unionfind.algos&#45;&gt;flamingpy.decoders.unionfind.uf_classes -->
<g id="edge25" class="edge">
<title>flamingpy.decoders.unionfind.algos&#45;&gt;flamingpy.decoders.unionfind.uf_classes</title>
<path fill="none" stroke="black" d="M507.77,-252.3C495.56,-261.2 480.51,-272.18 467.32,-281.8"/>
<polygon fill="black" stroke="black" points="458.96,-287.9 464.39,-278.37 463,-284.95 467.04,-282 467.04,-282 467.04,-282 463,-284.95 469.69,-285.64 458.96,-287.9 458.96,-287.9"/>
</g>
<!-- flamingpy.decoders.unionfind.algos&#45;&gt;flamingpy.utils.viz -->
<g id="edge26" class="edge">
<title>flamingpy.decoders.unionfind.algos&#45;&gt;flamingpy.utils.viz</title>
<path fill="none" stroke="black" d="M540.64,-252.15C552.31,-272.38 574.4,-305.58 602.5,-324 640.6,-348.97 690.13,-362.22 730,-369.24"/>
<polygon fill="black" stroke="black" points="739.91,-370.89 729.31,-373.68 734.98,-370.07 730.05,-369.24 730.05,-369.24 730.05,-369.24 734.98,-370.07 730.79,-364.8 739.91,-370.89 739.91,-370.89"/>
</g>
<!-- flamingpy.noise -->
<g id="node22" class="node">
<title>flamingpy.noise</title>
<polygon fill="none" stroke="black" points="1437.5,-36 1333.5,-36 1333.5,0 1437.5,0 1437.5,-36"/>
<text text-anchor="middle" x="1385.5" y="-14.3" font-family="Times,serif" font-size="14.00">flamingpy.noise</text>
</g>
<!-- flamingpy.noise.iid -->
<g id="node23" class="node">
<title>flamingpy.noise.iid</title>
<polygon fill="none" stroke="black" points="1446.5,-108 1324.5,-108 1324.5,-72 1446.5,-72 1446.5,-108"/>
<text text-anchor="middle" x="1385.5" y="-86.3" font-family="Times,serif" font-size="14.00">flamingpy.noise.iid</text>
</g>
<!-- flamingpy.noise&#45;&gt;flamingpy.noise.iid -->
<g id="edge27" class="edge">
<title>flamingpy.noise&#45;&gt;flamingpy.noise.iid</title>
<path fill="none" stroke="black" d="M1385.5,-36.3C1385.5,-44.02 1385.5,-53.29 1385.5,-61.89"/>
<polygon fill="black" stroke="black" points="1385.5,-71.9 1381,-61.9 1385.5,-66.9 1385.5,-61.9 1385.5,-61.9 1385.5,-61.9 1385.5,-66.9 1390,-61.9 1385.5,-71.9 1385.5,-71.9"/>
</g>
<!-- flamingpy.simulations -->
<g id="node24" class="node">
<title>flamingpy.simulations</title>
<polygon fill="none" stroke="black" points="1074,-36 935,-36 935,0 1074,0 1074,-36"/>
<text text-anchor="middle" x="1004.5" y="-14.3" font-family="Times,serif" font-size="14.00">flamingpy.simulations</text>
</g>
<!-- flamingpy.simulations&#45;&gt;flamingpy.codes -->
<g id="edge28" class="edge">
<title>flamingpy.simulations&#45;&gt;flamingpy.codes</title>
<path fill="none" stroke="black" d="M986.7,-36.3C977.9,-44.86 967.12,-55.34 957.5,-64.7"/>
<polygon fill="black" stroke="black" points="950.09,-71.9 954.13,-61.7 953.68,-68.41 957.26,-64.92 957.26,-64.92 957.26,-64.92 953.68,-68.41 960.4,-68.15 950.09,-71.9 950.09,-71.9"/>
</g>
<!-- flamingpy.simulations&#45;&gt;flamingpy.cv.macro_reduce -->
<g id="edge29" class="edge">
<title>flamingpy.simulations&#45;&gt;flamingpy.cv.macro_reduce</title>
<path fill="none" stroke="black" d="M1057.31,-36.03C1087.89,-45.9 1126.57,-58.38 1158.71,-68.75"/>
<polygon fill="black" stroke="black" points="1168.46,-71.89 1157.56,-73.1 1163.7,-70.35 1158.94,-68.82 1158.94,-68.82 1158.94,-68.82 1163.7,-70.35 1160.32,-64.54 1168.46,-71.89 1168.46,-71.89"/>
</g>
<!-- flamingpy.simulations&#45;&gt;flamingpy.cv.ops -->
<g id="edge30" class="edge">
<title>flamingpy.simulations&#45;&gt;flamingpy.cv.ops</title>
<path fill="none" stroke="black" d="M1026.64,-36.19C1050.86,-54.71 1091.1,-84.68 1127.5,-108 1144.4,-118.83 1163.62,-129.88 1180.26,-139.07"/>
<polygon fill="black" stroke="black" points="1189.21,-143.97 1178.28,-143.11 1184.82,-141.57 1180.44,-139.17 1180.44,-139.17 1180.44,-139.17 1184.82,-141.57 1182.6,-135.22 1189.21,-143.97 1189.21,-143.97"/>
</g>
<!-- flamingpy.simulations&#45;&gt;flamingpy.decoders.decoder -->
<g id="edge31" class="edge">
<title>flamingpy.simulations&#45;&gt;flamingpy.decoders.decoder</title>
<path fill="none" stroke="black" d="M934.79,-26.62C819.62,-39.22 589.46,-64.4 459.5,-78.61"/>
<polygon fill="black" stroke="black" points="449.56,-79.7 459.01,-74.14 454.53,-79.15 459.5,-78.61 459.5,-78.61 459.5,-78.61 454.53,-79.15 459.99,-83.08 449.56,-79.7 449.56,-79.7"/>
</g>
<!-- flamingpy.utils -->
<g id="node25" class="node">
<title>flamingpy.utils</title>
<polygon fill="none" stroke="black" points="1555,-36 1456,-36 1456,0 1555,0 1555,-36"/>
<text text-anchor="middle" x="1505.5" y="-14.3" font-family="Times,serif" font-size="14.00">flamingpy.utils</text>
</g>
<!-- flamingpy.utils.viz&#45;&gt;flamingpy.codes -->
<g id="edge32" class="edge">
<title>flamingpy.utils.viz&#45;&gt;flamingpy.codes</title>
<path fill="none" stroke="black" d="M797.03,-359.9C792.02,-318.62 784.85,-211.88 832.5,-144 841.9,-130.62 855.75,-120.33 870.17,-112.55"/>
<polygon fill="black" stroke="black" points="879.19,-108.02 872.28,-116.53 874.72,-110.26 870.26,-112.51 870.26,-112.51 870.26,-112.51 874.72,-110.26 868.24,-108.49 879.19,-108.02 879.19,-108.02"/>
</g>
<!-- flamingpy.utils.viz&#45;&gt;flamingpy.cv -->
<g id="edge33" class="edge">
<title>flamingpy.utils.viz&#45;&gt;flamingpy.cv</title>
<path fill="none" stroke="black" d="M784.67,-396.3C777.48,-404.7 768.7,-414.93 760.81,-424.14"/>
<polygon fill="black" stroke="black" points="754.16,-431.9 757.25,-421.37 757.41,-428.1 760.67,-424.3 760.67,-424.3 760.67,-424.3 757.41,-428.1 764.09,-427.23 754.16,-431.9 754.16,-431.9"/>
</g>
<!-- flamingpy.utils.viz&#45;&gt;flamingpy.cv.gkp -->
<g id="edge34" class="edge">
<title>flamingpy.utils.viz&#45;&gt;flamingpy.cv.gkp</title>
<path fill="none" stroke="black" d="M814.08,-396.3C821.16,-404.7 829.78,-414.93 837.55,-424.14"/>
<polygon fill="black" stroke="black" points="844.08,-431.9 834.2,-427.15 840.86,-428.07 837.64,-424.25 837.64,-424.25 837.64,-424.25 840.86,-428.07 841.08,-421.35 844.08,-431.9 844.08,-431.9"/>
</g>
</g>
</svg>
